<svg width="600" height="400" viewBox="0 0 600 400" fill="none" xmlns="http://www.w3.org/2000/svg">
<path d="M69.9425 215.811C70.4004 202.885 70.242 189.94 69.468 177.032C67.7443 150.412 64.0824 123.991 58.5181 98.0262C55.4613 83.3992 51.7018 69.0253 47.7781 54.6716C47.6686 54.2363 47.039 54.3578 47.1485 54.8133C59.2664 105.426 69.2034 157.658 68.519 210.274C68.3274 225.003 66.7944 239.468 65.5352 254.095C65.5352 254.489 66.0827 254.641 66.1648 254.236C68.665 241.715 69.4772 228.596 69.9425 215.811Z" fill="#EBEBEB"/>
<path d="M47.1485 54.8132C47.1485 54.8132 28.7891 106.499 32.9045 118.646C37.0198 130.793 45.4877 133.384 45.4877 133.384C45.4877 133.384 34.2549 151.129 42.1024 167.861C49.9498 184.594 67.3875 183.753 68.5646 202.672C68.5464 202.672 69.5228 123.575 47.1485 54.8132Z" fill="#EBEBEB"/>
<path d="M66.5479 170.007C66.579 169.919 66.579 169.822 66.5479 169.734C63.9747 134.589 58.3355 99.5546 48.7452 65.7658C48.7452 65.6645 48.5719 65.6949 48.5992 65.7658C52.2492 80.8888 55.4612 96.0894 58.2351 111.368C55.7696 108.778 52.7576 106.916 49.4752 105.952C49.4631 105.952 49.4515 105.957 49.443 105.967C49.4344 105.976 49.4296 105.989 49.4296 106.003C49.4296 106.016 49.4344 106.029 49.443 106.038C49.4515 106.048 49.4631 106.053 49.4752 106.053C52.8697 107.683 56.1182 109.566 58.518 112.764C59.0564 115.801 59.5856 118.757 60.0784 121.753C55.9813 116.692 50.2873 114.141 44.566 111.742C44.493 111.742 44.4474 111.853 44.566 111.884C50.4881 114.566 56.4284 118.008 60.416 123.676C61.8152 132.26 63.0318 140.868 64.066 149.499C61.0981 146.056 57.2949 143.641 53.1161 142.545C52.9883 142.545 52.9153 142.717 53.0522 142.757C57.362 144.136 61.2172 146.876 64.1481 150.643C64.1683 150.668 64.1932 150.689 64.2211 150.704C64.5861 153.74 64.9328 156.777 65.2522 159.814C62.9602 157.661 60.3725 155.928 57.5873 154.682C57.5754 154.687 57.5653 154.696 57.5581 154.708C57.5509 154.719 57.5471 154.733 57.5471 154.747C57.5471 154.762 57.5509 154.775 57.5581 154.787C57.5653 154.799 57.5754 154.808 57.5873 154.813C60.4266 156.178 63.0273 158.087 65.2705 160.451C65.2705 160.451 65.3343 160.451 65.3708 160.502C65.672 163.397 65.9822 166.292 66.2833 169.187C62.1493 163.645 56.7836 159.396 50.7162 156.858C50.6935 156.854 50.6701 156.858 50.6499 156.87C50.6297 156.883 50.614 156.902 50.6055 156.926C50.5969 156.95 50.596 156.976 50.6028 157.001C50.6097 157.025 50.624 157.046 50.6432 157.06C56.6346 159.993 61.8996 164.487 65.9913 170.159C66.0329 170.225 66.0927 170.275 66.1617 170.3C66.2308 170.326 66.3055 170.326 66.3746 170.301C66.7761 174.748 67.1259 179.202 67.4239 183.662C67.4239 183.723 67.5152 183.733 67.5152 183.662C67.2049 179.121 66.8825 174.569 66.5479 170.007Z" fill="white"/>
<path d="M51.8021 100.84C48.6175 98.4209 44.5752 97.3783 40.7701 97.0341C40.6788 97.0341 40.6788 97.1758 40.7701 97.186C44.7212 97.8338 48.07 99.423 51.6744 101.134C51.8021 101.215 51.939 100.952 51.8021 100.84Z" fill="white"/>
<path d="M54.0289 155.572C51.4753 153.95 48.6665 152.881 45.7526 152.424C45.6522 152.424 45.6431 152.586 45.7526 152.596C48.6101 153.232 51.3741 154.305 53.965 155.785C53.9865 155.783 54.0071 155.774 54.0241 155.76C54.0411 155.745 54.0538 155.725 54.0607 155.702C54.0675 155.68 54.0681 155.655 54.0625 155.632C54.0568 155.609 54.0451 155.588 54.0289 155.572Z" fill="white"/>
<path d="M118.204 119.486C110.441 125.442 103.311 132.356 96.9525 140.095C90.3985 148.281 85.338 157.8 82.0515 168.124C75.0842 189.644 71.3391 212.284 70.9647 235.145C70.7294 247.813 71.8288 260.467 74.2406 272.852C74.2563 272.944 74.3046 273.026 74.3747 273.079C74.4449 273.132 74.5312 273.152 74.6147 273.135C74.6982 273.117 74.772 273.064 74.8199 272.986C74.8678 272.908 74.8859 272.813 74.8702 272.72C71.8749 250.866 71.9889 228.627 75.2078 206.812C78.365 185.434 83.3108 162.172 95.5655 144.792C102.236 135.327 110.558 127.887 118.779 120.194C119.199 119.81 118.652 119.142 118.204 119.486Z" fill="#EBEBEB"/>
<path d="M73.7021 219.769C78.13 211.841 83.3322 204.478 89.2145 197.814C98.4033 187.63 106.132 180.393 107.327 173.651C108.523 166.91 98.1296 161.96 98.1296 161.96C98.1296 161.96 110.841 164.49 114.317 158.569C117.794 152.647 119.473 118.393 119.473 118.393C119.473 118.393 96.3502 136.694 85.5828 162.365C74.8154 188.035 73.7021 219.769 73.7021 219.769Z" fill="#EBEBEB"/>
<path d="M111.397 127.169C101.67 137.767 91.879 149.064 86.1486 162.992C84.1922 167.802 82.4891 172.733 81.0477 177.761C80.7557 178.773 80.4546 179.785 80.1353 180.798C80.1106 180.848 80.0951 180.903 80.0896 180.96C77.3734 191.37 75.1831 201.941 73.5288 212.623C73.5288 212.683 73.6018 212.724 73.6201 212.623C74.6147 207.278 75.7097 201.873 76.9415 196.498C76.9867 196.507 77.0332 196.507 77.0784 196.498C79.0076 195.578 81.0554 195 83.1465 194.787C83.2834 194.787 83.2742 194.503 83.1465 194.514C81.1049 194.617 79.0853 195.026 77.1423 195.728C78.2646 190.87 79.4783 186.031 80.847 181.263C85.3308 180.046 89.9197 179.367 94.5344 179.239V179.148C90.0238 178.947 85.5088 179.396 81.1025 180.484C81.3397 179.664 81.5861 178.854 81.8325 178.034C84.8369 177.242 87.8852 176.671 90.9574 176.324C91.0122 176.324 91.0122 176.212 90.9574 176.212C87.9506 176.278 84.9576 176.682 82.0241 177.417C83.2742 173.287 84.6338 169.218 86.1486 165.27C87.3953 162.022 88.853 158.879 90.5103 155.866C92.9451 155.198 95.4173 154.711 97.9106 154.408C97.9836 154.408 97.9745 154.277 97.9106 154.267C95.5828 154.073 93.2423 154.33 90.9939 155.026C92.2075 152.849 93.485 150.714 94.8537 148.649C100.037 147.373 105.293 146.189 110.603 147.292C110.695 147.292 110.722 147.14 110.603 147.12C105.557 145.642 100.566 146.493 95.5199 147.596C96.0674 146.786 96.6331 145.986 97.1989 145.197C100.337 144.125 103.597 143.556 106.88 143.506C106.895 143.506 106.909 143.5 106.919 143.489C106.929 143.477 106.935 143.462 106.935 143.446C106.935 143.43 106.929 143.414 106.919 143.403C106.909 143.391 106.895 143.385 106.88 143.385C103.848 143.077 100.791 143.379 97.8558 144.276C102.135 138.374 106.871 132.827 111.543 127.331C111.799 127.068 111.625 126.926 111.397 127.169Z" fill="white"/>
<path d="M111.114 150.531C109.604 150.292 108.074 150.231 106.552 150.349C106.369 150.349 106.379 150.714 106.552 150.714C108.076 150.714 109.591 150.643 111.114 150.714C111.13 150.705 111.143 150.692 111.152 150.676C111.161 150.66 111.166 150.642 111.166 150.623C111.166 150.604 111.161 150.585 111.152 150.569C111.143 150.553 111.13 150.54 111.114 150.531Z" fill="white"/>
<path d="M94.4976 183.774C92.0564 183.835 89.644 184.373 87.371 185.363C87.3163 185.363 87.371 185.484 87.371 185.474C89.7252 184.847 92.1069 184.594 94.4793 184.158C94.5021 184.16 94.5249 184.156 94.5464 184.148C94.5679 184.139 94.5876 184.126 94.6046 184.109C94.6215 184.092 94.6353 184.072 94.6451 184.049C94.655 184.026 94.6606 184.001 94.6618 183.976C94.663 183.951 94.6597 183.926 94.6521 183.902C94.6445 183.878 94.6327 183.856 94.6175 183.837C94.6022 183.818 94.5838 183.803 94.5632 183.792C94.5427 183.781 94.5203 183.775 94.4976 183.774Z" fill="white"/>
<path d="M89.5154 172.285C88.4992 172.28 87.4849 172.381 86.486 172.588C86.3856 172.588 86.3947 172.791 86.486 172.791C87.4978 172.852 88.5127 172.801 89.5154 172.639C89.6979 172.598 89.6888 172.295 89.5154 172.285Z" fill="white"/>
<path d="M5.88539 155.856C13.408 158.685 20.6171 162.451 27.3746 167.082C34.3857 172.025 40.4632 178.433 45.2685 185.95C55.4004 201.578 63.1558 218.942 68.2268 237.352C71.0545 247.552 72.8 258.083 73.428 268.732C73.4164 268.801 73.3831 268.865 73.3339 268.91C73.2848 268.955 73.2228 268.98 73.1589 268.98C73.0949 268.98 73.0329 268.955 72.9838 268.91C72.9346 268.865 72.9013 268.801 72.8897 268.732C70.7613 250.278 66.0381 232.308 58.892 215.477C51.8841 198.988 43.0238 181.435 29.4916 170.513C22.1186 164.561 13.8332 160.674 5.57514 156.554C5.14627 156.362 5.45652 155.684 5.88539 155.856Z" fill="#EBEBEB"/>
<path d="M62.8344 225.59C57.604 220.307 51.8665 215.677 45.7252 211.783C36.1714 205.901 28.3878 202.024 26.0336 196.882C23.6794 191.74 31.0341 185.059 31.0341 185.059C31.0341 185.059 21.2795 190.363 17.2372 186.466C13.1949 182.569 4.69043 155.269 4.69043 155.269C4.69043 155.269 27.2107 164.156 41.2814 182.174C55.352 200.192 62.8344 225.59 62.8344 225.59Z" fill="#EBEBEB"/>
<path d="M61.6571 219.962C50.3878 196.498 35.3774 175.281 14.7642 161.251C20.1429 165.11 25.1864 169.515 29.8294 174.41C25.6386 174.157 21.4617 175.134 17.7206 177.245C17.709 177.256 17.7008 177.271 17.6974 177.288C17.6939 177.304 17.6954 177.322 17.7015 177.338C17.7075 177.353 17.718 177.367 17.7313 177.375C17.7446 177.384 17.76 177.388 17.7754 177.386C21.7572 175.73 25.9886 174.936 30.24 175.048C30.2908 175.047 30.3394 175.025 30.3769 174.987C31.116 175.757 31.8369 176.536 32.5486 177.326C30.3717 177.439 28.2073 177.757 26.0791 178.277C26.067 178.277 26.0554 178.283 26.0468 178.292C26.0382 178.302 26.0334 178.314 26.0334 178.328C26.0334 178.341 26.0382 178.354 26.0468 178.364C26.0554 178.373 26.067 178.378 26.0791 178.378C28.332 177.911 30.6221 177.701 32.9136 177.751C36.6945 181.977 40.2588 186.434 43.5898 191.102C42.0629 190.862 40.5073 190.986 39.0273 191.467C39.0091 191.473 38.9932 191.486 38.9819 191.504C38.9706 191.521 38.9646 191.542 38.9646 191.563C38.9646 191.584 38.9706 191.605 38.9819 191.622C38.9932 191.64 39.0091 191.652 39.0273 191.659C40.63 191.454 42.2474 191.43 43.8544 191.588C44.4749 192.459 45.0954 193.319 45.6794 194.2C41.0753 193.893 36.4563 194.392 31.992 195.678C31.9281 195.678 31.9464 195.809 31.992 195.799C36.6146 194.795 41.3344 194.455 46.0353 194.787C46.6101 195.627 47.1576 196.498 47.7142 197.358C44.9717 197.27 42.2316 197.61 39.5748 198.37C39.5624 198.366 39.5492 198.364 39.5362 198.366C39.5233 198.368 39.5109 198.374 39.5002 198.382C39.4896 198.391 39.4809 198.402 39.4748 198.415C39.4688 198.428 39.4657 198.442 39.4657 198.456C39.4657 198.471 39.4688 198.485 39.4748 198.498C39.4809 198.511 39.4896 198.522 39.5002 198.531C39.5109 198.539 39.5233 198.545 39.5362 198.547C39.5492 198.549 39.5624 198.547 39.5748 198.542C42.3396 197.878 45.1733 197.636 47.9971 197.824C50.4243 201.518 52.7421 205.304 54.9777 209.141C53.7851 208.901 52.5581 208.985 51.4007 209.384C51.3886 209.384 51.377 209.389 51.3684 209.398C51.3599 209.408 51.3551 209.421 51.3551 209.434C51.3551 209.448 51.3599 209.461 51.3684 209.47C51.377 209.48 51.3886 209.485 51.4007 209.485C52.693 209.375 53.9925 209.443 55.2697 209.687C57.2772 213.156 59.2116 216.652 61.0731 220.174C61.3743 220.488 61.8396 220.265 61.6571 219.962Z" fill="white"/>
<path d="M44.1371 200.496C41.9221 200.335 39.6997 200.637 37.5854 201.387C37.5306 201.387 37.5854 201.508 37.5854 201.498C39.7403 201.095 41.9167 200.848 44.1006 200.759C44.2557 200.729 44.2831 200.516 44.1371 200.496Z" fill="white"/>
<path d="M24.4822 171.91C23.4748 171.825 22.4617 171.894 21.471 172.113C21.4527 172.119 21.4368 172.132 21.4255 172.149C21.4143 172.167 21.4082 172.187 21.4082 172.209C21.4082 172.23 21.4143 172.251 21.4255 172.268C21.4368 172.285 21.4527 172.298 21.471 172.305C22.4656 172.194 23.4419 172.234 24.4366 172.194C24.4704 172.2 24.5053 172.192 24.5336 172.17C24.5618 172.148 24.5811 172.115 24.5871 172.077C24.5932 172.04 24.5855 172.001 24.5658 171.97C24.5462 171.938 24.5161 171.917 24.4822 171.91Z" fill="white"/>
<path d="M91.8878 303.158H41.0347L48.289 244.245L50.1413 229.143H82.7812L84.6335 244.245L91.8878 303.158Z" fill="#DBDBDB"/>
<path d="M84.6336 244.245H48.2891L50.1414 229.143H82.7813L84.6336 244.245Z" fill="#C7C7C7"/>
<path d="M87.4439 223.899H45.4692V236.694H87.4439V223.899Z" fill="#DBDBDB"/>
<path d="M478.767 34.3658C476.352 41.1823 474.932 48.3818 474.56 55.6939H457.752H457.542V55.1777L457.679 53.7301C457.883 51.2176 458.249 48.7245 458.774 46.2699C459.655 42.2531 460.925 38.3536 462.561 34.6391C462.591 34.5486 462.648 34.4723 462.723 34.4226C462.797 34.3729 462.885 34.3529 462.971 34.3658H478.739H478.767Z" fill="#EBEBEB"/>
<path d="M478.256 81.9921H462.615C462.533 82.0015 462.45 81.9796 462.381 81.9299C462.311 81.8803 462.259 81.8058 462.232 81.7188C460.426 77.5393 459.123 73.1152 458.354 68.5596C457.966 66.3674 457.71 64.1491 457.588 61.9192C457.588 61.8484 457.588 61.7674 457.542 61.6965V61.1702H457.797H474.286C474.587 61.1702 474.578 61.1702 474.596 61.5143C474.706 63.0226 474.797 64.5511 474.925 66.0593C475.142 68.4632 475.492 70.8499 475.974 73.2058C476.539 76.0892 477.28 78.9266 478.192 81.6986C478.201 81.7998 478.219 81.8909 478.256 81.9921Z" fill="#EBEBEB"/>
<path d="M544.028 87.4988C544.028 87.6 543.936 87.681 543.9 87.7518C542.571 90.0001 541.088 92.132 539.465 94.129C537.509 96.5816 535.332 98.8065 532.968 100.769C530.649 102.709 528.172 104.404 525.568 105.831C523.06 107.22 520.442 108.351 517.748 109.211C515.61 109.887 513.433 110.401 511.233 110.75L510.594 110.872H510.22L509.873 110.639L510.293 110.315C515.072 106.713 519.252 102.219 522.648 97.0341C524.569 94.1112 526.257 91.0088 527.694 87.762C527.719 87.6739 527.771 87.5983 527.841 87.5484C527.911 87.4984 527.995 87.4773 528.077 87.4887H544.073L544.028 87.4988Z" fill="#EBEBEB"/>
<path d="M528.388 55.6737H506.415V34.4164H506.671H523.561C523.635 34.4063 523.71 34.4264 523.772 34.4729C523.834 34.5194 523.879 34.5892 523.898 34.6695C525.48 38.672 526.652 42.8584 527.393 47.1505C527.79 49.3817 528.073 51.6358 528.242 53.9022C528.297 54.4488 528.342 55.0461 528.388 55.6737Z" fill="#EBEBEB"/>
<path d="M528.251 61.3625C528.251 61.8586 528.251 62.3748 528.187 62.8607C528.096 64.045 528.014 65.2395 527.868 66.4137C527.658 68.0434 527.439 69.6832 527.138 71.3028C526.486 74.8567 525.533 78.3341 524.291 81.6885C524.271 81.7868 524.219 81.8735 524.145 81.9315C524.07 81.9895 523.979 82.0148 523.889 82.0023H506.287V61.3625H528.251Z" fill="#EBEBEB"/>
<path d="M501.461 34.5076V55.8356H480.008C480.008 55.289 480.053 54.7627 480.108 54.2363C480.218 53.0418 480.3 51.8474 480.473 50.6631C480.738 48.8613 481.012 47.0493 481.386 45.2577C482.092 41.6404 483.122 38.1103 484.461 34.7202C484.485 34.6366 484.535 34.565 484.601 34.5171C484.668 34.4692 484.747 34.448 484.826 34.457H501.461V34.5076Z" fill="#EBEBEB"/>
<path d="M501.487 61.6459C501.487 68.3267 501.487 75.011 501.487 81.6985V81.9921H484.323C484.239 82.0051 484.154 81.9834 484.083 81.9312C484.013 81.8789 483.962 81.7998 483.94 81.7087C482.637 78.2492 481.659 74.6503 481.02 70.9687C480.701 69.0758 480.454 67.1627 480.245 65.2495C480.099 64.0044 480.062 62.7391 479.989 61.4738C479.985 61.4301 479.985 61.386 479.989 61.3422H501.186C501.433 61.3321 501.487 61.403 501.487 61.6459Z" fill="#EBEBEB"/>
<path d="M551.683 55.8255H533.68C533.316 48.4706 531.899 41.2268 529.482 34.3659H546.263C546.346 34.3534 546.43 34.3727 546.501 34.4206C546.573 34.4685 546.627 34.5421 546.656 34.6291C548.577 38.8508 549.974 43.3423 550.807 47.9806C551.257 50.4496 551.562 52.9483 551.72 55.4611L551.683 55.8255Z" fill="#EBEBEB"/>
<path d="M551.693 61.2006C551.693 61.6864 551.693 62.1419 551.638 62.5975C551.523 64.3991 551.325 66.1931 551.045 67.9725C550.378 72.1037 549.266 76.131 547.733 79.9676C547.495 80.5851 547.222 81.1925 546.975 81.8099C546.959 81.8714 546.923 81.9243 546.875 81.9594C546.826 81.9946 546.768 82.0098 546.711 82.0023H529.948C530.149 81.3646 530.35 80.7471 530.541 80.1195C531.512 76.9466 532.256 73.694 532.768 70.3918C533.154 67.9981 533.413 65.5815 533.543 63.1542C533.543 62.5772 533.607 62.0002 533.626 61.4334C533.626 61.2815 533.626 61.2006 533.817 61.2208C533.872 61.2259 533.927 61.2259 533.981 61.2208L551.693 61.2006Z" fill="#EBEBEB"/>
<path d="M543.535 28.9301V29.0212H543.298C538.051 29.0212 532.804 29.0212 527.557 29.0212C527.477 29.0319 527.396 29.0129 527.327 28.9671C527.257 28.9214 527.204 28.8514 527.174 28.7681C525.083 24.1291 522.457 19.8112 519.363 15.9227C517.537 13.6796 515.53 11.6263 513.368 9.78847C512.291 8.87744 511.178 8.01703 510.083 7.13638L509.9 6.98454L510.119 6.81246C510.119 6.71123 510.056 6.58976 510.01 6.43793C515.562 7.12922 520.956 8.92606 525.933 11.7421C533.044 15.6817 539.11 21.6048 543.535 28.9301Z" fill="#EBEBEB"/>
<path d="M498.412 110.639C498.264 110.69 498.11 110.717 497.956 110.72C496.227 110.469 494.515 110.101 492.827 109.616C489.676 108.723 486.617 107.464 483.703 105.861C480.366 104.018 477.238 101.741 474.386 99.0789C472.359 97.1959 470.487 95.1159 468.792 92.8637C467.526 91.1596 466.359 89.3676 465.298 87.4988C465.266 87.4454 465.242 87.3875 465.225 87.3267H465.48C470.371 87.3267 475.253 87.3267 480.144 87.3267C480.222 87.3196 480.301 87.3415 480.367 87.3892C480.433 87.4368 480.483 87.5074 480.509 87.5899C482.037 91.01 483.842 94.2693 485.902 97.3277C487.806 100.108 489.918 102.705 492.216 105.092C494.106 107.076 496.139 108.887 498.293 110.507L498.412 110.639Z" fill="#EBEBEB"/>
<path d="M498.22 6.9542C497.545 7.50081 496.76 8.11829 495.994 8.76612C493.435 10.9766 491.057 13.4323 488.886 16.1049C485.947 19.6578 483.441 23.6224 481.431 27.8976C481.303 28.1709 481.193 28.4543 481.047 28.7074C481.022 28.7508 480.988 28.7878 480.949 28.8157C480.91 28.8436 480.865 28.8619 480.819 28.8694C480.555 28.8694 480.29 28.8694 480.025 28.8694H465.699C473.684 16.3681 484.405 8.84711 498.056 6.59991C498.056 6.67077 497.992 6.74163 497.956 6.80236L498.22 6.9542Z" fill="#EBEBEB"/>
<path d="M521.827 87.5089C519.792 91.4481 517.341 95.1045 514.527 98.4007C512.054 101.356 509.273 103.972 506.241 106.195V87.5089H521.827Z" fill="#EBEBEB"/>
<path d="M501.46 87.519V105.841C495.257 101.124 490.147 94.8455 486.55 87.519H501.46Z" fill="#EBEBEB"/>
<path d="M521.343 28.8592H506.415V11.4384C509.477 13.6532 512.289 16.2665 514.792 19.2226C517.267 22.1775 519.463 25.4066 521.343 28.8592Z" fill="#EBEBEB"/>
<path d="M501.46 11.9344V29.0009H487.134C490.638 22.1459 495.545 16.3 501.46 11.9344Z" fill="#EBEBEB"/>
<path d="M217.182 99.504H91.7783V8.90778H217.182V99.504ZM92.6908 98.4917H216.27V9.92002H92.6908V98.4917Z" fill="#EBEBEB"/>
<path d="M217.182 21.8241H91.7783V8.90778H217.182V21.8241ZM92.6908 20.8118H216.27V9.92002H92.6908V20.8118Z" fill="#EBEBEB"/>
<path d="M102.308 15.4874C102.308 16.088 102.148 16.6752 101.847 17.1746C101.546 17.6739 101.119 18.0632 100.619 18.293C100.118 18.5229 99.5679 18.583 99.0369 18.4658C98.5059 18.3486 98.0181 18.0594 97.6353 17.6347C97.2525 17.21 96.9917 16.6689 96.8861 16.0799C96.7805 15.4908 96.8347 14.8802 97.0419 14.3253C97.2491 13.7704 97.5999 13.2962 98.0501 12.9625C98.5003 12.6288 99.0296 12.4507 99.571 12.4507C100.297 12.4507 100.993 12.7706 101.507 13.3401C102.02 13.9096 102.308 14.682 102.308 15.4874Z" fill="#C7C7C7"/>
<path d="M113.323 15.4874C113.323 16.0902 113.161 16.6793 112.858 17.1797C112.555 17.6801 112.125 18.0692 111.622 18.2975C111.119 18.5258 110.566 18.5829 110.034 18.4616C109.502 18.3402 109.014 18.046 108.633 17.6162C108.252 17.1864 107.995 16.6406 107.895 16.0482C107.794 15.4559 107.855 14.8437 108.069 14.2898C108.284 13.7359 108.642 13.2652 109.098 12.9377C109.554 12.6102 110.087 12.4406 110.631 12.4507C110.988 12.4506 111.342 12.5295 111.672 12.6827C112.001 12.8359 112.3 13.0604 112.55 13.3431C112.801 13.6258 112.998 13.961 113.131 14.3291C113.264 14.6973 113.329 15.091 113.323 15.4874Z" fill="#EBEBEB"/>
<path d="M124.345 15.4874C124.345 16.088 124.185 16.6752 123.884 17.1746C123.583 17.6739 123.155 18.0632 122.655 18.293C122.155 18.5229 121.605 18.583 121.074 18.4658C120.543 18.3486 120.055 18.0594 119.672 17.6347C119.289 17.21 119.028 16.6689 118.923 16.0799C118.817 15.4908 118.871 14.8802 119.078 14.3253C119.286 13.7704 119.637 13.2962 120.087 12.9625C120.537 12.6288 121.066 12.4507 121.608 12.4507C122.334 12.4507 123.03 12.7706 123.543 13.3401C124.057 13.9096 124.345 14.682 124.345 15.4874Z" fill="#FFC727"/>
<path d="M300 400C465.685 400 600 381.274 600 358.174C600 335.074 465.685 316.348 300 316.348C134.315 316.348 0 335.074 0 358.174C0 381.274 134.315 400 300 400Z" fill="#EBEBEB"/>
<path d="M4.09717 303.158L78.0729 302.915L152.049 302.824L300 302.652L447.952 302.824L521.927 302.915L595.903 303.158L521.927 303.411L447.952 303.492L300 303.664L152.049 303.492L78.0729 303.401L4.09717 303.158Z" fill="#263238"/>
<path d="M476.768 54.3983H122.548V317.249H476.768V54.3983Z" fill="#DBDBDB"/>
<path d="M474.195 57.6071H125.121V314.04H474.195V57.6071Z" fill="#263238"/>
<path d="M522.904 336.957H76.4121V354.995H522.904V336.957Z" fill="#C7C7C7"/>
<path d="M76.4121 336.957L122.548 317.249H476.768L522.904 336.957H76.4121Z" fill="#DBDBDB"/>
<path d="M126.672 329.973L156.446 317.249H442.878L472.652 329.973H126.672Z" fill="#263238"/>
<path d="M454.467 77.0928H144.849V294.564H454.467V77.0928Z" fill="white"/>
<path d="M454.475 77.0928H144.593V85.4641H454.475V77.0928Z" fill="#455A64"/>
<path d="M150.588 81.2836C150.588 81.6961 150.477 82.0992 150.27 82.4415C150.062 82.7838 149.767 83.0496 149.423 83.2051C149.078 83.3605 148.7 83.3986 148.336 83.3143C147.972 83.23 147.639 83.0273 147.379 82.732C147.119 82.4367 146.945 82.0623 146.878 81.6565C146.811 81.2507 146.854 80.8319 147.003 80.4538C147.152 80.0756 147.398 79.7551 147.712 79.5333C148.026 79.3115 148.392 79.1984 148.763 79.2084C149.252 79.2217 149.716 79.4461 150.057 79.8338C150.398 80.2216 150.589 80.7419 150.588 81.2836Z" fill="#C7C7C7"/>
<path d="M158.226 81.2836C158.226 81.6961 158.115 82.0992 157.907 82.4415C157.7 82.7838 157.405 83.0496 157.06 83.2051C156.716 83.3605 156.337 83.3986 155.973 83.3143C155.609 83.23 155.276 83.0273 155.017 82.732C154.757 82.4367 154.582 82.0623 154.515 81.6565C154.448 81.2507 154.492 80.8319 154.641 80.4538C154.789 80.0756 155.036 79.7551 155.35 79.5333C155.663 79.3115 156.029 79.1984 156.401 79.2084C156.889 79.2217 157.353 79.4461 157.694 79.8338C158.035 80.2216 158.226 80.7419 158.226 81.2836Z" fill="white"/>
<path d="M165.864 81.2835C165.864 81.694 165.754 82.0952 165.549 82.4364C165.343 82.7777 165.051 83.0436 164.709 83.2007C164.367 83.3578 163.991 83.3988 163.628 83.3188C163.265 83.2387 162.932 83.0411 162.67 82.7509C162.409 82.4607 162.231 82.0909 162.159 81.6884C162.086 81.2858 162.123 80.8686 162.265 80.4894C162.407 80.1103 162.646 79.7862 162.954 79.5582C163.262 79.3301 163.623 79.2084 163.993 79.2084C164.489 79.2084 164.965 79.4271 165.316 79.8162C165.667 80.2054 165.864 80.7332 165.864 81.2835Z" fill="#FFC727"/>
<path d="M159.723 196.589L280.126 196.589V103.047L159.723 103.047V196.589Z" fill="#EBEBEB"/>
<path d="M173.793 129.639C173.793 131.827 174.378 133.966 175.474 135.785C176.57 137.605 178.128 139.023 179.95 139.86C181.773 140.698 183.778 140.917 185.713 140.49C187.647 140.063 189.425 139.009 190.819 137.462C192.214 135.915 193.164 133.943 193.549 131.797C193.934 129.651 193.736 127.426 192.981 125.405C192.226 123.383 190.948 121.655 189.308 120.439C187.668 119.224 185.74 118.575 183.767 118.575C181.122 118.575 178.585 119.74 176.715 121.815C174.844 123.89 173.793 126.704 173.793 129.639Z" fill="#DBDBDB"/>
<path d="M213.167 176.435H280.135L246.646 126.096L213.167 176.435Z" fill="#C7C7C7"/>
<path d="M186.942 176.486H242.221L214.582 143.699L186.942 176.486Z" fill="#DBDBDB"/>
<path d="M280.126 176.435H159.723V196.589H280.126V176.435Z" fill="#DBDBDB"/>
<path d="M297.253 276.647H364.531V209.12H297.253V276.647Z" fill="#EBEBEB"/>
<path d="M305.949 223.879C305.646 225.562 305.839 227.308 306.5 228.86C307.161 230.412 308.254 231.687 309.618 232.496C310.982 233.306 312.544 233.607 314.075 233.355C315.605 233.104 317.022 232.313 318.116 231.1C319.209 229.886 319.922 228.314 320.149 226.617C320.376 224.919 320.104 223.186 319.374 221.673C318.645 220.16 317.496 218.947 316.097 218.214C314.698 217.481 313.124 217.267 311.607 217.603C310.21 217.912 308.928 218.674 307.921 219.79C306.914 220.907 306.228 222.33 305.949 223.879Z" fill="#DBDBDB"/>
<path d="M316.197 262.091H364.541L340.369 225.752L316.197 262.091Z" fill="#C7C7C7"/>
<path d="M297.263 262.122H337.175L317.219 238.455L297.263 262.122Z" fill="#DBDBDB"/>
<path d="M364.541 262.091H297.263V276.637H364.541V262.091Z" fill="#DBDBDB"/>
<path d="M405.183 103.057H297.263V109.1H405.183V103.057Z" fill="#A6A6A6"/>
<path d="M428.652 115.558H297.263V121.601H428.652V115.558Z" fill="#DBDBDB"/>
<path d="M428.652 128.06H297.263V134.103H428.652V128.06Z" fill="#DBDBDB"/>
<path d="M428.652 140.571H297.263V146.614H428.652V140.571Z" fill="#DBDBDB"/>
<path d="M428.652 153.072H297.263V159.115H428.652V153.072Z" fill="#DBDBDB"/>
<path d="M384.488 165.573H297.263V171.617H384.488V165.573Z" fill="#DBDBDB"/>
<path d="M418.268 209.11H370.535V215.062H418.268V209.11Z" fill="#A6A6A6"/>
<path d="M428.643 221.429H370.535V227.381H428.643V221.429Z" fill="#DBDBDB"/>
<path d="M428.643 233.748H370.535V239.7H428.643V233.748Z" fill="#DBDBDB"/>
<path d="M428.643 246.057H370.535V252.009H428.643V246.057Z" fill="#DBDBDB"/>
<path d="M428.643 258.376H370.535V264.328H428.643V258.376Z" fill="#DBDBDB"/>
<path d="M409.973 270.695H370.535V276.647H409.973V270.695Z" fill="#DBDBDB"/>
<path d="M428.652 178.834H297.263V196.589H428.652V178.834Z" fill="#FFC727"/>
<path d="M280.126 209.11H159.723V226.865H280.126V209.11Z" fill="#A6A6A6"/>
<path d="M280.126 233.333H159.723V239.336H280.126V233.333Z" fill="#DBDBDB"/>
<path d="M280.126 245.764H159.723V251.766H280.126V245.764Z" fill="#DBDBDB"/>
<path d="M280.126 258.204H159.723V264.207H280.126V258.204Z" fill="#DBDBDB"/>
<path d="M242.221 270.635H159.723V276.637H242.221V270.635Z" fill="#DBDBDB"/>
<path d="M454.467 85.454H446.19V294.554H454.467V85.454Z" fill="#DBDBDB"/>
<path d="M450.325 194.888C449.758 194.888 449.215 194.639 448.815 194.194C448.414 193.75 448.189 193.148 448.189 192.519V89.8978C448.189 89.2696 448.414 88.6671 448.815 88.2229C449.215 87.7787 449.758 87.5291 450.325 87.5291C450.891 87.5291 451.434 87.7787 451.835 88.2229C452.235 88.6671 452.46 89.2696 452.46 89.8978V192.519C452.46 193.148 452.235 193.75 451.835 194.194C451.434 194.639 450.891 194.888 450.325 194.888Z" fill="#A6A6A6"/>
<path d="M263.555 194.655V343.031C263.528 346.226 262.361 349.28 260.309 351.523C258.256 353.766 255.486 355.014 252.605 354.995H42.3669C39.486 355.014 36.7158 353.766 34.6634 351.523C32.6109 349.28 31.4435 346.226 31.417 343.031V194.655C31.4435 191.46 32.6112 188.408 34.6639 186.167C36.7167 183.926 39.4868 182.679 42.3669 182.701H252.55C253.981 182.682 255.401 182.977 256.729 183.568C258.057 184.159 259.266 185.034 260.289 186.145C261.311 187.255 262.126 188.579 262.686 190.039C263.247 191.5 263.542 193.068 263.555 194.655Z" fill="#455A64"/>
<path d="M247.614 189.938H47.7871V347.525H247.614V189.938Z" fill="white"/>
<path d="M59.6771 269.784H148.326V200.921H59.6771L59.6771 269.784Z" fill="#EBEBEB"/>
<path d="M70.0519 220.508C70.0609 222.108 70.4967 223.668 71.3043 224.993C72.1119 226.318 73.2551 227.348 74.5897 227.953C75.9244 228.559 77.3907 228.712 78.8037 228.394C80.2168 228.076 81.5132 227.3 82.5296 226.166C83.5459 225.031 84.2367 223.588 84.5147 222.019C84.7927 220.449 84.6455 218.824 84.0916 217.347C83.5378 215.87 82.6021 214.608 81.4027 213.721C80.2032 212.833 78.7937 212.36 77.3518 212.359C76.3893 212.359 75.4364 212.571 74.5477 212.981C73.659 213.391 72.8523 213.992 72.1738 214.749C71.4953 215.507 70.9586 216.405 70.5944 217.394C70.2303 218.382 70.0459 219.44 70.0519 220.508Z" fill="#DBDBDB"/>
<path d="M99.0234 254.955H148.325L123.67 217.896L99.0234 254.955Z" fill="#C7C7C7"/>
<path d="M79.7153 254.985H120.412L100.064 230.853L79.7153 254.985Z" fill="#DBDBDB"/>
<path d="M148.325 254.955H59.6768V269.795H148.325V254.955Z" fill="#DBDBDB"/>
<path d="M176.449 335.216H235.724V289.169H176.449V335.216Z" fill="#EBEBEB"/>
<path d="M183.375 302.267C183.373 303.347 183.66 304.403 184.199 305.301C184.738 306.2 185.506 306.901 186.404 307.315C187.303 307.73 188.292 307.839 189.247 307.63C190.201 307.421 191.079 306.902 191.767 306.139C192.456 305.377 192.925 304.404 193.116 303.346C193.307 302.287 193.21 301.19 192.838 300.192C192.466 299.194 191.835 298.342 191.026 297.742C190.217 297.142 189.266 296.822 188.293 296.822C187.647 296.82 187.008 296.96 186.411 297.233C185.815 297.506 185.272 297.907 184.816 298.413C184.359 298.919 183.996 299.52 183.749 300.181C183.502 300.842 183.375 301.551 183.375 302.267Z" fill="#DBDBDB"/>
<path d="M202.765 325.296H235.724L219.244 300.516L202.765 325.296Z" fill="#C7C7C7"/>
<path d="M189.853 325.326H217.064L203.458 309.181L189.853 325.326Z" fill="#DBDBDB"/>
<path d="M235.724 325.306H176.449V335.226H235.724V325.306Z" fill="#DBDBDB"/>
<path d="M235.733 200.931H155.972V217.755H235.733V200.931Z" fill="#FFC727"/>
<path d="M235.733 224.142H155.972V226.501H235.733V224.142Z" fill="#DBDBDB"/>
<path d="M235.733 229.679H155.972V232.038H235.733V229.679Z" fill="#DBDBDB"/>
<path d="M235.733 235.216H155.972V237.575H235.733V235.216Z" fill="#DBDBDB"/>
<path d="M235.733 240.753H155.972V243.112H235.733V240.753Z" fill="#DBDBDB"/>
<path d="M235.733 246.29H155.972V248.649H235.733V246.29Z" fill="#DBDBDB"/>
<path d="M235.733 251.827H155.972V254.186H235.733V251.827Z" fill="#DBDBDB"/>
<path d="M201.825 257.364H155.972V259.723H201.825V257.364Z" fill="#DBDBDB"/>
<path d="M168.017 322.401H88.2563V324.76H168.017V322.401Z" fill="#DBDBDB"/>
<path d="M168.017 289.179H88.2563V291.538H168.017V289.179Z" fill="#DBDBDB"/>
<path d="M168.017 294.716H88.2563V297.075H168.017V294.716Z" fill="#DBDBDB"/>
<path d="M168.017 300.253H88.2563V302.612H168.017V300.253Z" fill="#DBDBDB"/>
<path d="M142.65 305.79H88.2563V308.149H142.65V305.79Z" fill="#DBDBDB"/>
<path d="M168.017 316.864H88.2563V319.223H168.017V316.864Z" fill="#DBDBDB"/>
<path d="M142.65 327.938H88.2563V330.297H142.65V327.938Z" fill="#DBDBDB"/>
<path d="M235.733 277.477H59.6768V283.045H235.733V277.477Z" fill="#455A64"/>
<path d="M82.4708 289.179H59.6768V335.226H82.4708V289.179Z" fill="#FFC727"/>
<path d="M41.0348 250.086H40.8979C40.268 250.086 39.7573 250.653 39.7573 251.351V286.325C39.7573 287.023 40.268 287.59 40.8979 287.59H41.0348C41.6648 287.59 42.1754 287.023 42.1754 286.325V251.351C42.1754 250.653 41.6648 250.086 41.0348 250.086Z" fill="#37474F"/>
<path d="M260.763 268.833C260.765 269.795 260.509 270.735 260.028 271.536C259.548 272.337 258.864 272.961 258.063 273.33C257.263 273.699 256.381 273.796 255.531 273.609C254.68 273.422 253.899 272.959 253.286 272.279C252.673 271.599 252.255 270.732 252.087 269.788C251.918 268.845 252.005 267.867 252.338 266.979C252.671 266.091 253.234 265.332 253.955 264.799C254.677 264.266 255.525 263.982 256.392 263.984C257.55 263.987 258.661 264.499 259.48 265.407C260.299 266.316 260.76 267.548 260.763 268.833Z" fill="#37474F"/>
<path d="M554.685 150.926H473.373C471.174 150.953 469.074 151.946 467.534 153.688C465.995 155.431 465.141 157.779 465.16 160.219V345.865C465.143 348.304 465.998 350.651 467.537 352.392C469.076 354.134 471.175 355.128 473.373 355.157H554.667C556.865 355.128 558.964 354.134 560.503 352.392C562.042 350.651 562.896 348.304 562.879 345.865V160.239C562.904 157.799 562.055 155.449 560.518 153.703C558.982 151.957 556.884 150.958 554.685 150.926ZM557.778 340.126C557.778 345.015 554.475 348.962 550.405 348.962H477.68C473.601 348.962 470.307 345.015 470.307 340.126V167.254C470.307 157.303 473.601 156.818 477.68 156.818H492.28C493.128 156.818 493.822 157.83 493.822 159.206V159.773C493.822 162.881 495.355 162.891 497.235 162.891H530.86C532.749 162.891 534.263 162.891 534.263 159.773V159.227C534.263 157.901 534.948 156.838 535.815 156.838H550.415C554.484 156.838 557.788 158.164 557.788 167.274L557.778 340.126Z" fill="#455A64"/>
<path d="M518.632 159.014H509.444C509.294 159.014 509.15 158.948 509.044 158.83C508.938 158.713 508.878 158.553 508.878 158.387C508.878 158.22 508.938 158.06 509.044 157.943C509.15 157.825 509.294 157.759 509.444 157.759H518.632C518.783 157.759 518.928 157.825 519.036 157.942C519.143 158.06 519.205 158.219 519.207 158.387C519.205 158.554 519.143 158.713 519.036 158.831C518.928 158.948 518.783 159.014 518.632 159.014Z" fill="white"/>
<path d="M557.778 167.254V340.126C557.778 345.015 554.475 348.962 550.405 348.962H477.68C473.601 348.962 470.307 345.015 470.307 340.126V167.254C470.307 157.303 473.601 156.818 477.68 156.818H492.279C493.128 156.818 493.822 157.83 493.822 159.206V159.773C493.822 162.881 495.355 162.891 497.234 162.891H530.86C532.748 162.891 534.263 162.891 534.263 159.773V159.227C534.263 157.901 534.948 156.838 535.814 156.838H550.414C554.475 156.818 557.778 158.144 557.778 167.254Z" fill="white"/>
<path d="M557.778 167.254V180.15H470.298V167.254C470.298 157.303 473.601 156.818 477.68 156.818H492.28C493.119 156.818 493.813 157.83 493.813 159.206V159.773C493.813 162.881 495.346 162.891 497.216 162.891H530.86C532.749 162.891 534.273 162.891 534.273 159.773V159.227C534.273 157.901 534.957 156.838 535.815 156.838H550.415C554.475 156.818 557.778 158.144 557.778 167.254Z" fill="#FFC727"/>
<path d="M478.592 173.854L476.01 171.171L478.592 168.489L478.994 168.954L476.868 171.171L478.994 173.388L478.592 173.854Z" fill="white"/>
<path d="M549.885 174.097H548.06V173.398C548.06 173.379 548.055 173.36 548.045 173.344C548.035 173.328 548.022 173.315 548.006 173.307L547.805 173.176C547.789 173.168 547.772 173.164 547.755 173.164C547.737 173.164 547.72 173.168 547.705 173.176L547.148 173.54L546.235 171.789L546.792 171.434C546.803 171.419 546.809 171.399 546.809 171.379C546.809 171.359 546.803 171.339 546.792 171.323V171.08C546.803 171.064 546.809 171.045 546.809 171.024C546.809 171.004 546.803 170.985 546.792 170.969L546.235 170.615L547.148 168.863L547.705 169.218C547.72 169.227 547.737 169.233 547.755 169.233C547.772 169.233 547.79 169.227 547.805 169.218L548.006 169.086C548.022 169.078 548.035 169.066 548.045 169.049C548.055 169.033 548.06 169.014 548.06 168.995V168.276H549.885V168.995C549.886 169.014 549.891 169.033 549.901 169.049C549.91 169.066 549.924 169.078 549.94 169.086L550.141 169.218C550.156 169.227 550.173 169.233 550.191 169.233C550.209 169.233 550.226 169.227 550.241 169.218L550.798 168.863L551.71 170.615L551.154 170.969C551.143 170.985 551.137 171.004 551.137 171.024C551.137 171.045 551.143 171.064 551.154 171.08V171.323C551.143 171.339 551.137 171.359 551.137 171.379C551.137 171.399 551.143 171.419 551.154 171.434L551.71 171.789L550.798 173.54L550.241 173.186C550.226 173.176 550.209 173.171 550.191 173.171C550.173 173.171 550.156 173.176 550.141 173.186L549.94 173.317C549.924 173.325 549.91 173.338 549.901 173.354C549.891 173.37 549.886 173.389 549.885 173.408V174.097ZM548.517 173.591H549.429V173.398C549.43 173.286 549.459 173.175 549.512 173.079C549.565 172.983 549.64 172.904 549.73 172.852C549.785 172.824 549.837 172.79 549.885 172.75C549.974 172.694 550.075 172.664 550.177 172.664C550.28 172.664 550.381 172.694 550.469 172.75L550.634 172.862L551.09 171.981L550.926 171.87C550.837 171.815 550.765 171.733 550.717 171.635C550.668 171.537 550.646 171.425 550.652 171.313V171.111C550.646 170.997 550.669 170.884 550.717 170.784C550.765 170.684 550.837 170.601 550.926 170.544L551.09 170.442L550.634 169.562L550.469 169.673C550.382 169.73 550.283 169.76 550.182 169.76C550.081 169.76 549.982 169.73 549.894 169.673L549.73 169.572C549.64 169.519 549.565 169.441 549.512 169.344C549.459 169.248 549.43 169.138 549.429 169.025V168.813H548.517V169.025C548.515 169.138 548.487 169.248 548.434 169.344C548.381 169.441 548.305 169.519 548.215 169.572C548.161 169.6 548.109 169.634 548.06 169.673C547.972 169.73 547.871 169.76 547.768 169.76C547.666 169.76 547.565 169.73 547.476 169.673L547.312 169.562L546.856 170.442L547.02 170.544C547.108 170.601 547.18 170.684 547.229 170.784C547.277 170.884 547.3 170.997 547.294 171.111V171.313C547.3 171.426 547.277 171.539 547.229 171.639C547.18 171.739 547.108 171.822 547.02 171.88L546.856 171.981L547.312 172.862L547.476 172.75C547.565 172.694 547.666 172.664 547.768 172.664C547.871 172.664 547.972 172.694 548.06 172.75C548.109 172.79 548.161 172.824 548.215 172.852C548.305 172.904 548.381 172.983 548.434 173.079C548.487 173.175 548.515 173.286 548.517 173.398V173.591ZM548.973 172.669C548.706 172.669 548.445 172.582 548.223 172.417C548 172.252 547.827 172.018 547.725 171.745C547.623 171.471 547.596 171.17 547.648 170.879C547.7 170.588 547.829 170.321 548.018 170.112C548.207 169.902 548.447 169.76 548.709 169.702C548.971 169.644 549.243 169.674 549.49 169.787C549.736 169.901 549.947 170.093 550.096 170.339C550.244 170.585 550.323 170.875 550.323 171.171C550.321 171.568 550.178 171.947 549.925 172.228C549.672 172.508 549.33 172.667 548.973 172.669ZM548.973 170.179C548.792 170.179 548.616 170.239 548.466 170.35C548.316 170.461 548.199 170.619 548.13 170.804C548.061 170.989 548.043 171.193 548.078 171.389C548.113 171.585 548.2 171.766 548.328 171.907C548.455 172.049 548.618 172.145 548.795 172.184C548.972 172.223 549.155 172.203 549.322 172.127C549.489 172.05 549.631 171.92 549.732 171.754C549.832 171.587 549.885 171.392 549.885 171.192C549.885 170.923 549.789 170.666 549.618 170.476C549.447 170.286 549.215 170.179 548.973 170.179Z" fill="white"/>
<path d="M489.734 160.694L489.597 160.856L489.515 160.948C489.336 160.746 489.123 160.585 488.888 160.475C488.653 160.366 488.401 160.309 488.146 160.309C487.891 160.309 487.639 160.366 487.404 160.475C487.169 160.585 486.956 160.746 486.777 160.948L486.704 160.856L486.567 160.705C486.621 160.642 486.679 160.584 486.741 160.532C486.866 160.416 487.004 160.318 487.151 160.239C487.325 160.146 487.509 160.078 487.699 160.036H487.973H488.392C488.563 160.06 488.732 160.104 488.894 160.168C489.011 160.219 489.124 160.279 489.232 160.35C489.348 160.419 489.458 160.501 489.56 160.593L489.706 160.745L489.734 160.694Z" fill="white"/>
<path d="M487.242 161.433L487.023 161.191C487.172 161.025 487.348 160.894 487.542 160.805C487.736 160.715 487.945 160.669 488.155 160.669C488.365 160.669 488.573 160.715 488.768 160.805C488.962 160.894 489.138 161.025 489.286 161.191L489.067 161.444C488.825 161.177 488.497 161.027 488.155 161.027C487.813 161.027 487.485 161.177 487.242 161.444V161.433Z" fill="white"/>
<path d="M488.886 161.676L488.667 161.929C488.607 161.862 488.536 161.809 488.458 161.772C488.379 161.736 488.295 161.717 488.21 161.717C488.125 161.717 488.041 161.736 487.963 161.772C487.885 161.809 487.814 161.862 487.754 161.929L487.535 161.676C487.716 161.481 487.958 161.372 488.21 161.372C488.463 161.372 488.705 161.481 488.886 161.676Z" fill="white"/>
<path d="M488.357 162.152C488.357 162.196 488.345 162.239 488.323 162.276C488.301 162.312 488.269 162.341 488.233 162.358C488.196 162.375 488.156 162.379 488.117 162.371C488.078 162.362 488.042 162.341 488.014 162.31C487.986 162.278 487.967 162.239 487.959 162.196C487.951 162.152 487.955 162.108 487.97 162.067C487.986 162.026 488.011 161.991 488.044 161.967C488.077 161.943 488.116 161.929 488.156 161.929C488.183 161.928 488.209 161.933 488.234 161.943C488.259 161.954 488.282 161.97 488.301 161.991C488.32 162.012 488.334 162.038 488.344 162.065C488.354 162.093 488.358 162.123 488.357 162.152Z" fill="white"/>
<path d="M476.01 161.17C476.01 161.001 476.07 160.839 476.178 160.719C476.286 160.6 476.432 160.532 476.585 160.532C476.738 160.532 476.885 160.599 476.994 160.719C477.104 160.838 477.166 161 477.169 161.17C477.169 161.342 477.107 161.507 476.998 161.628C476.888 161.75 476.74 161.818 476.585 161.818C476.431 161.815 476.285 161.746 476.178 161.625C476.07 161.504 476.01 161.34 476.01 161.17Z" fill="white"/>
<path d="M477.835 161.17C477.835 161.001 477.896 160.839 478.003 160.719C478.111 160.6 478.257 160.532 478.41 160.532C478.563 160.532 478.71 160.599 478.82 160.719C478.929 160.838 478.991 161 478.994 161.17C478.994 161.342 478.932 161.507 478.823 161.628C478.713 161.75 478.565 161.818 478.41 161.818C478.257 161.815 478.11 161.746 478.003 161.625C477.895 161.504 477.835 161.34 477.835 161.17Z" fill="white"/>
<path d="M479.66 161.17C479.678 161.014 479.746 160.87 479.853 160.765C479.96 160.661 480.097 160.603 480.239 160.603C480.382 160.603 480.519 160.661 480.626 160.765C480.732 160.87 480.801 161.014 480.819 161.17C480.829 161.261 480.822 161.354 480.797 161.442C480.773 161.53 480.732 161.611 480.677 161.68C480.622 161.748 480.555 161.804 480.479 161.841C480.404 161.879 480.322 161.899 480.239 161.899C480.156 161.899 480.075 161.879 479.999 161.841C479.924 161.804 479.856 161.748 479.801 161.68C479.746 161.611 479.706 161.53 479.681 161.442C479.657 161.354 479.65 161.261 479.66 161.17Z" fill="white"/>
<path d="M481.484 161.17C481.484 161.042 481.519 160.917 481.583 160.81C481.647 160.704 481.738 160.621 481.845 160.572C481.952 160.523 482.069 160.51 482.182 160.535C482.296 160.56 482.4 160.621 482.481 160.712C482.563 160.803 482.619 160.918 482.641 161.044C482.664 161.169 482.652 161.3 482.608 161.418C482.564 161.536 482.489 161.638 482.393 161.709C482.297 161.78 482.184 161.818 482.068 161.818C481.913 161.818 481.765 161.75 481.655 161.628C481.546 161.507 481.484 161.342 481.484 161.17Z" fill="white"/>
<path d="M483.311 161.17C483.313 161 483.375 160.838 483.485 160.719C483.594 160.599 483.741 160.532 483.895 160.532C484.047 160.532 484.193 160.6 484.301 160.719C484.409 160.839 484.469 161.001 484.469 161.17C484.469 161.34 484.409 161.504 484.302 161.625C484.194 161.746 484.048 161.815 483.895 161.818C483.74 161.818 483.591 161.75 483.482 161.628C483.372 161.507 483.311 161.342 483.311 161.17Z" fill="white"/>
<path d="M551.208 162.567H546.5V160.158H551.208V162.567ZM546.728 162.314H550.98V160.411H546.728V162.314Z" fill="white"/>
<path d="M549.921 160.563H546.883V162.162H549.921V160.563Z" fill="white"/>
<path d="M551.638 160.715H551.218V162.01H551.638V160.715Z" fill="white"/>
<path d="M483.593 338.395H482.927V341.786H481.686V340.055H479.487V341.786H478.246V338.395H477.58L480.591 334.953L483.593 338.395Z" fill="#EBEBEB"/>
<path d="M550.515 334.953H543.261V336.107H550.515V334.953Z" fill="#EBEBEB"/>
<path d="M550.515 337.787H543.261V338.941H550.515V337.787Z" fill="#EBEBEB"/>
<path d="M550.515 340.632H543.261V341.786H550.515V340.632Z" fill="#EBEBEB"/>
<path d="M483.456 197.125C482.686 197.658 481.796 197.941 480.888 197.941C479.98 197.941 479.09 197.658 478.319 197.125C477.416 196.505 476.72 195.576 476.336 194.478C475.952 193.379 475.902 192.172 476.192 191.039C476.482 189.906 477.098 188.909 477.945 188.199C478.793 187.489 479.826 187.104 480.888 187.104C481.95 187.104 482.983 187.489 483.83 188.199C484.677 188.909 485.293 189.906 485.583 191.039C485.874 192.172 485.823 193.379 485.439 194.478C485.056 195.576 484.359 196.505 483.456 197.125Z" fill="#DBDBDB"/>
<path d="M482.37 191.902C482.37 192.229 482.283 192.548 482.119 192.82C481.955 193.091 481.722 193.303 481.45 193.427C481.178 193.552 480.878 193.584 480.589 193.52C480.301 193.455 480.036 193.297 479.828 193.065C479.62 192.833 479.479 192.538 479.423 192.218C479.367 191.897 479.397 191.565 479.511 191.264C479.625 190.962 479.817 190.705 480.063 190.525C480.309 190.345 480.597 190.25 480.892 190.252C481.285 190.255 481.661 190.43 481.938 190.739C482.215 191.048 482.37 191.466 482.37 191.902Z" fill="white"/>
<path d="M483.456 196.447V197.125C482.685 197.658 481.795 197.941 480.887 197.941C479.979 197.941 479.089 197.658 478.318 197.125V196.447C478.357 195.721 478.645 195.038 479.122 194.539C479.6 194.04 480.231 193.762 480.887 193.762C481.543 193.762 482.174 194.04 482.652 194.539C483.129 195.038 483.417 195.721 483.456 196.447Z" fill="white"/>
<path d="M522.912 187.418H491.888V190.252H522.912V187.418Z" fill="#EBEBEB"/>
<path d="M518.97 192.145H491.888V194.028H518.97V192.145Z" fill="#EBEBEB"/>
<path d="M536.664 195.769H491.888V197.652H536.664V195.769Z" fill="#EBEBEB"/>
<path d="M470.307 270.361H557.778V202.419H470.307V270.361Z" fill="#EBEBEB"/>
<path d="M480.527 221.733C480.527 223.323 480.952 224.877 481.748 226.198C482.544 227.52 483.676 228.55 485 229.159C486.324 229.767 487.781 229.926 489.186 229.616C490.591 229.306 491.882 228.54 492.896 227.416C493.909 226.292 494.599 224.86 494.878 223.301C495.158 221.742 495.015 220.126 494.466 218.657C493.918 217.189 492.989 215.933 491.798 215.05C490.606 214.167 489.205 213.696 487.773 213.696C485.851 213.696 484.008 214.543 482.649 216.05C481.291 217.557 480.527 219.601 480.527 221.733Z" fill="#DBDBDB"/>
<path d="M509.143 255.724H557.778L533.46 219.152L509.143 255.724Z" fill="#C7C7C7"/>
<path d="M490.072 255.755H530.231L510.147 231.947L490.072 255.755Z" fill="#DBDBDB"/>
<path d="M557.778 255.724H470.307V270.361H557.778V255.724Z" fill="#DBDBDB"/>
<path d="M483.456 306.185C482.686 306.718 481.796 307.001 480.888 307.001C479.98 307.001 479.09 306.718 478.319 306.185C477.416 305.565 476.72 304.635 476.336 303.537C475.952 302.439 475.902 301.231 476.192 300.098C476.482 298.965 477.098 297.968 477.945 297.258C478.793 296.548 479.826 296.164 480.888 296.164C481.95 296.164 482.983 296.548 483.83 297.258C484.677 297.968 485.293 298.965 485.583 300.098C485.874 301.231 485.823 302.439 485.439 303.537C485.056 304.635 484.359 305.565 483.456 306.185Z" fill="#DBDBDB"/>
<path d="M480.892 302.612C481.713 302.612 482.379 301.873 482.379 300.962C482.379 300.05 481.713 299.312 480.892 299.312C480.07 299.312 479.404 300.05 479.404 300.962C479.404 301.873 480.07 302.612 480.892 302.612Z" fill="white"/>
<path d="M483.456 305.507V306.185C482.685 306.718 481.795 307.001 480.887 307.001C479.979 307.001 479.089 306.718 478.318 306.185V305.507C478.357 304.78 478.645 304.098 479.122 303.599C479.6 303.1 480.231 302.822 480.887 302.822C481.543 302.822 482.174 303.1 482.652 303.599C483.129 304.098 483.417 304.78 483.456 305.507Z" fill="white"/>
<path d="M531.782 296.477H491.888V299.312H531.782V296.477Z" fill="#EBEBEB"/>
<path d="M542.823 301.205H491.888V303.087H542.823V301.205Z" fill="#EBEBEB"/>
<path d="M509.234 304.828H491.888V306.711H509.234V304.828Z" fill="#EBEBEB"/>
<path d="M557.76 311.479H470.307V328.07H557.76V311.479Z" fill="#EBEBEB"/>
<path d="M494.589 328.08H480.956C481.457 326.519 482.381 325.169 483.602 324.214C484.822 323.259 486.279 322.747 487.772 322.747C489.266 322.747 490.723 323.259 491.943 324.214C493.163 325.169 494.087 326.519 494.589 328.08Z" fill="#DBDBDB"/>
<path d="M476.184 278.318C476.048 277.701 476.081 277.054 476.277 276.458C476.473 275.861 476.825 275.343 477.286 274.969C477.748 274.594 478.3 274.379 478.871 274.353C479.443 274.326 480.009 274.487 480.498 274.817C480.986 275.147 481.376 275.63 481.617 276.206C481.858 276.781 481.94 277.423 481.853 278.05C481.765 278.677 481.512 279.262 481.125 279.729C480.738 280.196 480.234 280.526 479.679 280.676C479.309 280.777 478.926 280.796 478.55 280.732C478.174 280.668 477.814 280.523 477.489 280.303C477.164 280.084 476.881 279.796 476.657 279.455C476.434 279.114 476.272 278.728 476.184 278.318Z" fill="#EBEBEB"/>
<path fill-rule="evenodd" clip-rule="evenodd" d="M478.601 278.834C478.519 278.783 478.456 278.702 478.355 278.712C478.255 278.723 478.355 278.712 478.355 278.662V277.376C478.348 277.366 478.345 277.354 478.345 277.341C478.345 277.328 478.348 277.316 478.355 277.305C478.647 277.143 478.775 276.82 478.957 276.536C479.054 276.393 479.122 276.229 479.159 276.055C479.195 275.88 479.198 275.699 479.167 275.524C479.167 275.433 479.167 275.392 479.277 275.372C479.315 275.354 479.358 275.352 479.397 275.365C479.437 275.378 479.472 275.405 479.496 275.443C479.582 275.619 479.637 275.811 479.66 276.01C479.678 276.168 479.678 276.328 479.66 276.485C479.66 276.607 479.614 276.718 479.596 276.84C479.578 276.961 479.651 276.84 479.678 276.84H480.655C480.791 276.84 480.864 276.84 480.883 276.981C480.892 277.044 480.883 277.109 480.857 277.165C480.831 277.222 480.788 277.268 480.737 277.295C480.737 277.295 480.673 277.295 480.673 277.346C480.673 277.396 480.673 277.346 480.737 277.396C480.801 277.447 480.828 277.67 480.737 277.781C480.645 277.892 480.645 277.781 480.645 277.842C480.645 277.903 480.7 277.842 480.728 277.923C480.748 277.953 480.763 277.987 480.769 278.024C480.776 278.061 480.775 278.099 480.766 278.135C480.757 278.172 480.741 278.205 480.718 278.233C480.696 278.261 480.668 278.283 480.636 278.297H480.573C480.573 278.297 480.573 278.297 480.573 278.348C480.605 278.365 480.633 278.392 480.653 278.426C480.672 278.46 480.683 278.5 480.683 278.54C480.683 278.581 480.672 278.62 480.653 278.654C480.633 278.688 480.605 278.715 480.573 278.733C480.516 278.753 480.455 278.753 480.399 278.733H478.866C478.86 278.763 478.847 278.791 478.828 278.814C478.81 278.838 478.786 278.855 478.759 278.865C478.733 278.876 478.704 278.878 478.677 278.872C478.649 278.867 478.623 278.854 478.601 278.834Z" fill="white"/>
<path fill-rule="evenodd" clip-rule="evenodd" d="M477.142 278.085C477.142 277.812 477.142 277.538 477.142 277.265C477.142 277.214 477.142 277.184 477.215 277.184C477.507 277.184 477.808 277.184 478.127 277.184C478.182 277.184 478.191 277.184 478.191 277.265V278.905C478.191 278.976 478.191 278.996 478.109 278.996H477.242C477.169 278.996 477.16 278.996 477.16 278.895C477.151 278.672 477.142 278.358 477.142 278.085Z" fill="white"/>
<path d="M482.261 278.318C482.126 277.701 482.159 277.055 482.356 276.459C482.552 275.864 482.903 275.346 483.364 274.971C483.825 274.597 484.376 274.382 484.947 274.355C485.519 274.328 486.084 274.489 486.573 274.818C487.062 275.147 487.451 275.629 487.693 276.203C487.935 276.778 488.018 277.419 487.932 278.046C487.845 278.673 487.593 279.257 487.208 279.725C486.822 280.193 486.32 280.524 485.765 280.676C485.396 280.779 485.011 280.799 484.634 280.736C484.257 280.673 483.896 280.527 483.57 280.308C483.244 280.089 482.961 279.8 482.736 279.458C482.511 279.117 482.35 278.729 482.261 278.318Z" fill="#FFC727"/>
<path d="M486.549 277.963C486.549 278.398 486.393 278.815 486.116 279.123C485.839 279.43 485.463 279.603 485.071 279.603C484.679 279.603 484.303 279.43 484.025 279.123C483.748 278.815 483.592 278.398 483.592 277.963C483.498 277.81 483.434 277.636 483.406 277.454C483.377 277.271 483.384 277.083 483.427 276.904C483.469 276.724 483.546 276.557 483.652 276.413C483.757 276.269 483.89 276.153 484.04 276.07C484.861 275.797 485.071 277.386 485.071 277.386C485.071 277.386 485.281 275.797 486.111 276.07C486.686 276.263 486.914 277.143 486.549 277.963Z" fill="white"/>
<path d="M533.461 277.144H492.371V278.996H533.461V277.144Z" fill="#EBEBEB"/>
<path d="M470.307 288.207L481.238 288.025L492.17 287.924L514.033 287.833L535.897 287.924L546.828 288.025L557.76 288.207L546.828 288.4L535.897 288.501L514.033 288.592L492.17 288.501L481.238 288.4L470.307 288.207Z" fill="#EBEBEB"/>
<path d="M338.936 375.898C338.252 373.752 302.929 324.152 300.557 323.262C300.292 323.14 285.154 335.631 285.154 335.631C284.533 336.583 255.188 330.408 255.188 330.408L255.635 369.511L308.824 367.021C308.824 367.021 316.124 371.546 322.748 375.21C325.576 376.895 328.495 378.383 331.49 379.664C334.182 380.342 339.63 378.024 338.936 375.898Z" fill="#EB9481"/>
<path d="M331.508 379.644C328.516 378.364 325.599 376.876 322.776 375.19C316.133 371.525 308.851 367.001 308.851 367.001L296.989 367.557L277.826 334.791C281.914 335.5 284.953 335.904 285.126 335.601C285.126 335.601 300.255 323.12 300.529 323.241C302.901 324.152 338.224 373.752 338.908 375.878C339.593 378.004 334.182 380.352 331.508 379.644Z" fill="white"/>
<path d="M339.237 375.949C338.517 373.763 303.039 324.193 300.602 323.251C299.69 322.887 292.262 328.211 285.136 335.611L308.039 367.527C308.039 367.527 328.844 379.148 331.609 379.866C334.374 380.585 339.967 378.146 339.237 375.949Z" fill="#FFC727"/>
<path d="M336.956 376.86C330.824 368.762 306.789 335.206 301.287 326.642C301.287 326.531 301.241 326.572 301.287 326.642C307.519 334.568 331.317 368.286 337.029 376.789C337.203 376.86 337.084 376.992 336.956 376.86Z" fill="#263238"/>
<path d="M327.739 378.095C327.054 377.19 326.547 376.137 326.248 375.002C325.95 373.868 325.867 372.677 326.006 371.505C326.239 369.398 327.197 367.472 328.679 366.13C328.725 366.13 328.789 366.181 328.743 366.231C327.461 367.819 326.679 369.825 326.514 371.948C326.35 374.072 326.812 376.197 327.831 378.004C327.876 378.075 327.785 378.156 327.739 378.095Z" fill="#263238"/>
<path d="M310.677 369.481C308.25 366.191 306.552 361.383 307.529 357.172C307.529 357.01 307.775 357.071 307.793 357.172C308.503 361.289 309.607 365.31 311.087 369.167C311.125 369.227 311.139 369.302 311.127 369.374C311.115 369.446 311.078 369.51 311.023 369.552C310.969 369.593 310.902 369.609 310.837 369.596C310.772 369.583 310.714 369.541 310.677 369.481Z" fill="#263238"/>
<path d="M313.414 371.252C310.996 367.962 309.29 363.154 310.266 358.943C310.266 358.781 310.512 358.842 310.54 358.943C311.242 363.061 312.343 367.083 313.825 370.938C313.862 370.999 313.877 371.073 313.865 371.145C313.853 371.218 313.815 371.281 313.761 371.323C313.734 371.344 313.704 371.358 313.672 371.366C313.64 371.373 313.607 371.374 313.574 371.367C313.509 371.354 313.452 371.313 313.414 371.252Z" fill="#263238"/>
<path d="M316.151 373.024C313.733 369.734 312.036 364.926 313.003 360.715C313.003 360.553 313.249 360.613 313.277 360.715C313.985 364.831 315.086 368.852 316.562 372.71C316.599 372.77 316.613 372.845 316.601 372.917C316.589 372.989 316.552 373.053 316.498 373.094C316.443 373.136 316.376 373.152 316.311 373.139C316.246 373.125 316.188 373.084 316.151 373.024Z" fill="#263238"/>
<path d="M318.898 374.836C316.471 371.546 314.774 366.738 315.741 362.527C315.741 362.365 315.987 362.425 316.015 362.527C316.722 366.645 317.826 370.666 319.309 374.522C319.346 374.582 319.361 374.657 319.349 374.729C319.337 374.801 319.299 374.865 319.245 374.906C319.218 374.927 319.188 374.942 319.156 374.949C319.124 374.957 319.091 374.957 319.058 374.951C318.993 374.937 318.936 374.896 318.898 374.836Z" fill="#263238"/>
<path d="M295.684 334.983C293.02 331.238 298.257 326.653 300.922 330.398C303.586 334.143 298.349 338.729 295.684 334.983Z" fill="#263238"/>
<path d="M309.454 375.979C310.257 372.345 309.609 368.458 309.39 364.784C309.379 364.704 309.351 364.627 309.308 364.562C309.266 364.496 309.21 364.442 309.145 364.404C309.08 364.367 309.008 364.347 308.935 364.346C308.862 364.345 308.789 364.363 308.724 364.399C308.714 364.386 308.701 364.376 308.687 364.369C308.673 364.362 308.657 364.358 308.642 364.358C308.626 364.358 308.611 364.362 308.597 364.369C308.582 364.376 308.57 364.386 308.56 364.399C305.995 367.067 304.107 370.436 303.085 374.167C302.528 376.354 302.811 379.563 305.275 380.14C307.738 380.717 308.988 378.105 309.454 375.979ZM307.081 378.318C303.577 380.869 303.751 375.392 304.225 373.803C304.541 372.761 304.925 371.746 305.375 370.766C306.32 368.779 307.356 366.847 308.477 364.976C308.477 366.788 308.633 368.58 308.696 370.382C308.779 372.578 309.007 376.921 307.081 378.318Z" fill="#263238"/>
<path d="M298.175 354.246C296.405 356.271 297.755 359.085 299.315 360.563C302.028 363.057 305.286 364.712 308.76 365.361C308.842 365.361 308.878 365.31 308.878 365.239C308.952 365.231 309.022 365.203 309.084 365.158C309.146 365.113 309.197 365.053 309.234 364.981C309.27 364.91 309.291 364.83 309.294 364.749C309.298 364.667 309.283 364.585 309.252 364.511C307.61 361.312 306.214 357.678 303.777 355.137C302.318 353.649 299.872 352.374 298.175 354.246ZM305.867 360.229C306.716 361.778 307.482 363.367 308.367 364.885C306.542 363.944 304.663 363.093 302.892 361.95C302.039 361.411 301.219 360.809 300.438 360.148C299.252 359.136 296.395 354.641 300.584 354.631C302.92 354.591 304.891 358.387 305.885 360.229H305.867Z" fill="#263238"/>
<path d="M253.463 321.085L229.474 318.99C229.474 318.99 194.799 307.855 174.797 313.675C151.839 320.366 148.599 350.116 171.941 362.041C195.064 373.823 296.688 369.491 296.688 369.491L274.897 333.688C274.897 333.688 241.427 324.972 212.127 326.744L253.609 332.038L253.463 321.085Z" fill="#37474F"/>
<path d="M253.217 328.657C249.649 328.009 246.035 327.645 242.44 327.31C238.845 326.976 235.14 326.642 231.49 326.389C224.228 325.863 216.946 325.741 209.672 326.025C208.988 326.025 208.313 326.096 207.628 326.146C207.481 326.1 207.332 326.063 207.181 326.035C206.835 325.944 206.479 325.853 206.132 325.792C205.466 325.671 204.809 325.58 204.143 325.478C202.765 325.276 201.405 325.144 200.009 324.891C199.927 324.891 199.89 325.023 200.009 325.033C201.396 325.347 202.747 325.752 204.143 326.045L205.338 326.298C202.674 326.511 200.018 326.804 197.363 327.138C197.281 327.138 197.281 327.29 197.363 327.28C201.013 326.956 204.663 326.845 208.258 326.835C211.853 326.825 215.458 326.835 219.062 326.966C226.362 327.26 233.662 327.817 240.889 328.495C244.958 328.869 249.046 329.335 253.134 329.426C253.536 329.446 253.618 328.728 253.217 328.657Z" fill="#263238"/>
<path d="M286.313 368.671C284.972 366.393 283.813 363.954 282.581 361.585L278.858 354.5C276.376 349.793 267.489 333.981 266.622 332.878C266.567 332.807 266.457 332.878 266.485 332.979C266.914 334.204 272.471 344.681 273.785 347.019C276.34 351.685 279.022 356.261 281.66 360.867C282.417 362.182 283.193 363.488 283.959 364.794C284.726 366.1 285.538 367.385 286.24 368.732C286.213 368.833 286.313 368.762 286.313 368.671Z" fill="#263238"/>
<path d="M166.931 383.106C167.524 380.929 200.693 329.537 203.02 328.495C203.285 328.363 218.943 340.034 218.943 340.034C219.6 340.956 248.645 333.252 248.645 333.252L249.868 372.335L196.633 372.639C196.633 372.639 189.561 377.538 183.073 381.557C180.32 383.386 177.467 385.026 174.532 386.466C171.868 387.306 166.329 385.272 166.931 383.106Z" fill="#EB9481"/>
<path d="M174.514 386.466C177.448 385.03 180.297 383.39 183.046 381.557C189.525 377.508 196.605 372.639 196.605 372.639L208.468 372.578L226.216 338.84C222.164 339.761 219.144 340.328 218.916 340.034C218.916 340.034 203.258 328.353 202.993 328.495C200.666 329.507 167.497 380.929 166.904 383.106C166.311 385.282 171.868 387.306 174.514 386.466Z" fill="white"/>
<path d="M166.621 383.187C167.241 380.96 200.575 329.537 202.956 328.525C203.869 328.11 211.506 333.04 218.943 340.045L197.417 373.145C197.417 373.145 177.142 385.839 174.404 386.699C171.667 387.56 166 385.414 166.621 383.187Z" fill="#FFC727"/>
<path d="M168.957 383.946C174.733 375.483 197.308 340.763 202.445 331.906C202.445 331.835 202.445 331.805 202.391 331.906C196.505 340.146 174.176 375.078 168.829 383.875C168.711 384.006 168.829 384.108 168.957 383.946Z" fill="#263238"/>
<path d="M178.219 384.715C178.861 383.774 179.321 382.695 179.57 381.547C179.818 380.399 179.849 379.206 179.66 378.044C179.353 375.959 178.334 374.085 176.813 372.811C176.813 372.811 176.704 372.872 176.74 372.922C178.089 374.44 178.957 376.403 179.214 378.515C179.47 380.627 179.102 382.774 178.164 384.634C178.163 384.643 178.163 384.653 178.165 384.662C178.167 384.671 178.171 384.68 178.176 384.687C178.181 384.695 178.187 384.701 178.195 384.706C178.202 384.711 178.21 384.714 178.219 384.715Z" fill="#263238"/>
<path d="M194.89 375.21C197.171 371.799 198.668 366.93 197.509 362.759C197.509 362.597 197.262 362.668 197.244 362.81C196.725 366.956 195.807 371.028 194.507 374.957C194.498 375.01 194.503 375.065 194.523 375.114C194.543 375.164 194.576 375.205 194.618 375.232C194.66 375.26 194.709 375.273 194.757 375.269C194.806 375.265 194.852 375.244 194.89 375.21Z" fill="#263238"/>
<path d="M192.225 377.123C194.507 373.712 196.003 368.843 194.853 364.673C194.853 364.511 194.598 364.581 194.58 364.723C194.06 368.869 193.142 372.941 191.842 376.87C191.833 376.923 191.839 376.978 191.859 377.027C191.879 377.077 191.912 377.118 191.954 377.146C191.996 377.173 192.044 377.186 192.093 377.182C192.141 377.178 192.188 377.157 192.225 377.123Z" fill="#263238"/>
<path d="M189.588 379.036C191.86 375.625 193.357 370.756 192.207 366.586C192.162 366.424 191.961 366.495 191.943 366.586C191.419 370.73 190.501 374.802 189.205 378.733C189.177 378.789 189.169 378.855 189.182 378.917C189.195 378.98 189.228 379.035 189.276 379.073C189.323 379.11 189.381 379.127 189.438 379.12C189.496 379.114 189.549 379.084 189.588 379.036Z" fill="#263238"/>
<path d="M186.906 380.96C189.187 377.538 190.684 372.669 189.525 368.499C189.525 368.337 189.278 368.408 189.26 368.549C188.741 372.695 187.823 376.767 186.523 380.696C186.511 380.75 186.515 380.807 186.534 380.858C186.553 380.909 186.586 380.953 186.628 380.982C186.671 381.011 186.721 381.025 186.77 381.021C186.82 381.017 186.868 380.995 186.906 380.96Z" fill="#263238"/>
<path d="M208.395 339.974C210.895 336.097 205.466 331.785 202.966 335.661C200.465 339.538 205.886 343.851 208.395 339.974Z" fill="#263238"/>
<path d="M200.766 385.555C203.203 384.857 203.349 381.638 202.692 379.482C201.507 375.801 199.467 372.533 196.779 370.007C196.715 369.946 196.66 370.007 196.624 370.007C196.556 369.975 196.482 369.961 196.408 369.966C196.334 369.971 196.263 369.996 196.199 370.037C196.135 370.078 196.081 370.135 196.041 370.204C196 370.273 195.975 370.351 195.967 370.432C195.912 374.107 195.428 378.024 196.386 381.618C196.943 383.743 198.458 386.223 200.766 385.555ZM196.888 376.05C196.888 374.248 196.943 372.447 196.888 370.645C198.089 372.452 199.203 374.327 200.228 376.263C200.715 377.205 201.145 378.182 201.515 379.188C202.053 380.757 202.427 386.213 198.85 383.865C196.888 382.559 196.888 378.206 196.888 376.05Z" fill="#263238"/>
<path d="M201.186 360.522C198.823 363.195 197.582 366.899 196.085 370.179C196.058 370.255 196.047 370.337 196.053 370.418C196.06 370.5 196.083 370.578 196.123 370.647C196.162 370.716 196.215 370.774 196.279 370.816C196.342 370.858 196.413 370.882 196.487 370.888C196.485 370.905 196.487 370.923 196.492 370.939C196.498 370.955 196.507 370.97 196.518 370.982C196.53 370.993 196.544 371.002 196.559 371.007C196.574 371.012 196.59 371.012 196.605 371.009C200.047 370.175 203.231 368.353 205.84 365.725C207.327 364.166 208.577 361.251 206.707 359.358C204.836 357.465 202.564 358.963 201.186 360.522ZM204.307 359.854C208.486 359.652 205.821 364.258 204.681 365.361C203.93 366.06 203.137 366.703 202.308 367.284C200.582 368.456 198.803 369.53 196.979 370.503C197.801 368.944 198.503 367.314 199.279 365.725C200.2 363.832 201.998 359.966 204.307 359.854Z" fill="#263238"/>
<path d="M249.968 321.186L273.848 320.488C273.848 320.488 298.485 306.428 318.761 311.206C341.975 316.672 345.698 348.73 328.725 360.603C307.227 375.645 209.946 375.716 209.946 375.716L230.021 335.591C230.021 335.591 262.168 327.088 291.514 327.321L250.297 334.791L249.968 321.186Z" fill="#37474F"/>
<path d="M228.671 338.212C228.694 338.148 228.71 338.079 228.716 338.01V337.838L228.798 337.453C228.862 337.19 228.944 336.937 229.026 336.674C229.109 336.411 229.209 336.168 229.3 335.915C229.412 335.668 229.54 335.431 229.683 335.206C229.683 335.206 229.683 335.206 229.738 335.155H229.784H229.839C233.379 334.315 257.441 329.77 261.028 329.213C264.614 328.657 268.254 328.201 271.886 327.725C279.116 326.815 286.383 326.308 293.658 326.207C294.343 326.207 295.027 326.207 295.711 326.207C295.855 326.153 296.001 326.109 296.149 326.076C296.496 325.974 296.843 325.863 297.19 325.782C297.847 325.62 298.504 325.488 299.161 325.357C300.529 325.084 301.898 324.881 303.267 324.557C303.349 324.557 303.385 324.679 303.267 324.699C301.898 325.084 300.529 325.559 299.188 325.934L298.002 326.248C300.675 326.329 303.34 326.48 306.013 326.673C306.03 326.673 306.047 326.68 306.059 326.693C306.071 326.707 306.077 326.725 306.077 326.744C306.077 326.762 306.071 326.78 306.059 326.794C306.047 326.807 306.03 326.814 306.013 326.814C302.363 326.683 298.713 326.764 295.109 326.936C291.505 327.108 287.919 327.3 284.323 327.645C277.024 328.313 269.815 329.254 262.588 330.307C258.536 330.904 234 335.611 229.921 335.925H229.866C229.841 336.032 229.807 336.137 229.766 336.238L229.437 336.977C229.328 337.21 229.218 337.443 229.09 337.676L228.899 338.01L228.798 338.172C228.798 338.222 228.707 338.293 228.698 338.344C228.689 338.395 228.625 338.303 228.671 338.212Z" fill="#263238"/>
<path d="M217.465 373.125C218.715 370.776 219.764 368.286 220.896 365.867L224.309 358.599C226.59 353.771 234.793 337.504 235.614 336.33C235.66 336.259 235.779 336.33 235.751 336.421C235.377 337.676 230.276 348.426 229.099 350.825C226.745 355.623 224.263 360.34 221.799 365.077C221.106 366.434 220.376 367.77 219.673 369.126C218.971 370.483 218.213 371.799 217.565 373.175C217.567 373.188 217.565 373.2 217.56 373.212C217.556 373.223 217.548 373.233 217.539 373.24C217.53 373.248 217.519 373.252 217.508 373.253C217.497 373.255 217.486 373.252 217.475 373.247C217.465 373.242 217.456 373.234 217.45 373.224C217.443 373.214 217.439 373.202 217.438 373.189C217.437 373.177 217.439 373.165 217.444 373.153C217.449 373.142 217.456 373.132 217.465 373.125Z" fill="#263238"/>
<path d="M297.819 213.767L292.791 243.962C292.554 244.853 292.992 245.541 293.767 245.48L307.592 244.468C308.011 244.401 308.404 244.203 308.727 243.899C309.05 243.595 309.289 243.195 309.417 242.747L314.444 212.552C314.682 211.661 314.244 210.983 313.468 211.034L299.653 212.046C299.232 212.113 298.837 212.31 298.513 212.614C298.189 212.918 297.948 213.318 297.819 213.767Z" fill="#37474F"/>
<path d="M299.462 213.635L294.434 243.83C294.196 244.721 294.634 245.409 295.401 245.349L309.225 244.336C309.645 244.27 310.039 244.073 310.362 243.769C310.685 243.464 310.923 243.064 311.05 242.616L316.087 212.42C316.324 211.53 315.886 210.841 315.111 210.902L301.287 211.914C300.868 211.983 300.475 212.181 300.152 212.485C299.829 212.789 299.59 213.187 299.462 213.635Z" fill="#455A64"/>
<path d="M303.331 214.718C303.341 214.976 303.282 215.232 303.162 215.454C303.041 215.675 302.864 215.852 302.653 215.961C302.442 216.07 302.206 216.108 301.975 216.068C301.745 216.029 301.53 215.915 301.359 215.74C301.187 215.565 301.066 215.337 301.011 215.086C300.956 214.835 300.969 214.571 301.049 214.328C301.13 214.086 301.273 213.875 301.462 213.722C301.65 213.57 301.875 213.483 302.108 213.473C302.419 213.459 302.722 213.583 302.951 213.816C303.18 214.049 303.316 214.374 303.331 214.718Z" fill="#263238"/>
<path d="M255.863 261.939C264.613 279.947 283.383 302.885 290.665 302.541C294.123 302.379 300.347 302.915 304.663 298.229C314.089 288.005 321.453 269.086 322.621 258.447C323.031 254.672 306.196 247.555 303.924 250.754C298.595 258.255 292.691 272.679 291.678 272.659C287.937 272.568 272.716 260.016 262.086 251.179C249.183 240.439 252.377 254.763 255.863 261.939Z" fill="#EB9481"/>
<path d="M322.055 239.063C319.938 231.562 318.36 229.952 319.601 222.614C320.413 217.765 317.977 215.113 315.111 219.131C310.43 225.711 311.334 236.026 312.575 239.508L322.055 239.063Z" fill="#EB9481"/>
<path d="M321.983 261.767C321.983 261.767 324.51 250.977 322.968 242.737C321.9 237.038 318.333 224.922 303.505 219.324C299.982 217.998 294.124 218.878 299.161 223.373C302.738 226.561 305.868 227.422 307.647 229.659C307.647 229.659 300.347 231.744 299.252 235.732C298.322 239.188 297.618 242.713 297.145 246.28C297.713 246.525 298.295 246.728 298.887 246.887C298.887 246.887 297.975 250.633 300.712 255.694L321.983 261.767Z" fill="#EB9481"/>
<path d="M321.161 237.473C318.971 235.631 314.262 231.815 309.435 230.175C304.07 228.363 293.302 226.46 292.098 230.863C291.24 234.103 295.292 235.226 295.292 235.226C295.292 235.226 290.729 235.479 290.492 238.587C290.309 241.421 293.494 242.079 293.494 242.079C293.494 242.079 290.757 242.767 291.03 245.531C291.386 248.851 297.126 246.867 300.155 249.884C300.821 250.562 321.161 237.473 321.161 237.473Z" fill="#EB9481"/>
<path d="M308.65 236.785C304.498 234.766 299.89 234.194 295.437 235.145C295.328 235.145 295.291 235.287 295.392 235.277C299.856 235.204 304.311 235.735 308.659 236.856L308.65 236.785Z" fill="#263238"/>
<path d="M306.834 242.737C304.726 241.796 298.503 240.47 293.539 241.968C293.42 241.968 293.393 242.11 293.539 242.099C297.989 241.772 302.459 242.006 306.861 242.798L306.834 242.737Z" fill="#263238"/>
<path d="M323.159 266.161C323.159 266.161 311.141 296.477 303.486 300.364C295.83 304.251 291.103 303.786 288.174 303.472C287.035 303.248 285.955 302.751 285.008 302.014C276.795 296.245 261.593 274.998 255.242 262.921C250.479 253.811 250.543 245.359 257.195 247.687C259.453 248.598 261.559 249.919 263.427 251.594C275.965 262.01 290.41 271.779 291.058 271.353C291.705 270.928 297.992 258.397 297.992 258.397L323.159 266.161Z" fill="#FFC727"/>
<path d="M292.153 277.66C292.068 278.331 292.068 279.013 292.153 279.684C292.242 280.386 292.427 281.068 292.7 281.709C292.79 281.037 292.79 280.355 292.7 279.684C292.611 278.983 292.426 278.3 292.153 277.66Z" fill="white"/>
<path d="M307.838 285.201C307.753 285.872 307.753 286.554 307.838 287.225C307.922 287.902 308.088 288.562 308.331 289.189C308.421 288.518 308.421 287.836 308.331 287.165C308.255 286.487 308.089 285.825 307.838 285.201Z" fill="white"/>
<path d="M280.19 292.52C280.105 293.191 280.105 293.873 280.19 294.544C280.265 295.222 280.431 295.884 280.683 296.508C280.768 295.836 280.768 295.155 280.683 294.483C280.598 293.807 280.432 293.147 280.19 292.52Z" fill="white"/>
<path d="M272.625 262.739C272.47 264.115 272.646 265.512 273.136 266.788C273.221 266.117 273.221 265.435 273.136 264.764C273.051 264.066 272.879 263.384 272.625 262.739Z" fill="white"/>
<path d="M270.143 274.937C270.748 275.031 271.362 275.031 271.968 274.937C272.579 274.853 273.176 274.669 273.738 274.39C273.132 274.296 272.518 274.296 271.913 274.39C271.303 274.484 270.708 274.668 270.143 274.937Z" fill="white"/>
<path d="M302.153 278.47C302.759 278.564 303.373 278.564 303.978 278.47C304.588 278.377 305.183 278.193 305.749 277.923C305.144 277.823 304.529 277.823 303.924 277.923C303.312 278.007 302.716 278.191 302.153 278.47Z" fill="white"/>
<path d="M285.893 289.118C286.498 289.213 287.112 289.213 287.718 289.118C288.329 289.035 288.926 288.851 289.488 288.572C288.247 288.409 286.989 288.608 285.838 289.149L285.893 289.118Z" fill="white"/>
<path d="M316.817 268.013C317.423 268.107 318.037 268.107 318.642 268.013C319.254 267.93 319.85 267.745 320.413 267.466C319.171 267.304 317.913 267.502 316.763 268.043L316.817 268.013Z" fill="white"/>
<path d="M300.977 299.049C301.582 299.143 302.196 299.143 302.802 299.049C303.413 298.965 304.01 298.781 304.572 298.502C303.967 298.402 303.352 298.402 302.747 298.502C302.136 298.586 301.539 298.77 300.977 299.049Z" fill="white"/>
<path d="M253.928 248.689C253.425 248.936 252.894 249.106 252.35 249.195C252.427 249.001 252.525 248.817 252.642 248.649C253.07 248.602 253.503 248.615 253.928 248.689Z" fill="white"/>
<path d="M284.351 270.26C283.865 270.679 283.432 271.169 283.065 271.718C282.687 272.261 282.379 272.861 282.152 273.499C283.127 272.652 283.882 271.535 284.342 270.26H284.351Z" fill="white"/>
<path d="M299.398 287.205C298.909 287.625 298.476 288.119 298.112 288.673C297.735 289.214 297.428 289.81 297.199 290.444C297.688 290.029 298.121 289.538 298.486 288.987C298.864 288.444 299.171 287.844 299.398 287.205Z" fill="white"/>
<path d="M307.947 264.743C307.458 265.159 307.025 265.65 306.661 266.201C306.282 266.744 305.975 267.344 305.748 267.983C306.237 267.563 306.67 267.069 307.035 266.515C307.411 265.974 307.718 265.378 307.947 264.743Z" fill="white"/>
<path d="M274.851 285.09C274.364 285.512 273.931 286.005 273.565 286.557C273.189 287.098 272.882 287.695 272.652 288.329C273.141 287.913 273.575 287.422 273.939 286.871C274.321 286.33 274.628 285.73 274.851 285.09Z" fill="white"/>
<path d="M263.5 256.585C263.011 257 262.578 257.491 262.214 258.042C261.832 258.583 261.525 259.183 261.301 259.824C262.275 258.977 263.031 257.859 263.491 256.585H263.5Z" fill="white"/>
<path d="M262.798 270.574C262.42 270.031 261.974 269.551 261.475 269.147C260.989 268.726 260.451 268.385 259.878 268.134C260.248 268.682 260.691 269.163 261.192 269.562C261.68 269.985 262.221 270.326 262.798 270.574Z" fill="white"/>
<path d="M315.969 277.194C315.592 276.654 315.15 276.174 314.655 275.767C314.165 275.347 313.624 275.006 313.049 274.755C313.426 275.295 313.868 275.775 314.363 276.182C314.853 276.601 315.393 276.942 315.969 277.194Z" fill="white"/>
<path d="M299.607 271.738C299.23 271.198 298.788 270.718 298.293 270.311C297.806 269.888 297.265 269.546 296.688 269.299C297.451 270.379 298.458 271.217 299.607 271.728V271.738Z" fill="white"/>
<path d="M281.586 282.934C281.214 282.389 280.771 281.908 280.272 281.506C279.787 281.079 279.245 280.738 278.666 280.494C279.046 281.034 279.492 281.515 279.989 281.921C280.477 282.339 281.014 282.679 281.586 282.934Z" fill="white"/>
<path d="M292.426 299.626C292.051 299.083 291.609 298.603 291.112 298.198C290.622 297.779 290.081 297.438 289.506 297.186C289.884 297.729 290.329 298.209 290.829 298.613C291.317 299.031 291.854 299.371 292.426 299.626Z" fill="white"/>
<path d="M285.008 302.014C276.795 296.245 261.593 274.998 255.242 262.921C250.479 253.811 250.543 245.359 257.195 247.687C260.891 254.823 277.023 286.041 285.008 302.014Z" fill="#263238"/>
<path d="M320.075 271.738C319.163 271.242 310.53 268.104 308.642 267.466C306.753 266.829 299.069 264.156 297.071 263.681C297.063 263.677 297.054 263.676 297.045 263.676C297.036 263.677 297.027 263.679 297.019 263.683C297.011 263.688 297.004 263.694 296.998 263.701C296.992 263.708 296.987 263.717 296.984 263.726C296.981 263.735 296.98 263.745 296.981 263.755C296.981 263.765 296.983 263.775 296.987 263.784C296.991 263.793 296.996 263.801 297.003 263.807C297.009 263.814 297.017 263.819 297.025 263.822C298.905 264.703 306.652 267.436 308.569 268.124C310.485 268.813 319.071 271.708 320.048 271.88C320.148 271.89 320.157 271.768 320.075 271.738Z" fill="#263238"/>
<path d="M276.321 322.027C275.454 323.039 219.637 325.063 219.354 324.679C218.579 323.666 225.45 284.249 231.162 269.167C238.462 249.833 242.659 248.051 245.159 246.897C248.344 245.399 254.175 245.683 255.589 246.321C257.195 247.029 264.203 255.583 266.338 262.516C270.627 276.465 277.078 321.105 276.321 322.027Z" fill="#FFC727"/>
<path d="M251.738 257.961C251.591 259.338 251.771 260.734 252.258 262.01C252.344 261.339 252.344 260.657 252.258 259.986C252.179 259.286 252.004 258.603 251.738 257.961Z" fill="white"/>
<path d="M252.213 287.519C252.059 288.895 252.235 290.292 252.724 291.568C252.809 290.897 252.809 290.215 252.724 289.544C252.639 288.846 252.467 288.164 252.213 287.519Z" fill="white"/>
<path d="M220.476 318.433C220.332 319.81 220.511 321.205 220.996 322.482C221.081 321.811 221.081 321.129 220.996 320.458C220.916 319.758 220.74 319.075 220.476 318.433Z" fill="white"/>
<path d="M243.343 319.658C243.257 320.329 243.257 321.011 243.343 321.682C243.426 322.363 243.595 323.028 243.845 323.656C243.93 322.985 243.93 322.303 243.845 321.632C243.768 320.95 243.599 320.284 243.343 319.658Z" fill="white"/>
<path d="M262.168 306.003C262.083 306.674 262.083 307.356 262.168 308.027C262.243 308.705 262.409 309.367 262.661 309.991C262.747 309.319 262.747 308.638 262.661 307.966C262.581 307.289 262.415 306.628 262.168 306.003Z" fill="white"/>
<path d="M235.323 275.635C235.238 276.307 235.238 276.988 235.323 277.66C235.398 278.338 235.564 279 235.815 279.624C235.906 278.952 235.906 278.27 235.815 277.599C235.739 276.921 235.573 276.259 235.323 275.635Z" fill="white"/>
<path d="M232.621 301.67C232.536 302.342 232.536 303.023 232.621 303.695C232.705 304.371 232.871 305.032 233.114 305.658C233.27 304.282 233.094 302.885 232.603 301.609L232.621 301.67Z" fill="white"/>
<path d="M266.156 281.041C266.071 281.712 266.071 282.394 266.156 283.065C266.239 283.741 266.405 284.402 266.648 285.029C266.739 284.358 266.739 283.676 266.648 283.004C266.572 282.326 266.406 281.665 266.156 281.041Z" fill="white"/>
<path d="M246.337 270.463C246.942 270.558 247.556 270.558 248.162 270.463C248.776 270.379 249.376 270.195 249.941 269.916C248.7 269.739 247.438 269.939 246.291 270.493L246.337 270.463Z" fill="white"/>
<path d="M232.877 289.959C234.118 290.121 235.376 289.923 236.527 289.382C235.922 289.286 235.307 289.286 234.702 289.382C234.071 289.47 233.455 289.664 232.877 289.959Z" fill="white"/>
<path d="M254.184 301.012C254.789 301.107 255.403 301.107 256.009 301.012C256.619 300.924 257.215 300.74 257.779 300.466C257.173 300.371 256.559 300.371 255.954 300.466C255.344 300.558 254.749 300.742 254.184 301.012Z" fill="white"/>
<path d="M238.37 313.544C238.975 313.638 239.59 313.638 240.195 313.544C240.805 313.451 241.4 313.267 241.965 312.997C241.36 312.903 240.746 312.903 240.14 312.997C239.531 313.091 238.936 313.275 238.37 313.544Z" fill="white"/>
<path d="M269.551 313.2C270.156 313.294 270.77 313.294 271.376 313.2C271.987 313.116 272.584 312.932 273.146 312.653C272.541 312.553 271.926 312.553 271.321 312.653C270.71 312.737 270.113 312.922 269.551 313.2Z" fill="white"/>
<path d="M250.315 249.256C250.92 249.351 251.535 249.351 252.14 249.256C252.752 249.163 253.351 248.979 253.919 248.709C253.314 248.615 252.7 248.615 252.094 248.709C251.481 248.797 250.882 248.981 250.315 249.256Z" fill="white"/>
<path d="M244.703 254.469C244.209 254.886 243.772 255.38 243.407 255.937C243.029 256.477 242.722 257.073 242.495 257.708C242.986 257.295 243.419 256.804 243.781 256.251C244.162 255.708 244.473 255.108 244.703 254.469Z" fill="white"/>
<path d="M257.715 276.567C256.742 277.417 255.984 278.533 255.516 279.806C256.01 279.392 256.444 278.897 256.803 278.338C257.182 277.799 257.49 277.203 257.715 276.567Z" fill="white"/>
<path d="M270.645 298.755C270.158 299.177 269.725 299.671 269.359 300.223C268.981 300.766 268.673 301.366 268.446 302.004C268.936 301.585 269.369 301.091 269.733 300.537C270.114 299.996 270.422 299.395 270.645 298.755Z" fill="white"/>
<path d="M256.264 315.629C255.775 316.045 255.342 316.536 254.977 317.087C254.596 317.628 254.289 318.228 254.065 318.868C254.558 318.458 254.992 317.966 255.352 317.411C255.733 316.87 256.04 316.269 256.264 315.629Z" fill="white"/>
<path d="M226.49 310.365C225.998 310.782 225.565 311.277 225.203 311.833C224.823 312.372 224.516 312.968 224.291 313.605C224.784 313.194 225.218 312.703 225.577 312.147C225.958 311.606 226.266 311.006 226.49 310.365Z" fill="white"/>
<path d="M243.599 294.706C243.112 295.124 242.679 295.615 242.312 296.164C241.934 296.707 241.627 297.307 241.4 297.945C241.887 297.527 242.32 297.036 242.687 296.487C243.066 295.945 243.374 295.345 243.599 294.706Z" fill="white"/>
<path d="M263.5 256.585C263.011 257 262.578 257.491 262.214 258.042C261.832 258.583 261.525 259.183 261.301 259.824C262.275 258.977 263.031 257.859 263.491 256.585H263.5Z" fill="white"/>
<path d="M262.798 270.574C262.42 270.031 261.974 269.551 261.475 269.147C260.989 268.726 260.451 268.385 259.878 268.134C260.248 268.682 260.691 269.163 261.192 269.562C261.68 269.985 262.221 270.326 262.798 270.574Z" fill="white"/>
<path d="M226.143 294.524C225.594 294.288 225.078 293.968 224.61 293.572L224.719 293.016L224.82 293.096C225.319 293.5 225.765 293.981 226.143 294.524Z" fill="white"/>
<path d="M264.668 294.048C264.293 293.506 263.851 293.025 263.354 292.621C262.864 292.201 262.324 291.86 261.748 291.609C262.126 292.151 262.572 292.632 263.071 293.036C263.559 293.453 264.096 293.794 264.668 294.048Z" fill="white"/>
<path d="M266.804 322.877C266.423 322.336 265.978 321.856 265.481 321.45C264.993 321.026 264.452 320.685 263.875 320.437C264.255 320.978 264.7 321.458 265.198 321.865C265.687 322.284 266.228 322.625 266.804 322.877Z" fill="white"/>
<path d="M238.37 265.958C237.992 265.403 237.543 264.912 237.038 264.501C236.55 264.078 236.009 263.737 235.432 263.488C235.804 264.033 236.247 264.514 236.746 264.916C237.239 265.349 237.786 265.7 238.37 265.958Z" fill="white"/>
<path d="M249.603 308.027C249.225 307.484 248.78 307.004 248.28 306.6C247.792 306.183 247.255 305.842 246.683 305.588C247.055 306.129 247.494 306.61 247.988 307.015C248.48 307.435 249.024 307.776 249.603 308.027Z" fill="white"/>
<path d="M233.297 321.662C232.922 321.12 232.48 320.639 231.983 320.235C231.495 319.812 230.954 319.471 230.377 319.223C230.749 319.767 231.192 320.248 231.691 320.65C232.18 321.071 232.721 321.411 233.297 321.662Z" fill="white"/>
<path d="M246.263 282.144C245.886 281.604 245.444 281.124 244.949 280.717C244.462 280.293 243.921 279.952 243.343 279.704C243.72 280.245 244.163 280.725 244.657 281.132C245.147 281.551 245.688 281.892 246.263 282.144Z" fill="white"/>
<path d="M235.952 252.192C212.054 272.518 191.477 300.587 193.549 309.384C195.739 318.676 212.474 328.94 227.183 330.914C230.194 331.319 239.301 306.742 236.208 305.608C233.799 304.758 222.849 301.427 221.526 299.777C220.613 298.634 237.33 272.001 242.723 258.134C248.371 243.668 242.349 246.756 235.952 252.192Z" fill="#EB9481"/>
<path d="M229.994 304.99C229.994 304.99 239.192 305.912 245.178 306.833C248.517 307.349 254.175 308.796 256.474 310.416C259.905 312.845 272.899 325.438 270.207 328.991C267.78 332.21 264.03 327.189 264.03 327.189C264.03 327.189 268.592 332.25 265.298 334.619C262.004 336.988 257.66 329.952 257.66 329.952C257.66 329.952 262.843 334.943 259.111 337.109C255.863 338.982 250.105 331.451 250.105 331.451C250.105 331.451 256.064 336.026 252.906 338.314C249.43 340.834 239.511 330.742 239.511 330.742C231.654 331.754 226.809 331.258 221.261 329.588C220.239 329.284 229.994 304.99 229.994 304.99Z" fill="#EB9481"/>
<path d="M259.057 331.623C258.701 331.086 258.327 330.56 257.962 330.023C257.28 328.958 256.537 327.943 255.735 326.987C254.95 326.055 254.129 325.175 253.271 324.324C252.414 323.474 251.392 322.614 250.534 321.682C250.527 321.676 250.52 321.671 250.511 321.667C250.503 321.664 250.494 321.662 250.485 321.663C250.476 321.663 250.467 321.666 250.459 321.67C250.451 321.674 250.444 321.68 250.438 321.687C250.432 321.695 250.427 321.703 250.424 321.713C250.421 321.722 250.42 321.732 250.42 321.742C250.421 321.752 250.423 321.761 250.427 321.77C250.431 321.779 250.436 321.787 250.443 321.794C251.321 322.7 252.149 323.664 252.925 324.679C253.718 325.64 254.494 326.612 255.279 327.584C256.064 328.556 256.857 329.416 257.642 330.347C258.035 330.803 258.409 331.289 258.783 331.764C259.111 332.246 259.474 332.696 259.869 333.111C259.914 333.111 259.96 333.111 259.942 333.04C259.692 332.535 259.395 332.06 259.057 331.623Z" fill="#263238"/>
<path d="M264.96 328.272C263.743 326.262 262.402 324.347 260.945 322.543C259.463 320.751 257.825 319.127 256.054 317.694C256.048 317.687 256.04 317.682 256.032 317.679C256.023 317.676 256.014 317.674 256.006 317.675C255.997 317.675 255.988 317.678 255.98 317.682C255.972 317.686 255.965 317.692 255.959 317.699C255.953 317.706 255.948 317.715 255.945 317.724C255.942 317.734 255.941 317.743 255.941 317.753C255.941 317.763 255.944 317.773 255.947 317.782C255.951 317.791 255.957 317.799 255.963 317.805C257.441 319.597 258.947 321.369 260.443 323.15C261.173 324.011 264.395 328.07 264.787 328.444C264.878 328.505 265.006 328.353 264.96 328.272Z" fill="#263238"/>
<path d="M253.581 334.953C252.401 333.089 251.112 331.314 249.721 329.639C248.16 328.076 246.498 326.642 244.748 325.347C244.684 325.347 244.602 325.407 244.657 325.458C246.208 327.027 247.787 328.556 249.22 330.195C249.95 331.005 252.66 334.386 253.408 335.085C253.424 335.11 253.448 335.128 253.475 335.133C253.503 335.139 253.531 335.132 253.554 335.115C253.577 335.097 253.593 335.071 253.598 335.04C253.603 335.01 253.597 334.978 253.581 334.953Z" fill="#263238"/>
<path d="M237.211 304.626L224.345 331.906C224.345 331.906 195.355 323.413 192.855 308.847C190.355 294.281 223.57 260.796 233.817 252.88C244.064 244.964 250.315 243.901 242.23 261.929C234.145 279.957 221.635 298.502 222.657 299.433C223.524 300.213 237.211 304.626 237.211 304.626Z" fill="#FFC727"/>
<path d="M216.808 284.745C216.723 285.417 216.723 286.098 216.808 286.77C216.884 287.451 217.05 288.116 217.301 288.744C217.386 288.072 217.386 287.391 217.301 286.719C217.216 286.04 217.05 285.376 216.808 284.745Z" fill="white"/>
<path d="M220.476 318.433C220.332 319.81 220.511 321.205 220.996 322.482C221.081 321.811 221.081 321.129 220.996 320.458C220.916 319.758 220.74 319.075 220.476 318.433Z" fill="white"/>
<path d="M205.512 302.014C205.426 302.686 205.426 303.367 205.512 304.039C205.591 304.717 205.76 305.379 206.013 306.003C206.103 305.331 206.103 304.649 206.013 303.978C205.933 303.3 205.764 302.638 205.512 302.014Z" fill="white"/>
<path d="M235.359 275.746L235.304 275.848C235.3 275.78 235.3 275.713 235.304 275.645C235.327 275.676 235.345 275.71 235.359 275.746Z" fill="white"/>
<path d="M228.406 257.82C228.259 259.196 228.438 260.592 228.926 261.869C229.011 261.197 229.011 260.516 228.926 259.844C228.847 259.144 228.672 258.461 228.406 257.82Z" fill="white"/>
<path d="M233.132 305.679C232.889 305.052 232.723 304.391 232.64 303.715C232.64 303.513 232.621 303.31 232.585 303.108L233.05 303.259C233.05 303.381 233.096 303.513 233.114 303.634C233.207 304.311 233.213 305 233.132 305.679Z" fill="white"/>
<path d="M234.939 252.111C235.545 252.206 236.159 252.206 236.764 252.111C237.393 252.022 238.007 251.838 238.589 251.564C237.349 251.391 236.089 251.586 234.939 252.131V252.111Z" fill="white"/>
<path d="M204.763 286.648C205.369 286.743 205.983 286.743 206.588 286.648C207.2 286.565 207.796 286.381 208.358 286.102C207.753 286.007 207.139 286.007 206.533 286.102C205.924 286.195 205.328 286.379 204.763 286.648Z" fill="white"/>
<path d="M217.52 303.978C218.125 304.074 218.74 304.074 219.345 303.978C219.959 303.895 220.559 303.711 221.124 303.432C220.519 303.337 219.905 303.337 219.299 303.432C218.687 303.524 218.088 303.707 217.52 303.978Z" fill="white"/>
<path d="M209.946 323.899C210.551 323.995 211.166 323.995 211.771 323.899C212.385 323.816 212.985 323.632 213.55 323.353C212.309 323.19 211.051 323.389 209.9 323.93L209.946 323.899Z" fill="white"/>
<path d="M196.104 310.052C196.709 310.146 197.323 310.146 197.929 310.052C198.54 309.968 199.137 309.784 199.699 309.505C198.458 309.342 197.2 309.541 196.049 310.082L196.104 310.052Z" fill="white"/>
<path d="M222.876 269.126C223.481 269.222 224.096 269.222 224.701 269.126C225.315 269.043 225.915 268.859 226.481 268.58C225.239 268.417 223.981 268.616 222.831 269.157L222.876 269.126Z" fill="white"/>
<path d="M244.703 254.469C244.209 254.886 243.772 255.38 243.407 255.937C243.029 256.477 242.722 257.073 242.495 257.708C242.986 257.295 243.419 256.804 243.781 256.251C244.162 255.708 244.473 255.108 244.703 254.469Z" fill="white"/>
<path d="M226.49 278.034C225.998 278.451 225.565 278.945 225.203 279.502C224.823 280.041 224.516 280.637 224.291 281.273C224.784 280.863 225.218 280.372 225.577 279.816C225.958 279.275 226.266 278.674 226.49 278.034Z" fill="white"/>
<path d="M226.49 310.365C225.998 310.782 225.565 311.277 225.203 311.833C224.823 312.372 224.516 312.968 224.291 313.605C224.784 313.194 225.218 312.703 225.577 312.147C225.958 311.606 226.266 311.006 226.49 310.365Z" fill="white"/>
<path d="M207.501 314.728C206.528 315.579 205.77 316.695 205.302 317.967C205.795 317.554 206.229 317.059 206.588 316.5C206.968 315.961 207.275 315.364 207.501 314.728Z" fill="white"/>
<path d="M212.136 294.048C211.649 294.466 211.216 294.957 210.85 295.506C210.47 296.048 210.162 296.648 209.937 297.287C210.426 296.871 210.859 296.381 211.224 295.83C211.602 295.286 211.909 294.687 212.136 294.048Z" fill="white"/>
<path d="M225.385 327.381C224.416 328.234 223.662 329.35 223.195 330.621C224.169 329.773 224.925 328.656 225.385 327.381Z" fill="white"/>
<path d="M225.331 293.562L225.121 293.947C224.92 293.815 224.728 293.663 224.537 293.512C224.04 293.107 223.597 292.627 223.223 292.084C223.794 292.338 224.332 292.679 224.82 293.096C224.993 293.248 225.175 293.4 225.331 293.562Z" fill="white"/>
<path d="M200.247 298.502C199.869 297.962 199.427 297.482 198.933 297.075C198.443 296.655 197.902 296.314 197.327 296.062C197.701 296.605 198.144 297.085 198.641 297.49C199.13 297.909 199.671 298.25 200.247 298.502Z" fill="white"/>
<path d="M216.051 313.777C215.676 313.234 215.234 312.754 214.737 312.349C214.247 311.93 213.706 311.589 213.131 311.337C213.509 311.88 213.954 312.36 214.454 312.764C214.942 313.182 215.479 313.522 216.051 313.777Z" fill="white"/>
<path d="M238.37 265.958C237.992 265.403 237.543 264.912 237.038 264.501C236.55 264.078 236.009 263.737 235.432 263.488C235.804 264.033 236.247 264.514 236.746 264.916C237.239 265.349 237.786 265.7 238.37 265.958Z" fill="white"/>
<path d="M216.717 277.194C215.948 276.119 214.942 275.282 213.797 274.765C214.172 275.307 214.614 275.788 215.111 276.192C215.601 276.608 216.142 276.945 216.717 277.194Z" fill="white"/>
<path d="M220.239 328.12C220.85 327.219 225.294 318.443 226.225 316.51C227.156 314.576 231.025 306.731 231.828 304.656C231.831 304.64 231.83 304.622 231.825 304.606C231.819 304.59 231.808 304.577 231.795 304.568C231.782 304.559 231.766 304.554 231.751 304.556C231.735 304.557 231.721 304.564 231.709 304.575C230.568 306.448 226.645 314.354 225.659 316.297C224.674 318.241 220.458 327.027 220.111 328.06C220.084 328.151 220.193 328.181 220.239 328.12Z" fill="#263238"/>
<path d="M237.366 304.535L236.764 305.648C236.846 305.527 237.175 304.697 237.175 304.697C233.251 303.685 229.346 302.601 225.486 301.275C225.002 301.103 224.518 300.931 224.035 300.729C223.516 300.535 223.02 300.273 222.557 299.949C222.517 299.916 222.481 299.878 222.447 299.838C222.39 299.762 222.343 299.677 222.31 299.585C222.276 299.429 222.276 299.266 222.31 299.109C222.356 298.967 222.411 298.806 222.465 298.674C222.52 298.542 222.684 298.148 222.794 297.894C223.022 297.388 223.268 296.882 223.506 296.396C224.473 294.372 225.477 292.469 226.508 290.535C228.597 286.689 230.678 282.842 232.84 279.067C234.884 275.483 237.01 271.434 239.155 267.932C239.283 267.719 239.611 267.527 239.219 268.296C237.248 272.214 235.468 275.595 233.434 279.431L227.283 291.011C226.261 292.945 225.221 294.858 224.245 296.811C223.998 297.297 223.752 297.824 223.524 298.279C223.405 298.522 223.305 298.765 223.195 299.008L223.104 299.281L223.04 299.231C223.046 299.254 223.046 299.278 223.04 299.302C223.04 299.302 223.04 299.393 223.04 299.362V299.291C223.421 299.531 223.817 299.737 224.226 299.909L225.632 300.486C227.521 301.245 229.446 301.923 231.38 302.581L237.366 304.535Z" fill="#263238"/>
<path d="M223.104 299.291V299.362C223.104 299.362 223.104 299.312 223.104 299.302C223.11 299.278 223.11 299.254 223.104 299.231V299.291Z" fill="#263238"/>
<path d="M238.617 273.003C238.89 272.771 238.863 273.003 238.735 273.135C238.033 274.147 236.956 275.21 236.171 276.101C235.251 277.16 234.27 278.15 233.233 279.067C234.042 277.9 234.917 276.791 235.852 275.747C236.714 274.762 237.638 273.845 238.617 273.003Z" fill="#263238"/>
<path d="M254.375 257.05C251.236 258.063 245.579 253.001 243.252 248.72C243.088 248.426 243.371 245.258 243.544 241.391C243.644 239.053 243.708 236.431 243.608 234.042C243.608 233.556 257.295 236.988 257.295 236.988C256.65 240.018 256.344 243.126 256.383 246.24C256.398 246.581 256.441 246.919 256.511 247.252C256.511 247.252 256.511 247.353 256.511 247.414C256.876 249.226 257.405 256.089 254.375 257.05Z" fill="#EB9481"/>
<path d="M244.447 234.062C245.241 238.111 247.924 247.717 255.142 247.525C255.604 247.519 256.065 247.468 256.52 247.373C256.526 247.319 256.526 247.265 256.52 247.211C256.452 246.878 256.407 246.54 256.383 246.199C256.347 243.085 256.653 239.978 257.295 236.947C257.295 236.947 247.404 234.508 244.447 234.062Z" fill="#263238"/>
<path d="M260.462 210.133C260.462 210.133 264.86 212.157 265.672 217.097C266.484 222.037 265.471 227.219 265.088 227.493C264.705 227.766 260.462 210.133 260.462 210.133Z" fill="#263238"/>
<path d="M241.965 216.388C240.688 221.763 243.79 237.018 247.267 240.298C252.386 245.055 260.489 245.187 264.066 238.435C267.533 231.896 263.235 212.117 259.321 209.141C253.554 204.778 243.854 208.442 241.965 216.388Z" fill="#EB9481"/>
<path d="M256.045 226.43C256.045 226.43 255.981 226.501 255.99 226.541C256.228 227.553 256.337 228.778 255.562 229.315C255.562 229.315 255.562 229.386 255.562 229.375C256.574 228.971 256.41 227.361 256.045 226.43Z" fill="#263238"/>
<path d="M255.005 225.559C253.49 225.792 254.029 229.143 255.434 228.92C256.839 228.697 256.283 225.367 255.005 225.559Z" fill="#263238"/>
<path d="M261.283 225.438C261.283 225.438 261.365 225.438 261.365 225.519C261.502 226.531 261.821 227.726 262.716 227.908V227.968C261.675 228.06 261.256 226.45 261.283 225.438Z" fill="#263238"/>
<path d="M261.94 224.193C263.427 223.768 264.075 227.088 262.707 227.483C261.338 227.877 260.699 224.547 261.94 224.193Z" fill="#263238"/>
<path d="M253.199 223.181C253.602 223.055 253.998 222.902 254.385 222.725C254.824 222.628 255.223 222.372 255.516 221.996C255.586 221.858 255.613 221.699 255.595 221.543C255.577 221.386 255.514 221.24 255.416 221.126C255.185 220.936 254.912 220.819 254.626 220.787C254.34 220.755 254.052 220.809 253.792 220.944C253.228 221.117 252.743 221.518 252.432 222.067C252.369 222.197 252.341 222.345 252.352 222.492C252.362 222.639 252.411 222.78 252.492 222.898C252.573 223.015 252.682 223.104 252.808 223.154C252.933 223.205 253.069 223.214 253.199 223.181Z" fill="#263238"/>
<path d="M262.935 221.48C262.517 221.468 262.099 221.431 261.685 221.369C261.238 221.398 260.795 221.263 260.425 220.984C260.324 220.872 260.26 220.725 260.242 220.568C260.223 220.41 260.253 220.25 260.325 220.113C260.505 219.866 260.741 219.677 261.009 219.564C261.277 219.452 261.567 219.422 261.849 219.476C262.435 219.492 262.996 219.744 263.428 220.184C263.519 220.293 263.581 220.429 263.605 220.575C263.628 220.722 263.613 220.873 263.561 221.01C263.509 221.147 263.422 221.264 263.311 221.348C263.2 221.431 263.069 221.477 262.935 221.48Z" fill="#263238"/>
<path d="M256.018 236.37C256.264 236.637 256.587 236.799 256.93 236.826C257.276 236.744 257.605 236.59 257.897 236.37C257.897 236.37 257.961 236.37 257.943 236.37C257.843 236.601 257.688 236.797 257.495 236.938C257.302 237.078 257.079 237.159 256.848 237.17C256.643 237.158 256.445 237.077 256.282 236.938C256.119 236.799 255.998 236.608 255.936 236.39C255.936 236.39 255.981 236.34 256.018 236.37Z" fill="#263238"/>
<path d="M256.511 233.121C256.812 233.486 257.179 233.777 257.587 233.976C257.996 234.174 258.437 234.276 258.883 234.275C259.271 234.281 259.659 234.227 260.033 234.113L260.252 234.042L260.453 233.971C260.5 233.948 260.539 233.909 260.565 233.86C260.591 233.811 260.603 233.755 260.599 233.698C260.602 233.664 260.602 233.63 260.599 233.597V233.505C260.498 232.706 260.234 231.481 260.234 231.481C260.517 231.582 261.967 231.987 261.876 231.572C261.221 227.975 260.236 224.461 258.938 221.085C258.926 221.068 258.91 221.056 258.892 221.049C258.874 221.043 258.854 221.043 258.836 221.05C258.818 221.057 258.802 221.069 258.791 221.087C258.78 221.104 258.774 221.125 258.774 221.146C259.367 224.456 260.471 227.634 261.119 230.955C260.602 230.8 260.067 230.728 259.531 230.742C259.44 230.793 260.079 233.05 260.097 233.414C259.519 233.595 258.913 233.645 258.317 233.56C257.721 233.474 257.147 233.256 256.629 232.918C256.502 232.918 256.438 232.999 256.511 233.121Z" fill="#263238"/>
<path d="M259.549 233.738C259.246 234.387 258.797 234.938 258.245 235.338C257.937 235.542 257.58 235.637 257.223 235.611C256.447 235.54 256.31 234.781 256.31 234.103C256.332 233.742 256.39 233.386 256.483 233.04C257.411 233.634 258.486 233.879 259.549 233.738Z" fill="#263238"/>
<path d="M258.245 235.338C257.937 235.542 257.58 235.637 257.223 235.611C256.447 235.54 256.31 234.781 256.31 234.103C256.71 234.042 257.117 234.13 257.467 234.354C257.817 234.577 258.091 234.923 258.245 235.338Z" fill="#FF98B9"/>
<path d="M243.772 230.853C245.397 231.096 246.4 225.62 246.601 223.555C246.784 221.733 246.464 216.105 246.483 215.72C246.501 215.336 253.938 219.364 257.633 217.39C261.329 215.417 263.345 211.064 263.108 209.292C262.871 207.521 257.378 203.786 253.162 204.322C248.946 204.859 244.192 211.783 244.192 211.783C244.741 210.812 245.223 209.797 245.634 208.746C245.534 208.543 243.015 210.244 242.842 212.461C242.842 212.461 242.969 209.687 242.76 209.677C242.55 209.667 240.798 212.349 241.528 213.989C241.528 213.989 239.456 216.773 239.621 219.364C239.785 221.956 241.874 230.57 243.772 230.853Z" fill="#263238"/>
<path d="M260.252 215.973C259.21 216.88 258.046 217.601 256.803 218.109C255.393 218.509 253.915 218.509 252.505 218.109C251.083 217.784 249.72 217.199 248.472 216.378C247.358 215.67 246.336 214.759 245.187 214.161C244.895 214.01 244.657 214.485 244.858 214.718C246.997 217.105 249.77 218.666 252.769 219.172C254.163 219.408 255.588 219.239 256.905 218.68C258.221 218.121 259.384 217.192 260.279 215.983C260.279 215.983 260.27 215.963 260.252 215.973Z" fill="#263238"/>
<path d="M245.351 228.778C245.351 228.778 241.965 224.021 240.004 225.387C238.042 226.754 240.77 233.799 243.197 234.629C243.504 234.758 243.83 234.818 244.158 234.804C244.485 234.79 244.807 234.703 245.103 234.548C245.4 234.393 245.665 234.173 245.883 233.902C246.101 233.631 246.268 233.313 246.373 232.969L245.351 228.778Z" fill="#EB9481"/>
<path d="M240.825 227.381C240.825 227.381 240.825 227.442 240.825 227.452C242.54 228.1 243.507 229.76 244.219 231.501C244.112 231.322 243.971 231.17 243.806 231.057C243.641 230.944 243.456 230.872 243.263 230.846C243.071 230.82 242.875 230.841 242.691 230.907C242.506 230.973 242.336 231.082 242.193 231.228C242.193 231.228 242.193 231.339 242.248 231.319C242.537 231.198 242.852 231.178 243.151 231.263C243.45 231.348 243.718 231.534 243.918 231.795C244.249 232.231 244.537 232.706 244.776 233.212C244.867 233.374 245.132 233.273 245.068 233.08C244.958 230.671 243.124 227.472 240.825 227.381Z" fill="#263238"/>
<path d="M241.601 249.843C243.096 251.864 244.692 253.79 246.382 255.613C247.933 257.397 249.962 258.576 252.167 258.974C254.312 259.186 256.456 258.7 257.241 255.795C257.797 253.295 257.85 250.689 257.396 248.163C257.392 248.149 257.39 248.134 257.392 248.12C257.394 248.106 257.399 248.092 257.407 248.08C257.414 248.068 257.424 248.059 257.436 248.052C257.447 248.045 257.46 248.042 257.473 248.042C257.487 248.042 257.499 248.045 257.511 248.052C257.523 248.059 257.533 248.068 257.54 248.08C257.548 248.092 257.553 248.106 257.555 248.12C257.557 248.134 257.555 248.149 257.551 248.163C258.044 251.959 258.555 257.85 255.443 259.166C251.957 260.644 248.536 258.65 246.081 255.977C244.363 254.146 242.833 252.109 241.519 249.904C241.546 249.853 241.601 249.803 241.601 249.843Z" fill="#263238"/>
</svg>
