<svg width="80" height="80" viewBox="0 0 80 80" fill="none" xmlns="http://www.w3.org/2000/svg">
<path d="M1 35.2274C1 28.8712 3.01117 22.7304 6.66295 17.8804C9.83806 13.6635 14.0841 10.6468 18.8193 9.21496L34.7182 4.40751C40.3921 2.69187 46.3604 2.59429 52.0763 4.1232L54.3995 4.74463C68.7653 8.58729 79 22.9352 79 39.5598C79 58.7114 65.5361 74.3389 48.5755 75.313L35.9933 76.0357C17.071 77.1225 1 60.3148 1 38.936V35.2274Z" fill="url(#paint0_linear_1_11)" stroke="black" stroke-width="2"/>
<path fill-rule="evenodd" clip-rule="evenodd" d="M36.0143 76.2508L48.5965 75.5281C65.801 74.54 79.2952 58.7295 79.2952 39.5598C79.2952 22.9113 69.0405 8.43239 54.4932 4.54119L52.1699 3.91975C46.389 2.37343 40.3512 2.47228 34.6136 4.20718L18.7147 9.01463C13.9028 10.4696 9.60672 13.5295 6.40436 17.7826C2.72257 22.6724 0.704846 28.8482 0.704846 35.2274V38.936C0.704846 60.3284 16.815 77.3535 36.0143 76.2508ZM5.86408 17.2789C2.07598 22.3099 0 28.664 0 35.2274V38.936C0 60.7774 16.4483 78.1599 36.0506 77.034L48.6329 76.3114C66.212 75.3017 80 59.1469 80 39.5598C80 22.5487 69.522 7.75454 54.6579 3.7786L52.3347 3.15716C46.4386 1.58005 40.2806 1.68087 34.4288 3.45031L18.5299 8.25777C13.579 9.75478 9.15891 12.903 5.86408 17.2789Z" fill="#DF6C4F"/>
<path d="M17.6674 78.2487C16.5225 78.9481 15.399 79.2681 14.297 79.2087C13.2358 79.1242 12.2933 78.7137 11.4695 77.977C10.6865 77.2153 10.1808 76.1434 9.95217 74.7612L1.96255 32.2126C1.65956 30.4814 1.74671 29.0472 2.224 27.9102C2.67313 26.734 3.49061 25.7837 4.67644 25.0592C5.86227 24.3348 7.13021 24.011 8.48028 24.0881C9.80218 24.1259 11.2484 24.6233 12.819 25.5801L52.3354 48.8683C53.6271 49.601 54.515 50.4677 54.999 51.4684C55.4957 52.4049 55.5795 53.3401 55.2503 54.2739C54.893 55.1685 54.1624 55.9531 53.0583 56.6275C51.668 57.4769 50.3592 57.8256 49.1318 57.6736C47.9453 57.4967 46.5872 56.9173 45.0575 55.9355L35.5072 50.0182L41.126 50.221L15.5489 65.8467L17.5358 60.9974L19.7871 71.3738C20.1591 73.1192 20.2228 74.5176 19.9781 75.5689C19.7461 76.556 18.9759 77.4493 17.6674 78.2487ZM11.902 35.3558L16.9315 58.0693L13.6284 56.79L32.8265 45.0614L32.8175 48.3642L12.0246 35.2808L11.902 35.3558Z" fill="white"/>
<path d="M62.9195 50.5186C61.5573 51.4071 60.2203 51.7166 58.9085 51.4472C57.5966 51.1777 56.5184 50.4555 55.6738 49.2806C55.0262 48.3799 54.7494 47.4218 54.8432 46.4062C54.868 45.3766 55.3979 44.5174 56.433 43.8287L58.1272 42.6245C59.6784 41.5078 60.5814 40.308 60.8361 39.0251C61.0908 37.7422 60.641 36.2979 59.4867 34.6922L41.2851 9.37317C40.2152 7.88497 39.8077 6.49942 40.0624 5.21653C40.289 3.89448 41.1588 2.77131 42.6717 1.84701C44.2256 0.897726 45.707 0.58449 47.1161 0.907299C48.497 1.19094 49.7223 2.07687 50.7922 3.56507L68.9093 28.7666C70.7675 31.3514 71.8534 33.8443 72.1672 36.2454C72.4936 38.5823 72.0478 40.8274 70.8298 42.9805C69.6118 45.1337 67.6625 47.1701 64.9818 49.0896L62.9195 50.5186Z" fill="white"/>
<path fill-rule="evenodd" clip-rule="evenodd" d="M14.2548 79.9916L14.2467 79.991C13.0436 79.8953 11.9644 79.4257 11.028 78.5884L11.0166 78.5782L11.0056 78.5675C10.0809 77.6678 9.51239 76.426 9.2606 74.9126L1.2707 32.3626C0.951444 30.5383 1.02363 28.9257 1.58018 27.5909C2.10269 26.2311 3.04248 25.1627 4.33729 24.3717C5.63511 23.5788 7.02999 23.2218 8.50751 23.3043C9.97018 23.3483 11.5224 23.8967 13.1533 24.8896C13.1547 24.8905 13.1562 24.8913 13.1576 24.8922L52.6606 48.1725C54.0207 48.9449 55.0376 49.9019 55.6131 51.083C56.2032 52.2033 56.3206 53.3856 55.9066 54.5603L55.9009 54.5765L55.8945 54.5924C55.4527 55.6987 54.5803 56.5925 53.3976 57.3151C51.9162 58.2201 50.4617 58.6274 49.0539 58.4531L49.0461 58.4522L49.0382 58.451C47.7294 58.2558 46.283 57.6269 44.7098 56.6177C44.7083 56.6168 44.7069 56.6158 44.7054 56.6149L38.4593 52.745L19.0439 64.6063L20.4729 71.1928C20.8562 72.9909 20.9469 74.5348 20.6605 75.7655L20.6601 75.7673C20.3558 77.0622 19.3823 78.0958 18.0067 78.9362C16.7689 79.6924 15.5172 80.0598 14.2629 79.9921L14.2548 79.9916ZM18.2323 64.2074L38.4617 51.8488L45.0576 55.9355C46.5873 56.9173 47.9454 57.4967 49.1319 57.6736C50.3593 57.8256 51.6681 57.4769 53.0584 56.6276C54.1624 55.9531 54.8931 55.1685 55.2504 54.2739C55.5795 53.3401 55.4957 52.4049 54.999 51.4684C54.515 50.4677 53.6272 49.601 52.3355 48.8684L12.8191 25.5801C11.2485 24.6233 9.80225 24.126 8.48034 24.0881C7.13028 24.0111 5.86233 24.3348 4.6765 25.0592C3.49067 25.7837 2.67319 26.734 2.22406 27.9102C1.74678 29.0472 1.65963 30.4814 1.96262 32.2126L9.95224 74.7613C10.1808 76.1434 10.6866 77.2153 11.4695 77.977C12.2934 78.7137 13.2359 79.1242 14.297 79.2087C15.3991 79.2682 16.5225 78.9481 17.6675 78.2487C18.976 77.4493 19.7462 76.556 19.9782 75.5689C20.2228 74.5176 20.1592 73.1192 19.7871 71.3738L18.2323 64.2074ZM12.0247 35.2808L11.902 35.3558L16.2884 55.165L30.1588 46.6912L12.0247 35.2808ZM28.7108 46.6811L12.9382 36.7566L16.7533 53.9862L28.7108 46.6811ZM63.2841 51.1899L63.276 51.1952C61.796 52.1606 60.2885 52.5282 58.7806 52.2185C57.2997 51.9143 56.0723 51.0905 55.1234 49.7706C54.3825 48.7399 54.0324 47.5915 54.1396 46.3552C54.1824 44.9949 54.9046 43.935 56.062 43.1618L57.7444 41.966C57.745 41.9656 57.7457 41.9652 57.7463 41.9647C59.2258 40.8991 59.9508 39.8485 60.1479 38.8559C60.3357 37.9102 60.0332 36.7079 58.9364 35.1822L40.7348 9.86312C39.5966 8.27993 39.0581 6.6594 39.372 5.05849C39.6556 3.42644 40.7208 2.14419 42.3326 1.15952C43.9954 0.143655 45.6448 -0.22831 47.2512 0.137499C48.8302 0.464034 50.1929 1.47582 51.3427 3.07516L69.4598 28.2767C71.3679 30.9309 72.5263 33.5493 72.8642 36.1284C73.2179 38.6658 72.727 41.0992 71.4264 43.3984C70.1362 45.6791 68.0986 47.7905 65.3633 49.7492L65.3589 49.7523L63.2841 51.1899ZM72.1672 36.2454C71.8535 33.8444 70.7676 31.3514 68.9094 28.7667L50.7923 3.56509C49.7224 2.07688 48.497 1.19096 47.1161 0.907318C45.7071 0.584509 44.2256 0.897746 42.6718 1.84703C41.1588 2.77133 40.2891 3.8945 40.0625 5.21655C39.8078 6.49944 40.2153 7.88499 41.2852 9.37319L59.4868 34.6922C60.6411 36.2979 61.0909 37.7422 60.8362 39.0251C60.5814 40.308 59.6785 41.5078 58.1273 42.6246L56.433 43.8287C55.398 44.5174 54.8681 45.3766 54.8433 46.4063C54.7495 47.4218 55.0263 48.3799 55.6739 49.2807C56.5185 50.4556 57.5967 51.1777 58.9086 51.4472C60.2204 51.7167 61.5574 51.4071 62.9195 50.5186L64.9818 49.0896C67.6625 47.1701 69.6119 45.1338 70.8299 42.9806C72.0479 40.8274 72.4937 38.5823 72.1672 36.2454Z" fill="#070707"/>
<defs>
<linearGradient id="paint0_linear_1_11" x1="61.3455" y1="8.6276" x2="10.2228" y2="61.4629" gradientUnits="userSpaceOnUse">
<stop stop-color="#FFD600"/>
<stop offset="1" stop-color="#FFBA93"/>
</linearGradient>
</defs>
</svg>
