<svg width="503" height="503" viewBox="0 0 503 503" fill="none" xmlns="http://www.w3.org/2000/svg">
<path d="M422.49 80.4359C428.514 84.1599 435.456 86.1324 442.538 86.1324C449.62 86.1324 456.562 84.1599 462.586 80.4359C469.641 76.0744 475.082 69.5309 478.082 61.798C481.083 54.0652 481.479 45.5647 479.212 37.586C476.945 29.6073 472.138 22.5855 465.52 17.5858C458.901 12.586 450.833 9.88098 442.538 9.88098C434.244 9.88098 426.175 12.586 419.557 17.5858C412.939 22.5855 408.131 29.6073 405.864 37.586C403.597 45.5647 403.994 54.0652 406.994 61.798C409.995 69.5309 415.435 76.0744 422.49 80.4359Z" fill="#EBEBEB"/>
<path d="M430.933 43.6439C430.933 45.9405 431.614 48.1854 432.89 50.0949C434.166 52.0044 435.979 53.4927 438.101 54.3715C440.223 55.2504 442.557 55.4803 444.81 55.0323C447.062 54.5843 449.131 53.4784 450.755 51.8545C452.379 50.2306 453.485 48.1616 453.933 45.9092C454.381 43.6568 454.151 41.3221 453.272 39.2004C452.393 37.0787 450.905 35.2652 448.996 33.9894C447.086 32.7135 444.841 32.0325 442.545 32.0325C441.019 32.0309 439.509 32.3301 438.099 32.9131C436.69 33.496 435.409 34.3513 434.33 35.4298C433.252 36.5083 432.397 37.789 431.814 39.1985C431.231 40.608 430.932 42.1186 430.933 43.6439Z" fill="white"/>
<path d="M422.49 75.6519V80.4359C428.514 84.1599 435.456 86.1324 442.538 86.1324C449.62 86.1324 456.562 84.1599 462.586 80.4359V75.6641C462.652 72.9897 462.183 70.3291 461.205 67.839C460.227 65.3489 458.761 63.0796 456.893 61.1647C455.024 59.2499 452.792 57.7281 450.327 56.6891C447.862 55.6501 445.214 55.1149 442.538 55.1149C439.863 55.1149 437.215 55.6501 434.75 56.6891C432.285 57.7281 430.052 59.2499 428.184 61.1647C426.316 63.0796 424.85 65.3489 423.872 67.839C422.894 70.3291 422.424 72.9897 422.49 75.6641V75.6519Z" fill="white"/>
<path d="M101.708 82.0659C106.613 69.7339 100.592 55.7605 88.2601 50.8555C75.9281 45.9505 61.9547 51.9713 57.0497 64.3033C52.1447 76.6353 58.1655 90.6086 70.4975 95.5136C82.8295 100.419 96.8028 94.3979 101.708 82.0659Z" fill="#EBEBEB"/>
<path d="M91.6314 76.1657C87.9608 83.507 79.3959 87.8384 79.3959 87.8384C79.3959 87.8384 70.7577 83.4948 67.1605 76.1657C64.1383 70.048 66.047 63.4653 70.8311 62.0215C77.6707 59.9537 79.3959 71.8711 79.3959 71.8711C79.3959 71.8711 81.1456 59.9537 87.9608 62.0215C92.7448 63.4653 94.6536 70.1214 91.6314 76.1657Z" fill="white"/>
<path fill-rule="evenodd" clip-rule="evenodd" d="M35.3729 211.686C33.8557 210.744 32.5465 209.373 30.4787 209.581C29.7078 209.655 29.8791 209.018 29.8669 208.59C29.8669 201.004 29.8383 193.426 29.7812 185.857C29.7812 185.294 29.7813 184.841 30.4053 184.547C36.1926 181.599 38.6764 175.848 42.2125 170.929C44.0229 168.485 45.323 165.701 46.0356 162.743C46.7482 159.786 46.8586 156.715 46.3603 153.714C46.1034 152.001 46.8987 151.267 48.4403 150.888C50.2879 150.459 52.111 150.961 52.7717 152.234C54.4471 155.325 55.5771 158.682 56.112 162.157C56.4546 165.032 55.4268 167.834 55.0842 170.721C54.8272 172.814 54.3501 174.869 53.9585 176.974C54.4724 177.341 55.0597 177.157 55.5981 177.157L74.82 177.096C77.5118 177.096 78.8455 177.867 79.2248 179.653C79.4193 180.735 79.263 181.85 78.7787 182.836C78.2945 183.822 77.5076 184.628 76.533 185.135C76.0558 185.367 75.1871 185.135 75.1381 185.906C75.0892 186.676 75.9701 186.591 76.3617 186.897C78.6864 188.475 78.2704 191.791 75.5908 193.663C74.9546 194.128 73.6943 193.92 73.6699 194.886C73.6454 195.853 74.8934 195.633 75.3584 196.11C77.2426 197.958 76.325 201.408 73.523 202.815C73.1416 202.934 72.7694 203.081 72.4096 203.256C72.0915 203.464 71.7734 203.708 72.4096 204.149C75.1871 206.119 75.1381 208.872 72.4096 210.89L71.5776 211.502C70.5664 212.109 69.3857 212.371 68.2128 212.249L38.0769 212.359C37.6041 212.435 37.1208 212.414 36.6561 212.299C36.1913 212.183 35.7548 211.975 35.3729 211.686Z" fill="#EBEBEB"/>
<path fill-rule="evenodd" clip-rule="evenodd" d="M6.79058 198.41C6.79058 193.602 6.79058 188.781 6.79058 183.96C6.79058 182.981 6.87623 182.504 8.01413 182.504C13.8994 182.565 19.7602 182.504 25.6332 182.504C26.8567 182.504 26.9669 182.883 26.9669 183.911C26.9669 193.602 27.0036 203.296 27.077 212.995C27.077 214.218 26.7466 214.573 25.5108 214.561C19.8091 214.561 14.1074 214.561 8.38119 214.622C6.96188 214.622 6.76611 214.157 6.77835 212.909C6.79058 208.052 6.79058 203.231 6.79058 198.41Z" fill="#EBEBEB"/>
<path fill-rule="evenodd" clip-rule="evenodd" d="M470.515 312.677C469.634 312.127 468.863 311.319 467.676 311.454C467.224 311.454 467.322 311.123 467.309 310.879C467.309 306.425 467.309 301.971 467.309 297.518C467.309 297.187 467.309 296.93 467.676 296.747C471.078 295.022 472.571 291.645 474.614 288.757C475.679 287.32 476.444 285.684 476.864 283.946C477.285 282.208 477.352 280.403 477.061 278.638C476.914 277.635 477.379 277.182 478.284 276.974C478.738 276.816 479.23 276.809 479.688 276.952C480.147 277.095 480.547 277.382 480.829 277.77C481.811 279.584 482.473 281.554 482.787 283.594C482.782 285.283 482.581 286.967 482.188 288.61C482.029 289.834 481.747 291.057 481.527 292.281C481.821 292.489 482.175 292.379 482.494 292.379H493.775C495.365 292.379 496.136 292.819 496.356 293.871C496.482 294.519 496.391 295.19 496.097 295.781C495.803 296.372 495.322 296.849 494.729 297.138C494.448 297.285 493.946 297.138 493.909 297.591C493.872 298.044 494.399 297.995 494.668 298.178C496.026 299.108 495.781 301.029 494.215 302.155C493.836 302.424 493.102 302.302 493.077 302.852C493.053 303.403 493.762 303.293 494.068 303.599C494.313 303.911 494.481 304.276 494.56 304.665C494.638 305.054 494.624 305.456 494.52 305.839C494.415 306.222 494.223 306.575 493.957 306.87C493.692 307.165 493.361 307.394 492.992 307.538C492.766 307.611 492.546 307.697 492.331 307.795C492.147 307.93 491.964 308.065 492.331 308.322C493.958 309.545 493.934 311.099 492.331 312.286L491.841 312.641C491.252 313.003 490.559 313.158 489.871 313.081H472.167C471.879 313.133 471.583 313.124 471.298 313.055C471.013 312.985 470.747 312.857 470.515 312.677Z" fill="#EBEBEB"/>
<path fill-rule="evenodd" clip-rule="evenodd" d="M453.654 304.883C453.654 302.057 453.654 299.218 453.654 296.392C453.654 295.817 453.654 295.535 454.413 295.548C457.863 295.548 461.314 295.548 464.764 295.548C465.437 295.548 465.547 295.768 465.547 296.367C465.547 302.077 465.547 307.787 465.547 313.497C465.547 314.219 465.351 314.427 464.63 314.427C461.277 314.427 457.937 314.427 454.584 314.427C453.752 314.427 453.642 314.146 453.642 313.424C453.703 310.536 453.667 307.71 453.654 304.883Z" fill="#EBEBEB"/>
<path d="M437.479 194.324H433.967C433.444 194.329 432.925 194.229 432.44 194.031C431.955 193.833 431.515 193.54 431.145 193.17C430.774 192.8 430.482 192.359 430.284 191.875C430.085 191.39 429.986 190.871 429.991 190.347C429.994 189.294 430.414 188.284 431.159 187.539C431.904 186.794 432.914 186.374 433.967 186.371H438.862L441.15 173.058H436.708C435.69 173.002 434.732 172.558 434.031 171.817C433.331 171.076 432.94 170.095 432.94 169.076C432.94 168.056 433.331 167.075 434.031 166.335C434.732 165.594 435.69 165.15 436.708 165.093H442.532L444.049 155.99C444.201 155.05 444.689 154.198 445.423 153.592C446.157 152.986 447.087 152.669 448.038 152.699C448.619 152.708 449.191 152.841 449.716 153.089C450.241 153.337 450.707 153.694 451.083 154.137C451.459 154.579 451.737 155.096 451.898 155.654C452.058 156.212 452.098 156.798 452.015 157.373L450.644 165.093H462.647L464.189 155.99C464.344 155.041 464.842 154.181 465.588 153.574C466.335 152.968 467.278 152.656 468.239 152.699C468.816 152.711 469.384 152.846 469.904 153.096C470.424 153.346 470.884 153.705 471.254 154.147C471.624 154.59 471.895 155.107 472.048 155.664C472.201 156.22 472.233 156.803 472.142 157.373L470.833 165.093H474.369C475.419 165.103 476.424 165.525 477.166 166.269C477.907 167.013 478.327 168.019 478.333 169.07C478.318 170.119 477.896 171.12 477.156 171.864C476.417 172.608 475.418 173.036 474.369 173.058H469.475L467.162 186.358H471.518C472.042 186.354 472.561 186.453 473.046 186.651C473.53 186.849 473.971 187.142 474.341 187.512C474.711 187.882 475.004 188.323 475.202 188.807C475.4 189.292 475.499 189.811 475.495 190.335C475.491 191.389 475.071 192.398 474.326 193.143C473.581 193.888 472.572 194.308 471.518 194.311H465.78L464.177 203.721C464.018 204.657 463.528 205.505 462.795 206.109C462.063 206.714 461.137 207.034 460.188 207.012C459.606 207.01 459.031 206.882 458.503 206.638C457.975 206.393 457.506 206.037 457.129 205.595C456.751 205.152 456.474 204.633 456.315 204.073C456.157 203.513 456.122 202.925 456.211 202.35L457.668 194.311H445.652L444.037 203.721C443.873 204.663 443.374 205.515 442.632 206.119C441.891 206.724 440.956 207.041 439.999 207.012C439.417 207.021 438.84 206.9 438.31 206.657C437.781 206.415 437.312 206.057 436.938 205.611C436.564 205.164 436.294 204.639 436.149 204.075C436.003 203.511 435.985 202.922 436.096 202.35L437.479 194.324ZM459.001 186.371L461.301 173.058H449.347L447.035 186.358L459.001 186.371Z" fill="#EBEBEB"/>
<path d="M78.564 310.169C83.0643 307.995 88.0441 307.004 93.0338 307.287C98.0236 307.571 102.859 309.121 107.084 311.791C111.308 314.461 114.784 318.163 117.181 322.548C119.579 326.933 120.821 331.857 120.789 336.855C120.678 337.185 120.568 342.446 116.775 345.897C116.344 346.253 115.866 346.549 115.356 346.778C114.551 347.216 113.652 347.453 112.736 347.468C111.82 347.483 110.913 347.276 110.095 346.863C108.82 346.175 107.784 345.117 107.122 343.829L105.898 341.284C105.395 343.271 104.469 345.126 103.183 346.723C101.897 348.319 100.281 349.619 98.4466 350.534C91.0319 354.205 81.8675 350.681 78.0746 342.972C74.2816 335.264 77.1814 326.026 84.5961 322.38C92.0107 318.734 101.004 322.172 104.674 329.856L104.968 330.455L105.152 330.835L110.572 341.847H110.645C110.929 342.417 111.35 342.909 111.869 343.278C112.127 343.389 112.409 343.434 112.689 343.408C112.969 343.382 113.238 343.287 113.472 343.131L114.071 342.838C116.066 341.21 116.518 337.711 116.518 336.818C116.64 332.832 115.752 328.88 113.937 325.329C111.732 320.865 108.254 317.156 103.941 314.67C99.6283 312.183 94.6752 311.032 89.708 311.361C84.7408 311.689 79.9826 313.484 76.0353 316.517C72.088 319.55 69.1289 323.686 67.5321 328.401C65.9353 333.116 65.7726 338.199 67.0646 343.006C68.3566 347.814 71.0453 352.13 74.7905 355.409C78.5358 358.689 83.1694 360.784 88.1055 361.43C93.0415 362.075 98.0582 361.243 102.521 359.038C104.444 358.175 106.235 357.047 107.843 355.685C108.026 355.496 108.249 355.351 108.495 355.26C108.741 355.168 109.005 355.133 109.266 355.156C109.528 355.18 109.781 355.261 110.007 355.395C110.233 355.529 110.426 355.712 110.572 355.93C110.763 356.116 110.912 356.341 111.006 356.591C111.101 356.84 111.14 357.107 111.12 357.373C111.1 357.639 111.022 357.898 110.891 358.13C110.761 358.363 110.581 358.564 110.364 358.719C108.53 360.298 106.503 361.639 104.332 362.708C100.877 364.485 97.1021 365.555 93.2287 365.857C89.3552 366.159 85.4604 365.687 81.7715 364.467C78.0827 363.247 74.6737 361.305 71.7436 358.754C68.8135 356.203 66.4209 353.093 64.7055 349.607C62.9902 346.121 61.9863 342.328 61.7527 338.45C61.519 334.572 62.0601 330.686 63.3445 327.019C64.6289 323.353 66.6308 319.978 69.2334 317.094C71.836 314.209 74.9871 311.872 78.5028 310.218L78.564 310.169ZM96.5012 346.643C101.677 344.098 103.842 337.43 101.041 331.655C98.2386 325.879 91.5336 323.494 86.358 326.038C81.1824 328.583 79.139 335.362 81.9287 341.051C84.7184 346.741 91.2154 349.212 96.5012 346.643Z" fill="#EBEBEB"/>
<path d="M251.5 502.07C390.345 502.07 502.902 487.57 502.902 469.683C502.902 451.796 390.345 437.296 251.5 437.296C112.654 437.296 0.0976562 451.796 0.0976562 469.683C0.0976562 487.57 112.654 502.07 251.5 502.07Z" fill="#EBEBEB"/>
<path d="M71.724 352.357C65.6063 352.577 58.6443 352.932 53.5299 348.919C48.807 345.248 44.5857 339.705 45.222 333.38C45.3933 331.569 45.8093 330.455 47.7425 331.226C50.6912 332.45 52.967 335.656 55.0104 337.931C57.6026 340.907 60.4703 343.632 63.5752 346.068C65.7776 347.756 68.1512 349.212 70.3903 350.84C70.6677 351.036 70.9491 351.244 71.2346 351.464L71.5527 351.709H71.724C71.7742 351.71 71.8235 351.723 71.868 351.746C71.9126 351.769 71.9512 351.803 71.9809 351.843C71.9898 351.879 71.9898 351.917 71.9809 351.953C71.9917 351.997 71.9936 352.042 71.9864 352.086C71.9792 352.13 71.9631 352.172 71.939 352.21C71.915 352.248 71.8836 352.28 71.8466 352.306C71.8096 352.331 71.7679 352.348 71.724 352.357Z" fill="#455A64"/>
<path d="M72.03 351.953C66.5975 351.855 60.7367 352.1 56.3808 348.417C54.3929 346.652 52.6921 344.588 51.3398 342.3C50.7158 341.272 48.8927 338.225 49.6146 337.014C51.0217 334.824 57.4943 343.768 58.3875 344.624C61.7849 347.7 65.9196 349.845 70.3905 350.852C70.6678 351.048 70.9492 351.256 71.2347 351.476C68.0583 350.828 65.0113 349.658 62.2172 348.013C58.363 345.713 56.2218 342.312 53.1996 339.143C52.5511 338.458 50.5812 336.145 49.8471 337.577C49.3577 338.531 51.1685 341.516 51.5723 342.153C52.8575 344.322 54.4621 346.285 56.3319 347.977C60.6633 351.758 66.4996 351.647 71.9811 351.855C72.0049 351.884 72.0217 351.917 72.03 351.953Z" fill="white"/>
<path d="M75.1256 356.125L74.9788 356.847C74.973 356.877 74.9599 356.905 74.9407 356.929C74.9214 356.952 74.8967 356.97 74.8686 356.982C74.8081 357.005 74.7413 357.005 74.6807 356.982C74.62 356.96 74.5695 356.916 74.5383 356.86C74.5264 356.835 74.5202 356.808 74.5202 356.78C74.5202 356.753 74.5264 356.725 74.5383 356.701C74.5383 356.701 74.5383 356.639 74.5383 356.603L74.6117 356.395C74.6117 356.395 74.6117 356.395 74.6117 356.321C73.5227 352.235 73.0945 347.977 71.9444 343.89C70.7942 339.803 69.4973 336.157 68.6775 332.168C68.1758 329.66 66.4262 317.045 71.9811 318.612C74.4282 319.321 76.1289 322.882 77.071 325.011C78.291 327.881 78.9832 330.949 79.1144 334.065C79.5059 341.749 76.6917 348.76 75.1256 356.125Z" fill="#455A64"/>
<path d="M76.9119 340.427C77.0214 337.545 76.7207 334.661 76.0188 331.863C75.7741 330.896 74.5627 326.259 72.9966 326.369C71.9811 326.43 71.7731 328.437 71.7731 329.097C71.4182 331.912 72.3237 334.775 72.8742 337.503C73.9595 343.058 74.6383 348.685 74.9053 354.339C74.9053 354.694 74.8074 355.061 74.7707 355.416C74.734 355.771 74.6851 356.003 74.6484 356.309V356.615C74.6484 356.688 74.6484 356.762 74.6484 356.847C74.6772 356.904 74.7249 356.948 74.783 356.972C74.8412 356.997 74.9061 357 74.9665 356.982C74.9665 356.75 75.0399 356.517 75.0644 356.285C75.0644 356.48 75.0644 356.664 75.0644 356.847L75.1745 356.26C75.1803 356.215 75.1803 356.17 75.1745 356.126C75.1745 355.807 75.1745 355.489 75.1745 355.183C76.0453 350.304 76.6255 345.376 76.9119 340.427ZM75.0277 353.152C74.8809 349.849 74.5505 346.557 74.0856 343.278C73.7063 340.635 73.2168 338.017 72.654 335.411C72.2947 333.944 72.0574 332.451 71.9444 330.945C71.9444 329.807 72.0667 325.549 74.2569 328.18C75.8352 330.101 76.2268 334.175 76.4103 336.512C76.6 339.121 76.5508 341.742 76.2635 344.343C75.9576 347.292 75.4682 350.228 75.0277 353.152Z" fill="white"/>
<path d="M78.4536 373.084C78.3804 373.092 78.3066 373.092 78.2334 373.084C72.5806 372.802 65.0436 373.329 60.3451 369.597C56.8825 366.832 53.4688 361.375 54.5578 356.75C55.7813 351.525 62.8656 357.79 64.7254 359.295C69.5882 363.521 74.2122 368.014 78.576 372.754L78.6494 372.864C78.7106 373.01 78.5882 373.059 78.4536 373.084Z" fill="#455A64"/>
<path d="M78.6497 372.925L77.6831 372.313C74.0125 369.964 70.3419 367.419 66.867 364.8C65.986 364.127 59.6236 358.462 58.657 360.481C58.0819 361.705 60.1864 364.152 60.8594 365.045C62.0631 366.552 63.5106 367.846 65.1418 368.875C68.9103 371.224 73.4864 371.738 77.7443 372.864L78.3439 373.01L78.454 373.084C78.5886 373.059 78.6987 373.01 78.6497 372.925ZM67.4788 369.707C65.6733 368.889 64.0187 367.772 62.5846 366.403C61.6424 365.51 58.2899 362.121 59.1831 360.738C59.6603 359.992 60.0518 360.396 60.945 360.836C61.3677 361.037 61.7765 361.266 62.1686 361.521C63.1229 362.145 63.9917 362.867 64.8726 363.565C66.4265 364.788 67.9926 366.012 69.6077 367.235C72.2261 369.144 74.9302 370.906 77.6954 372.668C74.2817 371.567 70.7089 371.114 67.4788 369.707Z" fill="white"/>
<path d="M88.768 361.448C87.2898 367.919 83.921 373.805 79.0897 378.357C79.059 378.387 79.021 378.408 78.9796 378.419C78.9254 378.435 78.8672 378.433 78.8141 378.413C78.7609 378.394 78.7159 378.357 78.686 378.308C78.6456 378.265 78.623 378.208 78.623 378.149C78.623 378.09 78.6456 378.033 78.686 377.99L78.9674 377.697C79.9095 370.013 80.9373 362.378 81.7204 354.67C81.9161 352.859 83.3355 341.308 86.8837 343.18C89.0739 344.343 89.2207 349.078 89.4042 351.207C89.7195 354.633 89.5049 358.087 88.768 361.448Z" fill="#455A64"/>
<path d="M86.7252 351.146C86.5416 350.497 86.199 349.837 85.5016 350.289C84.119 351.158 83.5684 356.59 83.3482 358.095C82.3938 364.287 80.9011 370.245 79.4328 376.314L79.0658 377.856L78.7109 378.308C78.7409 378.357 78.7859 378.394 78.839 378.414C78.8921 378.433 78.9503 378.435 79.0046 378.419C78.9993 378.366 78.9993 378.312 79.0046 378.26C79.1514 378.064 79.3227 377.856 79.4573 377.648C81.8783 374.326 83.7688 370.648 85.0611 366.746C85.8689 364.277 86.4183 361.73 86.7007 359.148C87.0066 356.762 87.4471 353.47 86.7252 351.146ZM79.4818 377.232L79.2738 377.538C79.3349 377.33 79.3961 377.134 79.4573 376.914C80.9172 372.296 82.0739 367.587 82.9199 362.818C83.3359 360.371 83.5929 357.924 84.1435 355.55C84.3637 354.535 84.8531 351.623 85.6974 351.158C86.5416 350.693 86.5294 351.819 86.615 352.467C86.7007 353.116 86.615 353.789 86.615 354.229C86.7281 362.458 84.2309 370.511 79.4818 377.232Z" fill="white"/>
<path d="M80.0319 394.924H78.9063C78.9063 393.933 78.9063 392.93 78.8328 391.951C78.6983 387.938 78.5392 383.912 78.2945 379.899C78.1599 377.611 78.0008 375.347 77.7684 373.096C77.763 373.019 77.763 372.941 77.7684 372.864C77.7684 372.68 77.7684 372.497 77.7684 372.313C77.7684 372.13 77.7684 371.909 77.6827 371.714C77.1722 366.622 75.8633 361.642 73.8041 356.958C73.0822 355.404 72.2991 353.874 71.4793 352.357L71.2346 351.929C71.2387 351.892 71.2387 351.855 71.2346 351.819C71.1612 351.66 71.0756 351.513 70.9899 351.366C70.9043 351.219 70.8553 351.146 70.7941 351.036C68.1758 346.435 65.1903 342.03 62.3517 337.577C61.536 336.304 60.7203 335.032 59.9046 333.759C59.8471 333.687 59.7978 333.609 59.7578 333.527L59.5742 333.245C56.0137 327.629 52.5144 321.952 48.807 316.434C48.6724 316.238 49.0028 316.054 49.1374 316.262C51.5845 319.933 54.2273 323.518 56.7845 327.14C57.1394 327.617 57.4697 328.106 57.8123 328.583C58.4975 329.538 59.1704 330.492 59.8312 331.447C61.1771 333.368 62.4985 335.276 63.7955 337.222C67.5983 342.619 71.0713 348.241 74.1956 354.058C74.4158 354.498 74.6238 354.939 74.8441 355.391C75.0643 355.844 75.1133 355.942 75.2234 356.223L75.6639 357.19C77.9651 362.856 79.2531 368.881 79.4691 374.993L79.5425 376.277C79.5425 376.461 79.5425 376.669 79.5425 376.865C79.536 376.971 79.536 377.077 79.5425 377.183C79.5425 377.317 79.5425 377.452 79.5425 377.599C79.5425 377.684 79.5425 377.795 79.5425 377.905C79.5425 378.259 79.5425 378.627 79.5425 379.006C79.7016 383.019 79.8117 387.032 79.8973 391.033C79.934 392.355 79.983 393.639 80.0319 394.924Z" fill="#455A64"/>
<path d="M46.2989 322.172C43.2156 318.012 39.2391 309.435 43.8519 304.969C44.6856 304.116 45.8021 303.597 46.9918 303.509C48.1814 303.421 49.3622 303.77 50.3122 304.492C52.7593 306.229 53.8115 309.521 54.5824 312.249C56.6746 319.529 58.0572 326.932 60.7001 334.077C60.7001 334.077 60.9203 334.689 60.9815 334.848C61.0427 335.007 60.798 335.056 60.7368 334.909L60.4798 334.212C55.4755 330.737 49.9696 327.14 46.2989 322.172Z" fill="#455A64"/>
<path d="M60.6267 334.126L60.5533 334.004C59.4793 332.269 58.5109 330.471 57.6535 328.62C55.9558 324.741 54.4971 320.761 53.2855 316.703C52.7838 315.149 50.5692 307.502 47.8284 310.585C46.6905 311.87 46.8496 314.133 47.0331 315.712C47.3408 318.232 48.1478 320.665 49.4068 322.87C51.8539 327.287 55.6714 330.627 59.6724 333.6L60.223 334.016L60.3331 334.212C60.3575 334.255 60.3862 334.296 60.4187 334.334C60.4409 334.346 60.4653 334.353 60.4905 334.355C60.5156 334.356 60.5407 334.352 60.5641 334.343C60.5874 334.333 60.6084 334.319 60.6256 334.301C60.6428 334.282 60.6557 334.26 60.6634 334.236C60.6602 334.197 60.6476 334.159 60.6267 334.126ZM59.4032 333.282C56.0758 330.829 53.1422 327.884 50.7038 324.546C49.4732 322.774 48.5163 320.827 47.8652 318.771C47.5819 317.852 47.3772 316.91 47.2534 315.957C47.1453 315.248 47.1043 314.531 47.131 313.815C47.131 312.237 47.8285 310.524 48.7583 310.365C49.9085 310.157 50.2878 310.818 51.0464 312.139C51.2976 312.586 51.5223 313.048 51.7193 313.522C52.1918 314.723 52.6003 315.948 52.9429 317.192C53.5914 319.211 54.2398 321.23 54.974 323.224C55.4511 324.57 55.9895 325.916 56.5523 327.225C57.5316 329.5 58.6681 331.704 59.9538 333.82L59.4032 333.282Z" fill="white"/>
<path d="M434.347 333.832C433.833 337.968 433.05 342.042 432.218 346.068C431.741 348.368 431.239 350.668 430.774 352.993C430.26 355.538 429.551 358.132 430.199 360.689C430.21 360.807 430.21 360.926 430.199 361.044C430.163 361.086 430.116 361.117 430.064 361.136C430.012 361.154 429.956 361.158 429.902 361.149C429.848 361.139 429.797 361.115 429.755 361.079C429.712 361.044 429.68 360.998 429.661 360.946C429.668 360.889 429.668 360.832 429.661 360.775V360.714C429.286 360.039 428.986 359.325 428.767 358.585C427.975 356.634 427.293 354.641 426.724 352.614C425.525 348.477 424.851 344.206 424.718 339.901C424.615 336.046 425.026 332.195 425.941 328.449C426.675 325.451 427.727 320.985 429.954 318.661C431.985 316.593 433.625 319.884 434.249 321.597C435.46 325.537 434.824 329.942 434.347 333.832Z" fill="#455A64"/>
<path d="M430.652 325.084C429.147 325.084 428.058 329.978 427.52 332.046C426.683 335.354 426.251 338.752 426.235 342.165C426.255 348.277 427.31 354.342 429.355 360.102C429.428 360.334 429.502 360.579 429.587 360.812C429.594 360.869 429.594 360.926 429.587 360.983C429.605 361.037 429.637 361.084 429.68 361.121C429.722 361.158 429.775 361.182 429.83 361.191C429.886 361.2 429.943 361.193 429.995 361.171C430.047 361.15 430.093 361.114 430.126 361.069C430.028 360.567 429.954 360.065 429.893 359.564C429.832 359.062 429.795 358.646 429.759 358.193C429.555 353.219 429.867 348.237 430.689 343.327C431.496 337.65 432.646 325.096 430.652 325.084ZM429.575 359.246C429.649 359.906 429.759 360.567 429.881 361.228C429.722 360.738 429.575 360.261 429.428 359.784C427.772 354.633 426.817 349.283 426.59 343.878C426.492 340.845 426.713 337.81 427.25 334.824C427.558 333.217 427.967 331.631 428.474 330.076C428.682 329.428 429.771 325.366 430.701 325.561C431.349 325.708 431.508 329.367 431.521 329.44C431.521 330.174 431.521 330.908 431.521 331.655C431.521 333.16 431.398 334.677 431.276 336.182C430.982 339.449 430.517 342.703 430.126 345.97C429.42 350.358 429.235 354.814 429.575 359.246Z" fill="white"/>
<path d="M458.022 345.224C455.269 350.607 450.62 354.731 445.787 358.267C443.217 360.163 440.55 361.937 437.932 363.76C435.505 365.273 433.234 367.024 431.153 368.985L430.896 369.266C430.36 369.859 429.888 370.507 429.489 371.2C429.489 371.261 429.416 371.285 429.367 371.285C429.318 371.285 429.306 371.444 429.269 371.518C429.232 371.591 429.159 371.518 429.171 371.518C429.183 371.518 429.171 371.334 429.171 371.248C429.15 371.218 429.139 371.182 429.139 371.145C429.139 371.107 429.15 371.071 429.171 371.041V370.955V370.686C429.954 364.397 434.359 358.034 438.078 353.189C441.798 348.344 446.399 344.061 452.149 341.834C453.593 341.284 456.872 339.754 458.353 340.929C459.833 342.104 458.61 344.086 458.022 345.224Z" fill="#455A64"/>
<path d="M453.764 345.248C452.443 343.939 448.589 347.181 447.647 347.94C444.76 350.289 442.086 352.889 439.657 355.71C435.503 360.063 432.059 365.042 429.453 370.466L429.318 370.637C429.313 370.726 429.313 370.816 429.318 370.906C429.314 370.934 429.314 370.963 429.318 370.992C429.293 371.021 429.279 371.057 429.279 371.096C429.279 371.134 429.293 371.171 429.318 371.2L429.502 370.979C429.979 370.392 430.493 369.817 431.006 369.254L431.263 368.973C435.019 365.205 439.011 361.682 443.217 358.426C446.097 356.098 448.755 353.51 451.158 350.693C451.684 349.971 454.866 346.349 453.764 345.248ZM452.541 348.136C449.286 353.544 443.646 357.484 438.849 361.424C435.549 364.005 432.505 366.898 429.758 370.062C432.297 365.232 435.47 360.764 439.192 356.774C441.231 354.435 443.396 352.209 445.677 350.106C446.909 348.957 448.226 347.901 449.617 346.949C450.447 346.369 451.342 345.889 452.284 345.517C454.119 344.979 453.104 347.206 452.553 348.136H452.541Z" fill="white"/>
<path d="M428.645 384.022C428.617 384.072 428.576 384.112 428.526 384.14C428.477 384.168 428.421 384.182 428.364 384.181L428.437 384.279C428.454 384.298 428.464 384.322 428.464 384.347C428.464 384.372 428.454 384.396 428.437 384.414C428.429 384.424 428.419 384.432 428.407 384.438C428.396 384.444 428.383 384.447 428.37 384.447C428.357 384.447 428.344 384.444 428.333 384.438C428.321 384.432 428.311 384.424 428.303 384.414C423.2 379.226 418.282 372.913 415.737 366.061C414.644 363.161 414.028 360.103 413.914 357.006C413.914 354.89 413.755 350.62 415.566 349.078C419.236 345.97 422.54 359.135 423.029 361.118C423.935 364.788 424.534 368.459 425.366 372.056C426.272 376.033 427.483 379.936 428.67 383.839C428.686 383.901 428.677 383.967 428.645 384.022Z" fill="#455A64"/>
<path d="M428.645 384.022C428.437 383.692 428.254 383.349 428.07 383.007C424.982 377.487 422.765 371.523 421.5 365.327C420.944 362.192 420.125 359.11 419.053 356.113C418.747 355.391 417.829 352.577 416.605 353.997C415.981 354.743 416.508 360.053 416.752 361.423C417.368 364.547 418.362 367.583 419.713 370.466C421.921 375.324 424.728 379.887 428.07 384.047L428.364 384.414C428.381 384.396 428.391 384.372 428.391 384.347C428.391 384.322 428.381 384.298 428.364 384.279C428.334 384.251 428.309 384.218 428.29 384.181C428.359 384.198 428.431 384.191 428.495 384.162C428.559 384.134 428.612 384.084 428.645 384.022ZM421.304 372.705C419.823 369.914 418.646 366.973 417.792 363.932C417.461 362.725 417.203 361.499 417.021 360.261C416.867 359.286 416.785 358.3 416.777 357.312C416.777 354.865 416.985 354.29 417.389 354.205C417.792 354.119 417.988 354.413 418.698 355.856C419.127 356.793 419.467 357.768 419.713 358.768C420.093 360.188 420.411 361.619 420.729 363.051C421.341 365.914 421.952 368.801 422.76 371.616C423.934 375.656 425.637 379.523 427.825 383.117C425.344 379.837 423.142 376.354 421.243 372.705H421.304Z" fill="white"/>
<path d="M445.004 371.408C444.407 373.939 443.267 376.31 441.664 378.357C438.629 382.542 434.763 386.029 431.447 389.981C430.958 390.568 430.48 391.205 430.015 391.792C430.015 391.853 429.575 392.734 429.587 392.661C429.599 392.587 429.648 392.306 429.758 391.743C430.285 388.966 432.022 380.609 434.2 376.326C435.496 373.618 437.119 371.078 439.033 368.765C439.975 367.7 442.177 365.412 443.829 365.914C445.481 366.416 445.261 370.074 445.004 371.408Z" fill="#455A64"/>
<path d="M442.373 369.707C440.599 368.606 436.035 376.767 435.423 377.819C433.124 381.722 431.347 385.909 430.138 390.275C429.991 390.752 429.868 391.241 429.746 391.743C429.624 392.245 429.562 392.636 429.562 392.661C429.562 392.685 429.954 391.865 430.003 391.78L430.235 391.462C430.627 390.96 431.031 390.458 431.459 389.981C433.441 387.008 435.484 384.071 437.405 381.049C438.812 378.894 440.039 376.627 441.076 374.271C441.321 373.732 443.083 370.184 442.373 369.707ZM441.871 372.007C439.351 379.104 434.2 384.708 430.272 391.009L430.089 391.315C430.089 391.131 430.187 390.935 430.248 390.752C431.308 387.175 432.7 383.705 434.408 380.388C435.462 378.375 436.635 376.427 437.919 374.552C438.578 373.494 439.306 372.48 440.097 371.518C440.464 371.114 441.517 370.049 441.871 370.233C442.226 370.417 441.969 371.542 441.81 372.007H441.871Z" fill="white"/>
<path d="M462.807 312.812C457.533 324.913 443.719 330.541 437.724 342.177C437.54 342.532 437.369 342.899 437.198 343.266C437.182 343.303 437.158 343.335 437.127 343.359C437.095 343.384 437.058 343.4 437.019 343.406C436.98 343.412 436.94 343.408 436.902 343.395C436.865 343.381 436.832 343.358 436.806 343.327C436.784 343.299 436.772 343.265 436.772 343.229C436.772 343.194 436.784 343.159 436.806 343.131C436.842 343.04 436.883 342.95 436.929 342.862C438.091 335.421 440.578 328.248 444.27 321.683C447.304 316.116 451.44 310.891 457.178 307.955C458.598 307.233 461.351 305.703 462.941 306.902C464.532 308.101 463.455 311.319 462.807 312.812Z" fill="#455A64"/>
<path d="M458.059 313.338C457.386 312.836 456.371 313.436 455.796 313.73C454.361 314.48 453.022 315.401 451.807 316.47C449.316 318.663 447.167 321.215 445.432 324.044C442.314 328.804 439.791 333.928 437.92 339.302C437.528 340.525 437.173 341.749 436.88 342.972C436.88 343.119 436.818 343.278 436.77 343.425C436.797 343.455 436.831 343.478 436.869 343.492C436.907 343.505 436.948 343.509 436.988 343.503C437.028 343.497 437.066 343.481 437.098 343.457C437.13 343.433 437.156 343.401 437.173 343.364C437.332 343.009 437.504 342.666 437.675 342.312V342.214C438.699 339.8 439.957 337.493 441.431 335.325C443.856 332.045 446.488 328.922 449.311 325.977C450.437 324.766 460.384 315.027 458.059 313.338ZM457.215 316.128C455.624 318.979 453.141 321.291 450.975 323.714C448.809 326.136 446.57 328.608 444.429 331.055C442.716 333.021 441.172 335.129 439.816 337.356C438.683 339.206 437.721 341.156 436.941 343.18C437.492 341.118 438.178 339.095 438.996 337.124V337.063C440.482 333.564 442.19 330.163 444.111 326.883L444.172 326.76C445.779 323.824 447.734 321.092 449.996 318.624C451.245 317.301 452.636 316.119 454.144 315.1C455.881 313.974 457.399 313.252 457.815 313.803C458.231 314.354 457.692 315.296 457.215 316.128Z" fill="white"/>
<path d="M444.417 326.993C442.826 330.407 441.321 333.857 439.816 337.332C439.119 338.959 438.409 340.587 437.724 342.226V342.324C437.479 342.911 437.222 343.548 436.965 344.086C434.69 349.396 432.181 354.829 430.786 360.457C430.1 363.443 429.69 366.486 429.563 369.548C429.563 369.854 429.563 370.172 429.563 370.49C429.563 370.661 429.563 370.833 429.563 371.004C429.557 371.102 429.557 371.2 429.563 371.298C429.477 373.953 429.563 376.608 429.563 379.202C429.624 382.811 429.93 386.396 430.273 389.969C430.261 390.075 430.261 390.181 430.273 390.287C430.273 390.446 430.273 390.605 430.273 390.764C430.273 390.923 430.273 390.935 430.273 391.021V391.474C430.395 392.624 430.493 393.774 430.591 394.937H429.489C428.786 391.421 428.34 387.86 428.156 384.279C428.149 384.206 428.149 384.132 428.156 384.059C428.156 383.717 428.156 383.362 428.156 383.019C428.156 382.677 428.156 382.163 428.095 381.734C428.095 380.707 428.033 379.679 428.009 378.663C427.712 372.689 428.123 366.701 429.233 360.824C429.233 360.665 429.318 360.506 429.355 360.347C429.349 360.278 429.349 360.208 429.355 360.139C429.355 360.029 429.355 359.919 429.428 359.796L429.575 359.258C429.661 358.928 429.759 358.597 429.844 358.279L429.93 357.998C431.628 352.968 433.673 348.062 436.048 343.315C436.451 342.434 436.843 341.578 437.271 340.721C437.504 340.232 437.736 339.755 437.956 339.277L439.033 337.112V337.051C440.722 333.649 442.471 330.284 444.148 326.871C444.221 326.712 444.49 326.834 444.417 326.993Z" fill="#455A64"/>
<path d="M0 394.594L62.8781 394.3L125.756 394.19L251.5 393.982L377.244 394.19L440.122 394.288L503 394.594L440.122 394.9L377.244 394.998L251.5 395.206L125.756 394.998L62.8781 394.887L0 394.594Z" fill="#263238"/>
<path d="M358.291 0.575073H144.685C141.82 0.602259 138.988 1.1935 136.352 2.31504C133.715 3.43658 131.326 5.06645 129.319 7.11158C127.313 9.15671 125.729 11.577 124.657 14.2344C123.586 16.8917 123.049 19.734 123.077 22.5989V462.342C123.025 468.127 125.271 473.696 129.323 477.825C133.374 481.955 138.9 484.307 144.685 484.365H358.291C364.08 484.311 369.609 481.96 373.665 477.83C377.722 473.701 379.973 468.13 379.924 462.342V22.5867C379.973 16.7996 377.721 11.2299 373.665 7.10221C369.608 2.97454 364.078 0.626771 358.291 0.575073ZM366.416 448.748C366.416 460.323 357.753 469.683 347.059 469.683H155.953C145.235 469.683 136.572 460.323 136.572 448.748V39.2514C136.572 15.6736 145.235 14.5235 155.953 14.5235H194.226C196.453 14.5235 198.276 17.0563 198.276 20.1885V21.5467C198.276 28.8879 202.289 28.8879 207.232 28.8879H295.756C300.736 28.8879 304.712 28.8879 304.712 21.5467V20.1885C304.712 17.0563 306.511 14.5235 308.774 14.5235H347.059C357.753 14.5235 366.416 17.668 366.416 39.2514V448.748Z" fill="#263238"/>
<path d="M263.564 19.7358H239.424C239.227 19.7375 239.033 19.7 238.851 19.6255C238.669 19.5511 238.504 19.4412 238.365 19.3022C238.226 19.1633 238.116 18.9981 238.042 18.8163C237.967 18.6344 237.93 18.4396 237.931 18.2431C237.931 17.8472 238.088 17.4675 238.368 17.1876C238.648 16.9076 239.028 16.7504 239.424 16.7504H263.564C263.96 16.7504 264.34 16.9076 264.62 17.1876C264.9 17.4675 265.057 17.8472 265.057 18.2431C265.059 18.4396 265.021 18.6344 264.947 18.8163C264.872 18.9981 264.763 19.1633 264.624 19.3022C264.485 19.4412 264.32 19.5511 264.138 19.6255C263.956 19.7 263.761 19.7375 263.564 19.7358Z" fill="white"/>
<path d="M366.428 39.2514V448.748C366.428 460.323 357.753 469.683 347.059 469.683H155.953C145.235 469.683 136.572 460.323 136.572 448.748V39.2514C136.572 15.6737 145.235 14.5236 155.953 14.5236H194.226C196.453 14.5236 198.276 17.0563 198.276 20.1886V21.5467C198.276 28.888 202.289 28.888 207.232 28.888H295.756C300.736 28.888 304.724 28.888 304.724 21.5467V20.1886C304.724 17.0563 306.511 14.5236 308.774 14.5236H347.059C357.753 14.5236 366.428 17.6681 366.428 39.2514Z" fill="white"/>
<path d="M366.416 39.2514V47.9998H136.56V39.2514C136.56 15.6737 145.235 14.5236 155.953 14.5236H194.238C196.465 14.5236 198.276 17.0563 198.276 20.1886V21.5467C198.276 28.888 202.301 28.888 207.232 28.888H295.756C300.736 28.888 304.724 28.888 304.724 21.5467V20.1886C304.724 17.0563 306.523 14.5236 308.786 14.5236H347.059C357.753 14.5236 366.416 17.6681 366.416 39.2514Z" fill="#FFC727"/>
<path d="M187.631 23.7246L187.252 24.0917C187.189 24.167 187.119 24.2366 187.044 24.2997C186.099 23.3549 184.819 22.8226 183.483 22.8192C182.818 22.8154 182.159 22.9457 181.545 23.2021C180.931 23.4586 180.375 23.836 179.91 24.3119C179.852 24.2368 179.786 24.1672 179.715 24.1039L179.348 23.7368C179.494 23.59 179.654 23.4554 179.813 23.3208C180.144 23.0478 180.505 22.8138 180.889 22.6234C181.341 22.3973 181.824 22.2367 182.321 22.1462C182.566 22.1462 182.798 22.085 183.043 22.0483H183.667H184.156C184.608 22.0991 185.052 22.206 185.478 22.3665C185.782 22.4802 186.077 22.6193 186.359 22.7825C186.664 22.9526 186.951 23.1535 187.215 23.382L187.607 23.7246H187.631Z" fill="white"/>
<path d="M181.085 25.462L180.535 24.8502C180.925 24.4588 181.388 24.1483 181.898 23.9363C182.408 23.7244 182.955 23.6154 183.508 23.6154C184.06 23.6154 184.607 23.7244 185.118 23.9363C185.628 24.1483 186.091 24.4588 186.481 24.8502L185.894 25.4375C185.574 25.1153 185.193 24.8613 184.772 24.691C184.351 24.5206 183.9 24.4374 183.447 24.4465C182.557 24.4631 181.709 24.8276 181.085 25.462Z" fill="white"/>
<path d="M185.294 26.0738L184.707 26.6488C184.38 26.328 183.941 26.1479 183.483 26.1472C183.255 26.1457 183.029 26.1906 182.819 26.2789C182.609 26.3672 182.418 26.4972 182.26 26.6611L181.672 26.0738C181.91 25.8355 182.192 25.6465 182.503 25.5175C182.814 25.3885 183.147 25.3221 183.483 25.3221C183.82 25.3221 184.153 25.3885 184.464 25.5175C184.774 25.6465 185.057 25.8355 185.294 26.0738Z" fill="white"/>
<path d="M184.009 27.1627C184.009 27.3023 183.954 27.4361 183.855 27.5347C183.757 27.6334 183.623 27.6888 183.483 27.6888C183.344 27.6888 183.21 27.6334 183.111 27.5347C183.012 27.4361 182.957 27.3023 182.957 27.1627C182.957 27.0232 183.012 26.8894 183.111 26.7907C183.21 26.692 183.344 26.6366 183.483 26.6366C183.623 26.6366 183.757 26.692 183.855 26.7907C183.954 26.8894 184.009 27.0232 184.009 27.1627Z" fill="white"/>
<path d="M153.078 26.3552C153.916 26.3552 154.595 25.6759 154.595 24.838C154.595 24.0001 153.916 23.3208 153.078 23.3208C152.24 23.3208 151.561 24.0001 151.561 24.838C151.561 25.6759 152.24 26.3552 153.078 26.3552Z" fill="white"/>
<path d="M156.357 24.8502C156.357 24.5472 156.447 24.251 156.616 23.9992C156.784 23.7474 157.024 23.5514 157.304 23.436C157.584 23.3206 157.892 23.2911 158.189 23.3511C158.486 23.4111 158.759 23.558 158.972 23.7731C159.186 23.9882 159.33 24.2619 159.388 24.5594C159.446 24.8569 159.413 25.1648 159.296 25.444C159.178 25.7232 158.98 25.9613 158.727 26.1278C158.474 26.2944 158.177 26.382 157.874 26.3796C157.471 26.3764 157.085 26.2138 156.801 25.9273C156.516 25.6409 156.357 25.2537 156.357 24.8502Z" fill="white"/>
<path d="M162.683 26.3552C163.521 26.3552 164.2 25.6759 164.2 24.838C164.2 24.0001 163.521 23.3208 162.683 23.3208C161.845 23.3208 161.166 24.0001 161.166 24.838C161.166 25.6759 161.845 26.3552 162.683 26.3552Z" fill="white"/>
<path d="M165.95 24.8502C165.95 24.5477 166.039 24.252 166.207 24.0005C166.376 23.749 166.614 23.553 166.894 23.4372C167.173 23.3215 167.481 23.2912 167.778 23.3502C168.074 23.4092 168.347 23.5549 168.561 23.7688C168.775 23.9827 168.92 24.2552 168.979 24.5519C169.038 24.8485 169.008 25.1561 168.892 25.4355C168.776 25.715 168.58 25.9539 168.329 26.1219C168.077 26.29 167.782 26.3797 167.479 26.3797C167.074 26.3797 166.684 26.2185 166.398 25.9317C166.111 25.6449 165.95 25.2559 165.95 24.8502Z" fill="white"/>
<path d="M170.746 24.8502C170.746 24.5477 170.836 24.252 171.004 24.0005C171.172 23.749 171.411 23.553 171.69 23.4372C171.97 23.3215 172.277 23.2912 172.574 23.3502C172.871 23.4092 173.143 23.5549 173.357 23.7688C173.571 23.9827 173.717 24.2552 173.776 24.5519C173.835 24.8485 173.804 25.1561 173.689 25.4355C173.573 25.715 173.377 25.9539 173.125 26.1219C172.874 26.29 172.578 26.3797 172.276 26.3797C171.87 26.3797 171.481 26.2185 171.194 25.9317C170.907 25.6449 170.746 25.2559 170.746 24.8502Z" fill="white"/>
<path d="M349.164 28.1539H336.781V22.4032H349.164V28.1539ZM337.393 27.5421H348.552V23.0517H337.393V27.5421Z" fill="white"/>
<path d="M345.799 23.3942H337.809V27.1872H345.799V23.3942Z" fill="white"/>
<path d="M350.289 23.7612H349.188V26.8323H350.289V23.7612Z" fill="white"/>
<path d="M171.492 425.941H169.755V433.968H166.488V429.881H160.701V433.968H157.434V425.941H155.684L163.588 417.768L171.492 425.941Z" fill="#EBEBEB"/>
<path d="M347.328 417.768H328.278V420.496H347.328V417.768Z" fill="#EBEBEB"/>
<path d="M347.328 424.51H328.278V427.238H347.328V424.51Z" fill="#EBEBEB"/>
<path d="M347.328 431.239H328.278V433.967H347.328V431.239Z" fill="#EBEBEB"/>
<path d="M171.125 91.2888C169.992 91.9986 168.753 92.5231 167.455 92.8427C164.32 93.625 161.005 93.1961 158.173 91.6418C155.34 90.0875 153.198 87.522 152.174 84.4575C151.15 81.3931 151.319 78.0551 152.648 75.1101C153.977 72.1651 156.368 69.8296 159.344 68.57C162.319 67.3105 165.66 67.2194 168.7 68.315C171.739 69.4107 174.254 71.6124 175.741 74.4807C177.229 77.349 177.58 80.6727 176.724 83.7884C175.868 86.9041 173.869 89.5825 171.125 91.2888Z" fill="#DBDBDB"/>
<path d="M168.299 78.9188C168.299 79.6902 168.07 80.4443 167.642 81.0859C167.214 81.7275 166.605 82.2278 165.892 82.5236C165.18 82.8194 164.396 82.8974 163.639 82.7477C162.882 82.5981 162.187 82.2276 161.64 81.683C161.094 81.1383 160.721 80.444 160.569 79.6877C160.417 78.9314 160.493 78.147 160.786 77.4336C161.08 76.7201 161.578 76.1097 162.218 75.6794C162.859 75.249 163.612 75.0181 164.384 75.0156C164.897 75.014 165.406 75.1138 165.881 75.3092C166.356 75.5047 166.788 75.7919 167.151 76.1545C167.515 76.5171 167.804 76.9479 168.001 77.4223C168.198 77.8966 168.299 78.4052 168.299 78.9188Z" fill="white"/>
<path d="M171.126 89.6983V91.3011C169.992 92.0109 168.753 92.5354 167.455 92.855C165.802 93.2612 164.085 93.3329 162.404 93.0661C160.723 92.7992 159.112 92.1992 157.667 91.3011V89.6983C157.611 88.7804 157.744 87.8609 158.057 86.9963C158.37 86.1318 158.857 85.3404 159.487 84.6709C160.118 84.0014 160.878 83.4679 161.723 83.1033C162.567 82.7386 163.477 82.5505 164.396 82.5505C165.316 82.5505 166.225 82.7386 167.07 83.1033C167.914 83.4679 168.674 84.0014 169.305 84.6709C169.935 85.3404 170.422 86.1318 170.735 86.9963C171.048 87.8609 171.181 88.7804 171.126 89.6983Z" fill="white"/>
<path d="M274.809 68.2983H193.284V75.0156H274.809V68.2983Z" fill="#EBEBEB"/>
<path d="M264.445 79.5061H193.284V83.9598H264.445V79.5061Z" fill="#EBEBEB"/>
<path d="M310.94 88.0831H193.284V92.5368H310.94V88.0831Z" fill="#EBEBEB"/>
<path d="M136.572 264.776H366.391V103.842L136.572 103.842L136.572 264.776Z" fill="#EBEBEB"/>
<path d="M163.405 149.579C163.405 153.344 164.521 157.025 166.613 160.156C168.705 163.287 171.679 165.727 175.157 167.168C178.636 168.609 182.464 168.986 186.157 168.251C189.85 167.517 193.243 165.703 195.905 163.041C198.568 160.378 200.381 156.986 201.116 153.293C201.85 149.6 201.473 145.772 200.032 142.293C198.591 138.814 196.151 135.841 193.02 133.749C189.889 131.657 186.209 130.54 182.443 130.54C177.395 130.544 172.554 132.55 168.985 136.12C165.415 139.69 163.408 144.53 163.405 149.579Z" fill="#DBDBDB"/>
<path d="M238.616 229.758H366.428L302.522 143.143L238.616 229.758Z" fill="#C7C7C7"/>
<path d="M188.524 230.174H294.031L241.284 173.768L188.524 230.174Z" fill="#DBDBDB"/>
<path d="M366.391 230.1H136.572V264.776H366.391V230.1Z" fill="#DBDBDB"/>
<path d="M171.125 349.641C169.989 350.341 168.751 350.862 167.455 351.182C164.327 351.953 161.023 351.515 158.204 349.957C155.384 348.398 153.256 345.834 152.244 342.776C151.232 339.717 151.411 336.39 152.744 333.457C154.078 330.525 156.468 328.203 159.439 326.956C162.409 325.708 165.74 325.627 168.768 326.727C171.795 327.828 174.296 330.03 175.772 332.894C177.247 335.758 177.588 339.073 176.727 342.177C175.866 345.281 173.865 347.946 171.125 349.641Z" fill="#DBDBDB"/>
<path d="M168.299 337.258C168.299 338.03 168.07 338.785 167.641 339.427C167.212 340.069 166.603 340.569 165.889 340.864C165.176 341.16 164.391 341.237 163.634 341.087C162.877 340.936 162.182 340.564 161.636 340.018C161.09 339.472 160.718 338.777 160.568 338.02C160.417 337.263 160.494 336.478 160.79 335.765C161.085 335.052 161.585 334.442 162.227 334.013C162.869 333.584 163.624 333.355 164.396 333.355C165.431 333.355 166.424 333.767 167.156 334.499C167.888 335.231 168.299 336.223 168.299 337.258Z" fill="white"/>
<path d="M171.126 348.026V349.641C169.989 350.342 168.751 350.862 167.455 351.182C165.802 351.591 164.085 351.665 162.403 351.398C160.722 351.131 159.111 350.529 157.667 349.629V348.026C157.611 347.108 157.744 346.188 158.057 345.324C158.37 344.459 158.857 343.668 159.487 342.998C160.118 342.329 160.878 341.795 161.723 341.431C162.567 341.066 163.477 340.878 164.396 340.878C165.316 340.878 166.225 341.066 167.07 341.431C167.914 341.795 168.674 342.329 169.305 342.998C169.935 343.668 170.422 344.459 170.735 345.324C171.048 346.188 171.181 347.108 171.126 348.026Z" fill="white"/>
<path d="M298.129 326.638H193.284V333.355H298.129V326.638Z" fill="#EBEBEB"/>
<path d="M327.127 337.846H193.284V342.299H327.127V337.846Z" fill="#EBEBEB"/>
<path d="M238.873 346.423H193.284V350.877H238.873V346.423Z" fill="#EBEBEB"/>
<path d="M366.391 362.182H136.572V401.495H366.391V362.182Z" fill="#EBEBEB"/>
<path d="M200.38 401.495H164.555C165.877 397.802 168.307 394.609 171.513 392.351C174.72 390.093 178.546 388.882 182.467 388.882C186.389 388.882 190.215 390.093 193.421 392.351C196.628 394.609 199.058 397.802 200.38 401.495Z" fill="#DBDBDB"/>
<path d="M152.014 283.63C151.657 282.168 151.742 280.632 152.258 279.218C152.774 277.803 153.698 276.574 154.913 275.685C156.128 274.795 157.58 274.287 159.084 274.223C160.588 274.159 162.077 274.542 163.364 275.325C164.65 276.108 165.675 277.254 166.309 278.62C166.944 279.985 167.159 281.508 166.927 282.996C166.696 284.483 166.029 285.869 165.01 286.977C163.991 288.086 162.666 288.867 161.203 289.222C160.232 289.459 159.224 289.503 158.237 289.35C157.25 289.197 156.302 288.851 155.448 288.332C154.595 287.813 153.852 287.13 153.263 286.323C152.674 285.516 152.249 284.601 152.014 283.63Z" fill="#EBEBEB"/>
<path fill-rule="evenodd" clip-rule="evenodd" d="M158.364 284.854C158.168 284.732 157.985 284.548 157.715 284.572C157.446 284.597 157.642 284.499 157.642 284.438V281.403C157.635 281.368 157.639 281.331 157.655 281.298C157.67 281.265 157.696 281.237 157.728 281.22C158.498 280.828 158.829 280.07 159.306 279.409C159.549 279.083 159.724 278.711 159.821 278.316C159.918 277.921 159.934 277.51 159.869 277.109C159.869 276.889 159.942 276.778 160.15 276.73C160.253 276.696 160.364 276.695 160.468 276.728C160.571 276.761 160.661 276.826 160.725 276.913C160.948 277.329 161.097 277.78 161.166 278.247C161.163 278.63 161.118 279.011 161.031 279.385C161.031 279.666 160.921 279.935 160.872 280.217C160.946 280.217 161.019 280.217 161.092 280.217H163.662C164.017 280.217 164.2 280.327 164.249 280.559C164.277 280.708 164.255 280.862 164.187 280.997C164.118 281.132 164.007 281.241 163.87 281.306C163.87 281.306 163.699 281.306 163.686 281.403C163.674 281.501 163.796 281.501 163.858 281.538C164.163 281.758 164.115 282.187 163.747 282.443C163.662 282.505 163.503 282.443 163.491 282.603C163.478 282.762 163.65 282.7 163.723 282.774C163.779 282.845 163.817 282.929 163.834 283.018C163.851 283.107 163.847 283.199 163.822 283.286C163.797 283.373 163.751 283.453 163.69 283.519C163.628 283.585 163.551 283.636 163.466 283.667L163.319 283.728C163.319 283.728 163.234 283.728 163.319 283.851C163.401 283.893 163.471 283.957 163.519 284.035C163.567 284.114 163.592 284.205 163.592 284.297C163.592 284.39 163.567 284.48 163.519 284.559C163.471 284.638 163.401 284.702 163.319 284.744L163.209 284.829C163.073 284.911 162.914 284.945 162.756 284.927H158.731C158.668 284.941 158.603 284.942 158.54 284.929C158.477 284.917 158.417 284.891 158.364 284.854Z" fill="white"/>
<path fill-rule="evenodd" clip-rule="evenodd" d="M154.546 283.019V281.085C154.546 280.951 154.546 280.89 154.718 280.89H157.079C157.226 280.89 157.25 280.951 157.25 281.085V284.964C157.25 285.135 157.25 285.184 157.042 285.184H154.754C154.571 285.184 154.546 285.111 154.546 284.952C154.559 284.352 154.546 283.716 154.546 283.019Z" fill="white"/>
<path d="M167.993 283.63C167.636 282.168 167.721 280.632 168.237 279.218C168.754 277.803 169.678 276.574 170.893 275.685C172.108 274.795 173.559 274.287 175.063 274.223C176.567 274.159 178.057 274.542 179.343 275.325C180.629 276.108 181.654 277.254 182.289 278.62C182.923 279.985 183.138 281.508 182.907 282.996C182.676 284.483 182.008 285.869 180.989 286.977C179.97 288.086 178.645 288.867 177.182 289.222C176.212 289.459 175.204 289.503 174.216 289.35C173.229 289.197 172.281 288.851 171.428 288.332C170.574 287.813 169.832 287.13 169.242 286.323C168.653 285.516 168.229 284.601 167.993 283.63Z" fill="#FFC727"/>
<path d="M179.311 282.774C178.386 284.336 177.043 285.607 175.432 286.445C173.817 285.61 172.469 284.338 171.541 282.774C170.587 280.841 171.199 278.761 172.704 278.296C174.869 277.647 175.432 281.416 175.432 281.416C175.432 281.416 175.983 277.647 178.149 278.296C179.617 278.761 180.216 280.841 179.311 282.774Z" fill="white"/>
<path d="M302.522 280.828H194.544V285.221H302.522V280.828Z" fill="#EBEBEB"/>
<path d="M136.572 307.061L165.301 306.841L194.03 306.755L251.488 306.596L308.933 306.755L337.662 306.829L366.391 307.061L337.662 307.281L308.933 307.367L251.488 307.514L194.03 307.367L165.301 307.281L136.572 307.061Z" fill="#EBEBEB"/>
<path d="M55.9648 161.716H310.56V50.618H55.9648V161.716Z" fill="#455A64"/>
<path d="M343.327 161.716H310.561V127.591L343.327 161.716Z" fill="#455A64"/>
<path d="M290.298 69.8278H76.2388V71.9445H290.298V69.8278Z" fill="white"/>
<path d="M225.279 81.219H76.2388V83.3357H225.279V81.219Z" fill="white"/>
<path d="M264.543 104.026H76.2388V106.143H264.543V104.026Z" fill="white"/>
<path d="M290.298 115.429H76.2388V117.546H290.298V115.429Z" fill="white"/>
<path d="M290.298 126.821H76.2388V128.937H290.298V126.821Z" fill="white"/>
<path d="M203.524 138.224H76.2388V140.341H203.524V138.224Z" fill="white"/>
<path d="M55.9648 424.877H310.56V349.225H55.9648V424.877Z" fill="#FFC727"/>
<path d="M343.327 424.877H310.561V390.764L343.327 424.877Z" fill="#FFC727"/>
<path d="M264.543 367.198H76.2388V369.315H264.543V367.198Z" fill="white"/>
<path d="M290.298 378.59H76.2388V380.707H290.298V378.59Z" fill="white"/>
<path d="M290.298 389.993H76.2388V392.11H290.298V389.993Z" fill="white"/>
<path d="M203.524 401.397H76.2388V403.513H203.524V401.397Z" fill="white"/>
<path d="M447.035 185.404H192.439V283.386H447.035V185.404Z" fill="#DBDBDB"/>
<path d="M159.673 283.386H192.439V249.261L159.673 283.386Z" fill="#DBDBDB"/>
<path d="M409.753 236.561H213.117V238.677H409.753V236.561Z" fill="white"/>
<path d="M385.662 247.964H213.117V250.081H385.662V247.964Z" fill="white"/>
<path d="M392.685 213.754H213.117V215.87H392.685V213.754Z" fill="white"/>
<path d="M423.286 202.362H213.117V204.479H423.286V202.362Z" fill="white"/>
<path d="M395.316 259.355H213.117V261.472H395.316V259.355Z" fill="white"/>
<path d="M396.441 90.1631C404.284 87.7772 408.383 82.4915 408.028 74.9912C403.134 73.6208 398.313 69.5341 398.313 63.3919V62.0338C398.255 60.5022 398.517 58.9753 399.082 57.5507C399.648 56.1261 400.504 54.8353 401.597 53.7607C402.69 52.6862 403.995 51.8517 405.429 51.3105C406.863 50.7694 408.395 50.5335 409.925 50.6181C417.413 50.6181 422.16 56.4055 422.16 65.6065V67.3195C422.16 78.9065 419.101 86.8963 413.596 92.2065C409.154 96.807 402.51 99.5477 397.555 99.5477C393.982 99.5477 392.281 97.5044 392.281 94.7759C392.355 92.3777 394.055 90.8361 396.441 90.1631ZM356.896 90.1631C364.739 87.7772 368.826 82.4915 368.483 74.9912C363.589 73.6208 358.768 69.5341 358.768 63.3919V62.0338C358.71 60.5044 358.971 58.9796 359.535 57.5568C360.099 56.134 360.954 54.8443 362.044 53.7702C363.134 52.696 364.436 51.861 365.867 51.3182C367.299 50.7755 368.827 50.5371 370.355 50.6181C377.868 50.6181 382.591 56.4055 382.591 65.6065V67.3195C382.591 78.9065 379.52 86.8963 374.234 92.2065C369.621 96.807 362.977 99.5477 358.206 99.5477C354.621 99.5477 352.749 97.5044 352.749 94.7759C352.797 92.3777 354.498 90.8361 356.896 90.1631Z" fill="#455A64"/>
<path d="M194.189 336.855L194.25 337.075C194.752 339.008 198.41 353.372 203.219 372.337C203.574 373.708 203.941 375.103 204.308 376.534C212.322 408.065 223.016 450.045 228.069 469.94H238.971C238.971 470.172 238.971 470.417 238.971 470.649C238.983 470.413 238.983 470.176 238.971 469.94H318.917C310.683 437.883 289.809 353.948 286.114 339.118C286.041 338.825 285.967 338.543 285.918 338.311L285.551 336.855H194.189Z" fill="#AD6359"/>
<path d="M194.189 336.855L194.25 337.075L202.558 373.561L203.549 377.892L224.582 469.976H238.946C238.946 470.209 238.946 470.454 238.946 470.686C238.958 470.45 238.958 470.213 238.946 469.976H319.382L286.126 339.155L285.931 338.347L285.563 336.891L194.189 336.855Z" fill="#263238"/>
<path d="M285.6 337.038L250.607 469.976H238.983C238.995 470.094 238.995 470.213 238.983 470.331C238.989 470.213 238.989 470.095 238.983 469.976H224.582L203.549 377.929L202.558 373.561L194.226 337.075L194.165 336.855H285.539L285.6 337.038Z" fill="#37474F"/>
<path d="M282.602 336.855C282.602 336.916 282.602 337.075 282.602 337.32C282.602 337.564 282.602 338.139 282.505 338.763C282.431 339.681 282.346 340.917 282.211 342.434C282.203 342.466 282.203 342.5 282.211 342.532C282.154 343.299 282.08 344.143 281.991 345.065C281.844 346.606 281.685 348.319 281.501 350.204C281.44 350.828 281.367 351.488 281.293 352.161C281.286 352.259 281.286 352.357 281.293 352.455C281.293 352.846 281.195 353.238 281.159 353.678C281.122 354.119 281.036 354.755 280.963 355.306C280.889 355.856 280.816 356.652 280.73 357.337C280.571 358.707 280.4 360.127 280.229 361.57L280.045 362.977C279.788 364.996 279.495 367.064 279.201 369.193C279.066 370.111 278.92 371.028 278.797 371.958C278.675 372.888 278.467 374.05 278.308 375.103C278.308 375.482 278.198 375.874 278.137 376.253C277.513 380.132 276.815 384.169 276.032 388.244C275.922 388.868 275.787 389.467 275.653 390.067C275.335 391.706 275.004 393.346 274.649 394.961C274.478 395.805 274.282 396.662 274.099 397.506C273.915 398.35 273.793 398.937 273.609 399.647C272.802 403.22 271.909 406.78 270.93 410.267C270.722 411.026 270.502 411.785 270.294 412.543C270.086 413.302 269.816 414.183 269.572 414.99C269.229 416.214 268.874 417.376 268.495 418.539C268.116 419.701 267.846 420.509 267.516 421.475C267.418 421.793 267.296 422.111 267.186 422.417C267.076 422.723 266.978 423.029 266.855 423.335L266.733 423.396L266.439 423.494L266.121 423.616C266.004 423.653 265.889 423.698 265.779 423.751C265.167 423.983 264.274 424.326 263.136 424.815L261.998 425.293C261.374 425.574 260.677 425.855 259.93 426.21L258.951 426.663L258.743 426.761L257.813 427.201L255.795 428.168C254.4 428.853 252.883 429.612 251.267 430.456C250.46 430.86 249.628 431.3 248.82 431.765L247.499 432.487C246.177 433.209 244.795 433.992 243.351 434.824L242.385 435.399C242.385 435.399 242.385 435.399 242.311 435.399H242.238L241.198 435.999L240.427 436.451C240.427 436.451 240.427 436.635 240.427 436.977C240.414 437.095 240.414 437.214 240.427 437.332C240.42 437.459 240.42 437.585 240.427 437.712C240.427 438.042 240.427 438.458 240.427 438.935C240.427 439.412 240.427 439.522 240.427 439.865C240.427 440.391 240.427 440.954 240.353 441.59C240.353 441.774 240.353 441.97 240.353 442.153C240.347 442.275 240.347 442.398 240.353 442.52C240.353 442.997 240.353 443.511 240.353 444.05C240.353 444.172 240.353 444.294 240.353 444.417C240.353 444.539 240.353 444.845 240.353 445.053V445.236C240.353 445.432 240.353 445.64 240.353 445.848C240.353 446.313 240.353 446.79 240.353 447.292C240.353 448.344 240.268 449.433 240.219 450.596C240.219 450.877 240.219 451.158 240.219 451.428C240.219 452.088 240.219 452.749 240.219 453.434C240.219 454.119 240.219 454.743 240.133 455.416C240.048 456.089 240.133 456.542 240.06 457.105C239.986 457.668 240.06 457.949 240.06 458.328C240.06 458.989 240.06 459.638 239.974 460.311C239.901 462.097 239.827 463.896 239.766 465.682C239.766 467.028 239.668 468.41 239.607 469.83H147.743C148.012 466.298 148.286 462.766 148.563 459.234C148.869 455.294 149.175 451.366 149.444 447.476C149.456 447.243 149.456 447.01 149.444 446.778C150.667 431.569 151.769 416.862 152.821 403.403C153.212 398.281 153.596 393.358 153.971 388.635C153.971 387.84 154.081 387.045 154.155 386.249C154.314 384.12 154.497 382.016 154.644 379.96C154.925 376.473 155.195 373.145 155.427 370.013C155.5 369.132 155.574 368.251 155.647 367.407C156.124 361.215 156.553 355.771 156.871 351.244C156.871 350.399 156.993 349.58 157.042 348.796C157.666 341.113 158.009 336.732 158.009 336.732H212.934L282.602 336.855Z" fill="#AD6359"/>
<path d="M143.522 469.976H238.959C238.959 468.618 239.069 467.224 239.13 465.829C239.13 464.042 239.264 462.244 239.338 460.457C239.448 457.386 239.57 454.34 239.68 451.525C239.68 451.256 239.68 450.975 239.68 450.693C239.754 448.772 239.815 446.962 239.888 445.334V445.151C239.888 444.245 239.925 443.401 239.999 442.618C239.992 442.496 239.992 442.373 239.999 442.251C239.999 441.027 240.084 439.902 240.133 439.033C240.133 438.58 240.133 438.164 240.133 437.809C240.126 437.683 240.126 437.557 240.133 437.43C240.12 437.312 240.12 437.193 240.133 437.075C240.133 436.733 240.133 436.549 240.133 436.549L240.904 436.096L241.944 435.497L243.057 434.861C244.501 434.029 245.884 433.246 247.205 432.524C248.527 431.802 249.811 431.117 251.023 430.493C252.638 429.648 254.155 428.89 255.55 428.205L257.569 427.238L258.499 426.798L258.707 426.712L259.685 426.271L261.753 425.354L262.891 424.877C264.029 424.387 264.922 424.045 265.534 423.812C265.645 423.759 265.759 423.714 265.877 423.677L266.195 423.555L266.488 423.457L266.611 423.396C266.733 423.09 266.831 422.784 266.941 422.478C267.051 422.173 267.186 421.842 267.284 421.512C267.626 420.557 267.944 419.579 268.25 418.6C268.63 417.376 268.984 416.251 269.327 415.051C269.572 414.256 269.804 413.436 270.049 412.604C270.294 411.772 270.477 411.087 270.685 410.329C271.664 406.841 272.557 403.281 273.365 399.708C273.548 398.999 273.707 398.277 273.854 397.567C274.001 396.857 274.233 395.866 274.405 395.022C274.747 393.395 275.09 391.767 275.396 390.128C276.424 385.026 277.292 379.997 278.051 375.164C278.21 374.112 278.381 373.059 278.54 372.019C278.699 370.979 278.81 370.172 278.944 369.254C279.238 367.125 279.531 365.057 279.788 363.039L279.972 361.631C280.143 360.188 280.314 358.768 280.474 357.398C280.559 356.713 280.633 356.028 280.706 355.367C280.779 354.706 280.841 354.278 280.902 353.74C280.963 353.201 280.987 352.932 281.036 352.516C281.029 352.418 281.029 352.32 281.036 352.222C281.11 351.549 281.171 350.889 281.244 350.265C281.428 348.38 281.587 346.667 281.734 345.126C281.807 344.208 281.893 343.364 281.954 342.593C281.946 342.561 281.946 342.527 281.954 342.495C282.076 340.99 282.174 339.767 282.248 338.825C282.248 338.2 282.321 337.723 282.346 337.381C282.37 337.038 282.346 336.977 282.346 336.916H158.119C158.119 336.916 136.095 370.343 147.021 414.281C147.021 414.256 144.929 449.127 143.522 469.976Z" fill="#263238"/>
<path d="M228.742 441.37C232.939 438.458 237.466 436.011 241.907 433.503C246.349 430.994 251.06 428.474 255.795 426.271C265.13 422.159 274.732 418.68 284.536 415.859C284.781 415.773 284.952 416.177 284.707 416.287C275.347 420.3 266.268 424.913 256.957 429.037C252.283 431.117 247.56 433.111 242.874 435.154C238.188 437.198 233.612 439.559 228.889 441.529C228.718 441.602 228.632 441.443 228.742 441.37Z" fill="#37474F"/>
<path d="M254.351 395.585C254.473 390.997 254.791 386.408 255.024 381.82C255.562 370.992 255.978 360.114 256.981 349.323C256.996 349.244 257.038 349.174 257.1 349.123C257.161 349.072 257.238 349.044 257.318 349.044C257.398 349.044 257.475 349.072 257.536 349.123C257.598 349.174 257.639 349.244 257.654 349.323C257.789 357.692 257.471 366.097 257.3 374.466C257.214 378.663 257.092 382.848 256.981 387.032C256.751 391.033 256.722 395.044 256.896 399.047C257.116 402.057 257.789 407.93 261.717 408.285C265.387 408.628 267.467 404.615 268.397 401.69C270.746 394.239 271.591 386.188 272.349 378.443C272.802 373.855 273.255 369.279 273.573 364.666C273.991 359.963 274.146 355.241 274.038 350.522C274.038 350.228 274.478 350.24 274.49 350.522C274.747 355.257 275.396 359.955 275.555 364.703C275.714 369.45 275.726 374.161 275.42 378.871C275.114 383.582 274.747 387.938 274.074 392.416C273.613 396.516 272.634 400.54 271.162 404.394C269.792 407.563 267.492 410.512 263.882 411.185C263.446 411.266 263.004 411.311 262.561 411.32C262.561 412.286 262.39 413.265 262.316 414.232C262.218 415.749 262.022 417.254 261.827 418.759C261.609 420.241 261.298 421.708 260.897 423.151C260.576 424.61 260.058 426.018 259.355 427.336C259.328 427.378 259.288 427.41 259.242 427.428C259.195 427.446 259.144 427.448 259.096 427.434C259.047 427.42 259.005 427.391 258.975 427.352C258.944 427.312 258.928 427.264 258.927 427.214C258.898 425.766 259.017 424.318 259.282 422.894C259.49 421.414 259.698 419.921 260.004 418.465C260.31 417.009 260.566 415.602 260.86 414.158C261.056 413.204 261.19 412.213 261.374 411.234C260.222 411.037 259.138 410.555 258.219 409.833C257.3 409.111 256.576 408.171 256.113 407.098C254.4 403.562 254.265 399.39 254.351 395.585Z" fill="#37474F"/>
<path d="M154.999 392.905C161.569 393.37 168.054 394.214 174.637 393.431C180.851 392.8 186.775 390.481 191.767 386.726C202.595 378.321 207.342 364.58 210.279 351.684C210.296 351.632 210.332 351.588 210.379 351.559C210.426 351.531 210.482 351.52 210.536 351.529C210.591 351.538 210.64 351.565 210.676 351.607C210.712 351.649 210.731 351.702 210.732 351.757C209.508 362.941 207.061 374.503 199.891 383.496C196.78 387.456 192.848 390.696 188.365 392.991C183.604 395.204 178.392 396.277 173.144 396.123C166.989 396.075 160.864 395.253 154.913 393.676C154.863 393.67 154.814 393.655 154.769 393.63C154.724 393.606 154.685 393.573 154.653 393.533C154.622 393.493 154.598 393.447 154.584 393.399C154.57 393.35 154.565 393.298 154.571 393.248C154.576 393.197 154.592 393.148 154.616 393.104C154.641 393.059 154.674 393.02 154.714 392.988C154.754 392.956 154.799 392.932 154.848 392.918C154.897 392.904 154.948 392.9 154.999 392.905Z" fill="#37474F"/>
<path d="M238.971 469.976C238.971 470.209 238.971 470.454 238.971 470.686C238.983 470.45 238.983 470.213 238.971 469.976H239.436C239.901 462.782 240.977 441.04 241.051 436.121V435.387C241.051 435.191 240.28 435.472 240.255 435.656C240.231 435.839 240.255 436.084 240.182 436.378C239.68 441.076 238.469 457.888 238.175 463.504C238.078 465.657 237.98 467.811 237.918 469.976H238.971Z" fill="#37474F"/>
<path d="M267.651 216.947H258.376C257.765 212.42 256.419 205.042 254.192 201.102C254.192 201.102 256.26 211.086 255.415 216.947H247.254C246.545 210.634 244.624 199.181 239.644 191.093C239.876 191.95 243.975 207.44 242.996 216.947H171.199C168.017 201.8 170.477 185.306 169.229 188.903C165.888 198.508 164.922 210.193 164.726 216.947H156.724C156.501 213.121 156.719 209.283 157.373 205.507C158.425 200.478 154.302 210.401 153.775 216.947H148.722C148.722 216.947 147.707 195.364 155.611 179.971C166.096 159.501 159.954 151.916 164.261 129.5C169.155 104.001 202.681 73.1436 236.181 105.396C238.885 108.002 255.574 113.129 254.62 145.37C254.082 163.6 250.631 173.242 256.896 182.614C264.665 194.311 267.993 207.159 267.651 216.947Z" fill="#263238"/>
<path d="M145.406 213.937C144.535 206.175 145.246 198.316 147.498 190.837C148.583 187.06 149.97 183.378 151.646 179.825C152.454 178.063 153.445 176.313 154.301 174.637C155.179 172.974 155.931 171.248 156.553 169.473C159.11 162.352 159.905 154.669 160.872 147.021C161.349 143.179 161.863 139.325 162.646 135.52C163.408 131.705 164.594 127.987 166.182 124.435C163.735 131.776 163.27 139.521 162.609 147.193C162.316 151.047 161.949 154.913 161.386 158.78C160.834 162.675 159.916 166.509 158.645 170.232C157.963 172.096 157.145 173.908 156.198 175.652C155.268 177.402 154.363 179.017 153.506 180.742C151.796 184.155 150.328 187.683 149.114 191.302C147.888 194.926 146.947 198.64 146.299 202.411C145.945 204.297 145.688 206.201 145.529 208.113C145.467 210.083 145.382 212.053 145.406 213.937Z" fill="#263238"/>
<path d="M254.584 145.406C254.743 148.502 254.522 151.597 254.584 154.681C254.645 157.764 254.657 160.798 254.926 163.857C255.187 166.88 255.699 169.876 256.456 172.814C256.627 173.548 256.884 174.257 257.092 174.979L257.251 175.518L257.422 175.97C257.557 176.276 257.728 176.594 257.899 176.913C258.621 178.21 259.453 179.519 260.261 180.84C261.851 183.495 263.418 186.212 264.776 189.038C266.139 191.861 267.281 194.786 268.189 197.786C269.094 200.789 269.716 203.869 270.049 206.987C270.362 210.087 270.362 213.211 270.049 216.311C269.829 210.175 268.652 204.11 266.562 198.337C264.418 192.621 261.678 187.146 258.389 182.003C257.593 180.681 256.774 179.372 256.015 177.953C255.819 177.586 255.636 177.218 255.464 176.827C255.293 176.435 255.305 176.386 255.232 176.191L255.061 175.616C254.853 174.857 254.596 174.098 254.449 173.328C253.738 170.255 253.328 167.12 253.225 163.967C253.129 160.852 253.235 157.733 253.544 154.632C253.8 151.536 254.241 148.428 254.584 145.406Z" fill="#263238"/>
<path d="M222.6 209.006C264.005 228.081 307.392 227.567 324.534 225.328C338.959 223.444 416.018 165.962 417.095 158.437C418.318 149.872 385.283 124.459 365.865 130.54C363.834 131.176 312.298 179.971 308.016 180.706C300.185 182.076 260.726 184.083 243.645 185.6C215.222 188.304 201.763 199.414 222.6 209.006Z" fill="#D3766A"/>
<path d="M219.369 211.184C232.18 218.856 261.411 227.837 261.411 227.837L291.13 180.608C291.13 180.608 242.739 180.02 217.718 188.83C207.746 192.366 206.424 203.415 219.369 211.184Z" fill="#455A64"/>
<path d="M215.417 190.335C215.417 191.192 215.077 192.013 214.471 192.619C213.866 193.225 213.044 193.565 212.187 193.565C211.932 193.568 211.677 193.539 211.429 193.479C212.437 191.981 213.799 190.755 215.393 189.907C215.405 190.029 215.417 190.188 215.417 190.335ZM244.048 193.565C244.687 193.565 245.312 193.376 245.843 193.021C246.374 192.666 246.788 192.161 247.033 191.571C247.277 190.981 247.341 190.331 247.217 189.705C247.092 189.078 246.784 188.503 246.333 188.051C245.881 187.599 245.305 187.291 244.679 187.167C244.052 187.042 243.403 187.106 242.812 187.351C242.222 187.595 241.718 188.009 241.363 188.54C241.008 189.072 240.818 189.696 240.818 190.335C240.822 191.191 241.163 192.01 241.768 192.615C242.373 193.22 243.193 193.562 244.048 193.565ZM275.861 193.565C276.499 193.563 277.122 193.371 277.652 193.015C278.181 192.658 278.594 192.153 278.836 191.563C279.079 190.972 279.141 190.323 279.015 189.697C278.889 189.071 278.58 188.497 278.128 188.047C277.676 187.596 277.1 187.29 276.474 187.166C275.848 187.042 275.199 187.107 274.61 187.352C274.02 187.597 273.516 188.011 273.162 188.542C272.807 189.073 272.618 189.697 272.618 190.335C272.618 190.77 272.705 191.2 272.875 191.6C273.045 192 273.294 192.362 273.607 192.663C273.92 192.965 274.291 193.2 274.697 193.355C275.103 193.51 275.536 193.582 275.971 193.565H275.861ZM228.057 210.56C227.2 210.56 226.378 210.9 225.773 211.506C225.167 212.112 224.827 212.934 224.827 213.79C224.82 213.9 224.82 214.011 224.827 214.121C226.429 214.891 228.13 215.675 229.904 216.433C230.466 216.038 230.888 215.475 231.107 214.824C231.327 214.174 231.334 213.47 231.127 212.815C230.919 212.16 230.509 211.589 229.954 211.183C229.4 210.778 228.731 210.56 228.044 210.56H228.057ZM259.869 217.033C260.511 217.035 261.139 216.847 261.674 216.492C262.208 216.137 262.626 215.632 262.873 215.04C263.121 214.447 263.186 213.795 263.063 213.165C262.939 212.535 262.631 211.957 262.178 211.502C261.725 211.047 261.148 210.737 260.518 210.611C259.889 210.485 259.236 210.549 258.643 210.794C258.05 211.039 257.543 211.454 257.186 211.988C256.829 212.521 256.639 213.148 256.639 213.79C256.639 214.224 256.726 214.654 256.895 215.054C257.064 215.454 257.311 215.816 257.623 216.118C257.934 216.421 258.303 216.657 258.708 216.815C259.113 216.972 259.545 217.046 259.979 217.033H259.869Z" fill="white"/>
<path d="M219.357 211.184C232.18 218.868 261.41 227.824 261.41 227.824L267.614 217.963L222.771 187.264C221.033 187.753 219.333 188.279 217.767 188.83C207.758 192.354 206.424 203.488 219.357 211.184Z" fill="#263238"/>
<path d="M255.232 223.493C259.184 216.152 263.222 208.957 267.602 201.897C269.78 198.374 272.011 194.886 274.295 191.436C276.583 187.986 279.189 184.755 281.465 181.281C281.587 181.097 281.881 181.281 281.746 181.489C279.299 184.841 277.366 188.548 275.151 192.036C272.936 195.523 270.697 199.022 268.507 202.546C264.127 209.557 259.734 216.58 255.525 223.701C255.403 223.897 255.171 223.689 255.232 223.493Z" fill="#263238"/>
<path d="M285.564 336.855L273.096 277.757C273.096 277.757 285.637 258.535 275.837 241.871C270.881 233.428 245.248 202.521 230.186 191.399C212.469 178.295 195.474 190.347 188.867 199.328C175.628 217.302 162.487 259.588 157.923 336.916L285.564 336.855Z" fill="#455A64"/>
<path d="M208.945 190.335C208.943 189.693 209.131 189.065 209.486 188.53C209.84 187.995 210.346 187.578 210.938 187.331C211.53 187.083 212.183 187.017 212.812 187.141C213.442 187.265 214.021 187.573 214.476 188.026C214.93 188.479 215.241 189.056 215.367 189.686C215.493 190.315 215.429 190.967 215.184 191.561C214.939 192.154 214.524 192.661 213.99 193.018C213.457 193.375 212.829 193.565 212.187 193.565C211.33 193.565 210.507 193.225 209.899 192.62C209.291 192.014 208.948 191.193 208.945 190.335ZM180.314 240.5C180.953 240.5 181.577 240.311 182.109 239.956C182.64 239.601 183.054 239.096 183.298 238.506C183.543 237.916 183.607 237.266 183.482 236.64C183.358 236.013 183.05 235.438 182.598 234.986C182.146 234.534 181.571 234.227 180.944 234.102C180.318 233.977 179.668 234.041 179.078 234.286C178.488 234.53 177.983 234.944 177.628 235.476C177.273 236.007 177.084 236.631 177.084 237.27C177.097 238.119 177.442 238.93 178.046 239.527C178.65 240.124 179.465 240.46 180.314 240.464V240.5ZM212.187 240.5C212.826 240.498 213.449 240.306 213.979 239.95C214.508 239.594 214.92 239.088 215.163 238.498C215.406 237.907 215.468 237.258 215.342 236.632C215.216 236.007 214.907 235.432 214.455 234.982C214.003 234.531 213.427 234.225 212.801 234.101C212.175 233.977 211.526 234.042 210.936 234.287C210.347 234.532 209.843 234.946 209.489 235.477C209.134 236.008 208.945 236.632 208.945 237.27C208.955 238.123 209.301 238.937 209.908 239.535C210.516 240.133 211.335 240.467 212.187 240.464V240.5ZM244 240.5C244.639 240.5 245.263 240.311 245.794 239.956C246.325 239.601 246.739 239.096 246.984 238.506C247.228 237.916 247.292 237.266 247.168 236.64C247.043 236.013 246.735 235.438 246.284 234.986C245.832 234.534 245.256 234.227 244.63 234.102C244.003 233.977 243.354 234.041 242.764 234.286C242.173 234.53 241.669 234.944 241.314 235.476C240.959 236.007 240.769 236.631 240.769 237.27C240.782 238.128 241.135 238.946 241.749 239.544C242.364 240.143 243.191 240.473 244.049 240.464L244 240.5ZM272.631 237.233C272.631 237.9 272.839 238.55 273.224 239.093C273.61 239.637 274.155 240.047 274.784 240.268C274.233 239.375 273.524 238.347 272.68 237.197L272.631 237.233ZM196.208 217.069C196.849 217.069 197.476 216.879 198.009 216.523C198.543 216.167 198.958 215.66 199.204 215.068C199.449 214.475 199.513 213.823 199.388 213.194C199.263 212.565 198.954 211.988 198.501 211.534C198.047 211.081 197.469 210.772 196.84 210.647C196.212 210.522 195.56 210.586 194.967 210.831C194.375 211.077 193.868 211.492 193.512 212.026C193.156 212.559 192.966 213.186 192.966 213.827C192.97 214.254 193.059 214.675 193.227 215.068C193.396 215.46 193.64 215.816 193.945 216.113C194.251 216.411 194.613 216.646 195.009 216.803C195.406 216.961 195.83 217.039 196.257 217.033L196.208 217.069ZM228.02 217.069C228.662 217.072 229.29 216.884 229.825 216.529C230.36 216.174 230.777 215.668 231.024 215.076C231.272 214.484 231.338 213.832 231.214 213.202C231.09 212.572 230.782 211.993 230.329 211.539C229.876 211.084 229.299 210.774 228.669 210.648C228.04 210.522 227.388 210.585 226.794 210.83C226.201 211.075 225.694 211.491 225.337 212.024C224.98 212.558 224.79 213.185 224.79 213.827C224.795 214.257 224.885 214.682 225.055 215.077C225.226 215.471 225.473 215.828 225.783 216.127C226.092 216.425 226.458 216.659 226.859 216.814C227.26 216.97 227.688 217.044 228.118 217.033L228.02 217.069ZM180.216 287.411C180.858 287.413 181.486 287.225 182.021 286.871C182.556 286.516 182.973 286.01 183.22 285.418C183.468 284.826 183.534 284.173 183.41 283.544C183.286 282.914 182.978 282.335 182.525 281.88C182.072 281.426 181.495 281.116 180.865 280.989C180.236 280.863 179.584 280.927 178.99 281.172C178.397 281.417 177.89 281.833 177.533 282.366C177.176 282.899 176.986 283.527 176.986 284.169C176.991 284.599 177.081 285.023 177.251 285.418C177.422 285.813 177.669 286.17 177.979 286.468C178.289 286.767 178.655 287 179.055 287.156C179.456 287.311 179.884 287.386 180.314 287.374L180.216 287.411ZM212.09 287.411C212.731 287.411 213.358 287.221 213.891 286.865C214.424 286.508 214.84 286.002 215.085 285.409C215.331 284.817 215.395 284.165 215.27 283.536C215.145 282.907 214.836 282.329 214.382 281.876C213.929 281.422 213.351 281.114 212.722 280.989C212.093 280.863 211.441 280.928 210.849 281.173C210.256 281.418 209.75 281.834 209.394 282.367C209.037 282.9 208.847 283.527 208.847 284.169C208.852 284.6 208.942 285.025 209.114 285.421C209.285 285.817 209.533 286.174 209.844 286.473C210.155 286.771 210.523 287.005 210.925 287.16C211.327 287.314 211.757 287.387 212.187 287.374L212.09 287.411ZM243.902 287.411C244.544 287.413 245.172 287.225 245.706 286.871C246.241 286.516 246.659 286.01 246.906 285.418C247.153 284.826 247.219 284.173 247.096 283.544C246.972 282.914 246.664 282.335 246.211 281.88C245.758 281.426 245.18 281.116 244.551 280.989C243.922 280.863 243.269 280.927 242.676 281.172C242.083 281.417 241.576 281.833 241.219 282.366C240.862 282.899 240.672 283.527 240.672 284.169C240.676 284.603 240.768 285.032 240.941 285.43C241.115 285.828 241.367 286.187 241.682 286.486C241.997 286.785 242.368 287.018 242.775 287.171C243.182 287.323 243.615 287.392 244.049 287.374L243.902 287.411ZM273.756 281.648C273.287 282.024 272.932 282.522 272.731 283.089C272.53 283.655 272.49 284.266 272.618 284.853C272.745 285.441 273.033 285.981 273.45 286.413C273.868 286.846 274.397 287.153 274.98 287.301L273.756 281.648ZM167.198 259.123C166.928 260.469 166.659 261.827 166.402 263.222C166.782 262.92 167.09 262.537 167.302 262.101C167.513 261.664 167.624 261.186 167.626 260.701C167.625 260.146 167.478 259.602 167.198 259.123ZM196.257 263.931C196.899 263.931 197.526 263.741 198.06 263.384C198.593 263.027 199.009 262.52 199.254 261.927C199.499 261.334 199.562 260.681 199.436 260.052C199.31 259.422 199 258.845 198.545 258.392C198.091 257.939 197.512 257.631 196.882 257.507C196.252 257.383 195.6 257.449 195.008 257.697C194.415 257.944 193.91 258.362 193.555 258.896C193.2 259.431 193.012 260.059 193.014 260.701C193.014 261.126 193.098 261.547 193.262 261.94C193.425 262.333 193.664 262.689 193.965 262.989C194.266 263.29 194.624 263.527 195.017 263.689C195.41 263.85 195.832 263.933 196.257 263.931ZM228.069 263.931C228.711 263.934 229.34 263.745 229.875 263.39C230.41 263.034 230.828 262.528 231.075 261.935C231.321 261.342 231.387 260.689 231.262 260.059C231.137 259.429 230.828 258.85 230.374 258.396C229.92 257.942 229.341 257.633 228.711 257.508C228.081 257.383 227.428 257.449 226.835 257.696C226.242 257.942 225.736 258.36 225.38 258.895C225.025 259.43 224.837 260.059 224.839 260.701C224.839 261.129 224.924 261.553 225.089 261.949C225.255 262.344 225.497 262.702 225.802 263.003C226.107 263.303 226.469 263.54 226.867 263.699C227.264 263.859 227.69 263.938 228.118 263.931H228.069ZM259.881 263.931C260.524 263.934 261.152 263.745 261.687 263.39C262.222 263.034 262.64 262.528 262.887 261.935C263.134 261.342 263.199 260.689 263.074 260.059C262.949 259.429 262.64 258.85 262.186 258.396C261.732 257.942 261.153 257.633 260.523 257.508C259.893 257.383 259.24 257.449 258.647 257.696C258.054 257.942 257.548 258.36 257.192 258.895C256.837 259.43 256.649 260.059 256.651 260.701C256.653 261.133 256.74 261.56 256.909 261.958C257.078 262.356 257.325 262.716 257.635 263.017C257.945 263.318 258.312 263.553 258.715 263.71C259.117 263.868 259.547 263.943 259.979 263.931H259.881ZM180.216 334.273C180.858 334.275 181.486 334.087 182.021 333.732C182.556 333.378 182.973 332.872 183.22 332.28C183.468 331.688 183.534 331.035 183.41 330.405C183.286 329.776 182.978 329.197 182.525 328.742C182.072 328.287 181.495 327.977 180.865 327.851C180.236 327.725 179.584 327.789 178.99 328.034C178.397 328.279 177.89 328.694 177.533 329.228C177.176 329.761 176.986 330.389 176.986 331.03C176.986 331.464 177.072 331.892 177.241 332.291C177.409 332.69 177.656 333.052 177.966 333.354C178.276 333.656 178.644 333.893 179.047 334.051C179.45 334.209 179.881 334.284 180.314 334.273H180.216ZM212.09 334.273C212.731 334.273 213.358 334.083 213.891 333.726C214.424 333.37 214.84 332.864 215.085 332.271C215.331 331.679 215.395 331.027 215.27 330.398C215.145 329.769 214.836 329.191 214.382 328.738C213.929 328.284 213.351 327.975 212.722 327.85C212.093 327.725 211.441 327.789 210.849 328.035C210.256 328.28 209.75 328.696 209.394 329.229C209.037 329.762 208.847 330.389 208.847 331.03C208.847 331.465 208.934 331.894 209.103 332.294C209.272 332.694 209.52 333.056 209.831 333.359C210.143 333.661 210.512 333.898 210.917 334.055C211.321 334.212 211.753 334.286 212.187 334.273H212.09ZM243.902 334.273C244.544 334.275 245.172 334.087 245.706 333.732C246.241 333.378 246.659 332.872 246.906 332.28C247.153 331.688 247.219 331.035 247.096 330.405C246.972 329.776 246.664 329.197 246.211 328.742C245.758 328.287 245.18 327.977 244.551 327.851C243.922 327.725 243.269 327.789 242.676 328.034C242.083 328.279 241.576 328.694 241.219 329.228C240.862 329.761 240.672 330.389 240.672 331.03C240.671 331.468 240.759 331.901 240.931 332.303C241.102 332.706 241.353 333.069 241.668 333.372C241.984 333.675 242.357 333.911 242.766 334.066C243.175 334.221 243.612 334.291 244.049 334.273H243.902ZM275.714 334.273C276.355 334.273 276.982 334.083 277.515 333.726C278.049 333.37 278.464 332.864 278.71 332.271C278.955 331.679 279.019 331.027 278.894 330.398C278.769 329.769 278.46 329.191 278.007 328.738C277.553 328.284 276.975 327.975 276.347 327.85C275.718 327.725 275.066 327.789 274.473 328.035C273.881 328.28 273.374 328.696 273.018 329.229C272.662 329.762 272.472 330.389 272.472 331.03C272.47 331.479 272.562 331.923 272.741 332.334C272.919 332.745 273.181 333.114 273.51 333.419C273.839 333.724 274.228 333.957 274.651 334.104C275.075 334.251 275.524 334.308 275.971 334.273H275.714ZM164.383 310.83C165.022 310.83 165.647 310.64 166.178 310.285C166.709 309.93 167.123 309.426 167.368 308.836C167.612 308.245 167.676 307.596 167.552 306.969C167.427 306.343 167.119 305.767 166.668 305.315C166.216 304.864 165.64 304.556 165.014 304.431C164.387 304.307 163.738 304.371 163.147 304.615C162.557 304.86 162.053 305.274 161.698 305.805C161.343 306.336 161.153 306.961 161.153 307.6C161.153 308.456 161.494 309.278 162.099 309.884C162.705 310.489 163.527 310.83 164.383 310.83ZM196.196 310.83C196.834 310.827 197.457 310.636 197.987 310.279C198.517 309.923 198.929 309.418 199.171 308.827C199.414 308.237 199.476 307.588 199.35 306.962C199.224 306.336 198.915 305.762 198.463 305.311C198.011 304.861 197.435 304.554 196.809 304.431C196.183 304.307 195.534 304.372 194.945 304.616C194.355 304.861 193.851 305.275 193.497 305.806C193.142 306.337 192.953 306.961 192.953 307.6C192.953 308.03 193.039 308.456 193.206 308.853C193.373 309.25 193.617 309.609 193.925 309.91C194.233 310.211 194.598 310.447 194.998 310.605C195.399 310.763 195.827 310.84 196.257 310.83H196.196ZM228.008 310.83C228.647 310.83 229.271 310.64 229.802 310.285C230.334 309.93 230.748 309.426 230.992 308.836C231.237 308.245 231.301 307.596 231.176 306.969C231.051 306.343 230.744 305.767 230.292 305.315C229.84 304.864 229.265 304.556 228.638 304.431C228.011 304.307 227.362 304.371 226.772 304.615C226.182 304.86 225.677 305.274 225.322 305.805C224.967 306.336 224.778 306.961 224.778 307.6C224.777 308.033 224.865 308.462 225.034 308.862C225.203 309.261 225.451 309.622 225.762 309.923C226.074 310.225 226.443 310.46 226.848 310.616C227.253 310.772 227.685 310.845 228.118 310.83H228.008ZM259.82 310.83C260.459 310.83 261.083 310.64 261.615 310.285C262.146 309.93 262.56 309.426 262.804 308.836C263.049 308.245 263.113 307.596 262.988 306.969C262.864 306.343 262.556 305.767 262.104 305.315C261.652 304.864 261.077 304.556 260.45 304.431C259.824 304.307 259.174 304.371 258.584 304.615C257.994 304.86 257.489 305.274 257.134 305.805C256.779 306.336 256.59 306.961 256.59 307.6C256.591 308.037 256.681 308.47 256.854 308.871C257.026 309.273 257.279 309.636 257.595 309.938C257.912 310.24 258.286 310.474 258.696 310.627C259.106 310.781 259.542 310.85 259.979 310.83H259.82Z" fill="white"/>
<path d="M232.707 278.026C238.643 277.01 244.647 276.437 250.668 276.313C253.654 276.313 256.627 276.411 259.612 276.583C261.105 276.668 262.586 276.717 264.078 276.742C265.636 276.822 267.197 276.711 268.728 276.411C268.753 276.409 268.779 276.415 268.801 276.429C268.822 276.444 268.838 276.465 268.845 276.49C268.853 276.515 268.851 276.541 268.841 276.565C268.83 276.589 268.812 276.608 268.789 276.619C267.381 277.061 265.947 277.412 264.494 277.672C263.079 277.865 261.653 277.967 260.224 277.978C257.19 277.978 254.106 277.978 251.109 277.978C244.991 277.978 238.873 278.063 232.755 278.553C232.486 278.54 232.425 278.124 232.707 278.026Z" fill="#263238"/>
<path d="M219.688 286.946C224.33 285.181 229.068 283.682 233.881 282.456C236.328 281.856 238.775 281.391 241.222 280.987C242.446 280.792 243.571 280.633 244.746 280.474C245.92 280.315 247.352 280.302 248.649 280.119C248.784 280.119 248.832 280.302 248.649 280.327C247.425 280.535 246.202 280.951 245.064 281.244L241.393 282.089C238.946 282.664 236.585 283.312 234.174 283.814C229.341 284.927 224.533 286.065 219.737 287.338C219.577 287.411 219.504 287.032 219.688 286.946Z" fill="#263238"/>
<path d="M200.735 195.694C201.53 198.055 215.418 211.453 226.087 208.015C233.587 205.568 227.225 190.885 227.225 190.885L229.99 168.568L200.894 153.885C200.894 153.885 200.405 194.691 200.735 195.694Z" fill="#D3766A"/>
<path d="M200.735 168.14C203.466 173.351 207.24 177.944 211.823 181.634C216.405 185.324 221.698 188.032 227.371 189.588L230.002 168.519L200.894 153.836C200.894 153.836 200.821 160.26 200.735 168.14Z" fill="#263238"/>
<path d="M254.314 131.042C264.029 166.525 243.841 176.411 236.181 178.491C229.219 180.387 205.287 185.955 191.95 151.573C178.613 117.191 192.072 101.481 207.746 96.3175C223.42 91.1542 244.599 95.51 254.314 131.042Z" fill="#D3766A"/>
<path d="M244.44 127.139C243.589 127.188 242.735 127.188 241.883 127.139C240.981 127.244 240.07 127.05 239.289 126.588C239.071 126.398 238.922 126.141 238.867 125.858C238.811 125.574 238.852 125.28 238.983 125.022C239.318 124.546 239.773 124.169 240.302 123.928C240.831 123.687 241.415 123.591 241.993 123.652C243.185 123.6 244.353 123.993 245.272 124.753C245.462 124.938 245.595 125.173 245.656 125.432C245.717 125.69 245.703 125.96 245.615 126.21C245.528 126.461 245.371 126.681 245.163 126.845C244.955 127.01 244.704 127.112 244.44 127.139Z" fill="#263238"/>
<path d="M219.59 132.681C220.422 132.412 221.156 132.033 221.951 131.69C222.829 131.454 223.604 130.933 224.154 130.21C224.299 129.955 224.347 129.657 224.291 129.37C224.235 129.083 224.078 128.825 223.848 128.644C223.361 128.326 222.797 128.145 222.216 128.119C221.635 128.094 221.058 128.224 220.544 128.497C219.424 128.899 218.489 129.695 217.914 130.736C217.799 130.982 217.757 131.256 217.794 131.524C217.831 131.793 217.945 132.046 218.122 132.251C218.299 132.457 218.532 132.607 218.792 132.683C219.053 132.76 219.33 132.759 219.59 132.681Z" fill="#263238"/>
<path d="M226.466 139.643C226.466 139.558 226.307 139.802 226.332 139.9C226.943 142.347 227.237 145.247 225.181 146.556C225.12 146.556 225.181 146.715 225.181 146.679C227.873 145.712 227.445 141.858 226.466 139.643Z" fill="#263238"/>
<path d="M223.713 137.551C219.688 138.114 221.107 146.116 224.839 145.602C228.571 145.088 227.09 137.074 223.713 137.551Z" fill="#263238"/>
<path d="M222.221 138.248C221.597 138.823 221.058 139.753 220.226 139.986C219.394 140.218 218.379 139.545 217.608 138.848C217.522 138.775 217.461 138.848 217.485 138.97C217.73 140.5 218.599 141.98 220.287 141.907C221.976 141.833 222.661 140.304 222.734 138.701C222.783 138.395 222.465 138.016 222.221 138.248Z" fill="#263238"/>
<path d="M240.684 136.719C240.684 136.621 240.904 136.805 240.916 136.903C241.259 139.35 242.066 142.201 244.452 142.653C244.526 142.653 244.538 142.788 244.452 142.788C241.711 142.874 240.61 139.142 240.684 136.719Z" fill="#263238"/>
<path d="M242.47 133.746C246.41 132.767 248.074 140.732 244.428 141.638C240.782 142.543 239.154 134.566 242.47 133.746Z" fill="#263238"/>
<path d="M244.232 133.917C244.954 134.211 245.737 134.847 246.496 134.737C247.254 134.627 247.841 133.623 248.221 132.681C248.221 132.583 248.343 132.681 248.368 132.742C248.735 134.247 248.563 135.936 247.144 136.535C245.725 137.135 244.611 135.985 243.938 134.541C243.816 134.284 243.951 133.807 244.232 133.917Z" fill="#263238"/>
<path d="M231.385 159.844C232.058 160.358 232.755 161.068 233.673 161.068C234.599 160.92 235.485 160.588 236.279 160.089C236.295 160.079 236.313 160.075 236.332 160.076C236.35 160.078 236.368 160.085 236.382 160.098C236.395 160.11 236.405 160.127 236.408 160.145C236.412 160.163 236.409 160.182 236.401 160.199C236.107 160.737 235.673 161.185 235.146 161.497C234.618 161.809 234.016 161.974 233.404 161.973C232.877 161.905 232.382 161.683 231.982 161.335C231.581 160.986 231.293 160.527 231.152 160.015C231.091 159.856 231.287 159.771 231.385 159.844Z" fill="#263238"/>
<path d="M240.035 148.942C240.035 148.942 241.259 152.539 241.577 154.289C241.577 154.448 241.198 154.607 240.61 154.754C239.16 155.322 237.581 155.477 236.047 155.203C234.514 154.928 233.087 154.235 231.923 153.2C231.894 153.169 231.876 153.129 231.873 153.087C231.871 153.045 231.882 153.003 231.907 152.968C231.931 152.934 231.967 152.909 232.008 152.897C232.049 152.886 232.092 152.889 232.131 152.907C234.641 154.005 237.44 154.263 240.109 153.641C240.109 153.139 237.833 147.523 238.102 147.523C239.481 147.38 240.872 147.43 242.238 147.67C239.937 140.096 236.438 132.987 234.248 125.377C234.234 125.321 234.24 125.262 234.265 125.21C234.291 125.159 234.333 125.117 234.386 125.094C234.438 125.071 234.498 125.067 234.553 125.082C234.608 125.098 234.656 125.133 234.688 125.181C238.885 132.4 241.724 141.087 244.305 148.82C244.623 149.738 240.794 149.101 240.035 148.942Z" fill="#263238"/>
<path d="M240.194 153.971C239.514 155.594 238.427 157.014 237.038 158.094C236.266 158.667 235.332 158.98 234.37 158.988C232.278 158.988 231.752 157.201 231.703 155.574C231.682 154.703 231.764 153.832 231.948 152.98C234.521 154.179 237.41 154.526 240.194 153.971Z" fill="#263238"/>
<path d="M237.038 158.094C236.266 158.667 235.332 158.98 234.37 158.988C232.278 158.988 231.752 157.201 231.703 155.574C233.857 155.231 236.316 156.1 237.038 158.094Z" fill="#FF9BBC"/>
<path d="M193.382 153.127C195.526 151.656 197.251 149.654 198.387 147.316C199.524 144.978 200.034 142.385 199.866 139.79C205.749 136.092 210.535 130.887 213.729 124.716C213.607 125.499 212.665 131.115 212.102 133.966C234.297 126.258 238.726 107.721 238.726 107.721C247.291 113.998 249.445 118.5 250.864 120.691C250.864 120.691 248.931 106.657 240.305 98.3609C229.77 88.2055 199.524 89.5881 187.998 106.644C175.64 125.034 193.382 153.127 193.382 153.127Z" fill="#263238"/>
<path d="M228.889 127.628C225.542 130.202 221.831 132.264 217.877 133.746C224.037 131.024 229.316 126.638 233.122 121.082C234.726 118.71 236.033 116.15 237.013 113.459C238.184 110.548 238.77 107.434 238.738 104.295C238.749 104.256 238.772 104.221 238.804 104.197C238.836 104.172 238.875 104.159 238.916 104.159C238.956 104.159 238.996 104.172 239.028 104.197C239.06 104.221 239.083 104.256 239.093 104.295C239.46 107.391 239.302 110.526 238.628 113.57C237.835 116.558 236.504 119.378 234.701 121.89C233.076 124.106 231.144 126.079 228.962 127.751" fill="#263238"/>
<path d="M198.055 150.276C198.055 150.276 188.084 140.414 183.471 144.158C178.858 147.902 187.79 163.221 194.226 164.371C195.041 164.575 195.889 164.611 196.719 164.478C197.549 164.345 198.344 164.046 199.055 163.598C199.766 163.149 200.379 162.562 200.857 161.871C201.335 161.179 201.668 160.398 201.836 159.575L198.055 150.276Z" fill="#D3766A"/>
<path d="M186.138 148.49C186.04 148.49 186.053 148.636 186.138 148.661C190.678 149.603 193.614 153.115 195.927 156.895C194.385 155.549 192.513 155.011 190.69 156.895C190.604 156.993 190.69 157.152 190.849 157.103C191.55 156.732 192.348 156.587 193.134 156.688C193.921 156.789 194.657 157.131 195.241 157.666C196.208 158.568 197.078 159.568 197.835 160.652C198.105 160.994 198.753 160.652 198.521 160.26C198.525 160.232 198.525 160.203 198.521 160.174C197.591 154.754 192.023 147.976 186.138 148.49Z" fill="#263238"/>
<path d="M433.365 257.767C451.854 209.701 427.878 155.749 379.813 137.26C331.747 118.77 277.794 142.747 259.305 190.812C240.816 238.877 264.793 292.83 312.858 311.319C360.923 329.808 414.876 305.832 433.365 257.767Z" fill="#FFC727"/>
<path d="M428.694 266.623L387.485 307.832L445.481 324.631L428.694 266.623Z" fill="#FFC727"/>
<path d="M346.423 163.502C356.808 163.572 367.004 166.285 376.051 171.384C385.098 176.483 392.698 183.802 398.135 192.65C403.572 201.498 406.667 211.585 407.128 221.96C407.59 232.335 405.403 242.657 400.773 251.953C400.259 252.479 395.218 262.181 384.989 265.13C383.858 265.415 382.692 265.535 381.526 265.485C379.623 265.557 377.73 265.169 376.009 264.353C374.288 263.537 372.789 262.318 371.64 260.799C369.902 258.366 368.934 255.468 368.863 252.479V246.581C366.104 249.827 362.675 252.437 358.812 254.233C354.95 256.028 350.744 256.966 346.484 256.981C329.354 256.981 315.443 242.066 315.443 224.203C315.443 206.339 329.318 191.779 346.484 191.779C363.65 191.779 377.183 206.461 377.183 224.203V251.953H377.366C377.377 253.294 377.735 254.609 378.406 255.77C378.782 256.219 379.265 256.566 379.81 256.78C380.355 256.993 380.945 257.067 381.526 256.994H382.909C388.109 255.77 392.281 249.652 392.966 247.976C396.848 240.665 398.817 232.491 398.693 224.215C398.676 213.872 395.592 203.766 389.832 195.176C384.072 186.586 375.893 179.896 366.331 175.954C356.769 172.012 346.253 170.993 336.112 173.028C325.971 175.062 316.662 180.058 309.36 187.383C302.059 194.709 297.093 204.035 295.092 214.182C293.091 224.33 294.144 234.843 298.117 244.392C302.091 253.941 308.807 262.097 317.416 267.829C326.026 273.561 336.141 276.612 346.484 276.595C350.867 276.744 355.249 276.279 359.502 275.212C361.754 274.686 364.176 275.726 364.397 278.161C364.588 278.684 364.661 279.243 364.61 279.798C364.56 280.353 364.388 280.889 364.107 281.37C363.825 281.85 363.44 282.263 362.981 282.577C362.521 282.892 361.998 283.101 361.448 283.19C356.576 284.449 351.565 285.087 346.533 285.086C338.55 285.086 330.646 283.514 323.271 280.459C315.896 277.404 309.195 272.927 303.551 267.283C297.906 261.638 293.429 254.937 290.374 247.562C287.319 240.187 285.747 232.283 285.747 224.3C285.747 216.318 287.319 208.414 290.374 201.039C293.429 193.664 297.906 186.963 303.551 181.318C309.195 175.674 315.896 171.196 323.271 168.142C330.646 165.087 338.55 163.515 346.533 163.515L346.423 163.502ZM346.423 247.927C358.401 247.927 368.63 237.527 368.63 224.166C368.63 210.805 358.401 200.233 346.423 200.233C334.444 200.233 324.399 210.988 324.399 224.166C324.399 237.343 334.285 247.964 346.423 247.964V247.927Z" fill="white"/>
<path d="M183.642 236.879C189.221 281.355 198.007 342.299 221.34 346.998C259.698 354.694 294.238 361.827 318.819 360.31C327.617 359.772 320.41 298.191 310.989 297.909C298.753 297.493 245.554 290.568 242.287 285.833C240.439 283.141 226.943 256.847 208.235 221.866C188.72 185.331 181.856 222.588 183.642 236.879Z" fill="#D3766A"/>
<path d="M315.65 360.298C339.62 360.298 369.487 361.693 392.734 347.94C395.364 346.483 397.424 344.181 398.582 341.406C409.129 335.435 409.472 328.657 409.472 328.657C417.596 320.092 416.997 313.106 416.997 313.106C416.997 313.106 429.306 305.96 426.21 297.811C422.784 288.647 406.168 300.479 393.052 301.408C363.014 303.513 319.713 298.117 310.989 297.86L315.65 360.298Z" fill="#D3766A"/>
<path d="M363.124 325.745C371.958 324.949 380.645 324.399 389.32 322.404C398.839 320.227 407.673 316.531 416.679 312.983C416.707 312.969 416.737 312.962 416.769 312.96C416.8 312.958 416.831 312.962 416.861 312.972C416.89 312.983 416.917 312.998 416.941 313.019C416.964 313.04 416.983 313.065 416.997 313.093C417.011 313.121 417.019 313.152 417.02 313.183C417.022 313.214 417.018 313.246 417.008 313.275C416.997 313.305 416.982 313.332 416.961 313.355C416.94 313.379 416.915 313.398 416.887 313.411C401.531 322.417 380.902 326.968 363.161 326.149C362.733 326.124 362.684 325.843 363.124 325.745Z" fill="#263238"/>
<path d="M361.766 344.061C370.331 342.838 385.319 340.513 409.35 328.4C409.423 328.4 409.521 328.486 409.435 328.535C394.887 338.482 379.263 343.388 361.827 344.441C361.289 344.502 361.191 344.196 361.766 344.061Z" fill="#263238"/>
<path d="M361.216 353.984C375.678 351.305 384.463 347.781 398.509 341.443C398.583 341.443 398.668 341.529 398.583 341.577C383.362 350.46 376.84 351.965 361.24 354.498C360.702 354.523 360.653 353.984 361.216 353.984Z" fill="#263238"/>
<path d="M356.725 301.653C352.712 300.43 353.348 298.264 360.395 295.621C367.443 292.978 397.444 288.512 394.997 278.161C392.55 267.81 350.277 274.76 338.922 280.045C327.568 285.331 311.05 297.86 311.05 297.86C319.492 298.166 340.036 300.858 356.725 301.653Z" fill="#D3766A"/>
<path d="M183.336 285.319L228.253 250.289C228.253 250.289 216.555 224.19 208.04 210.646C196.771 192.745 187.484 192.721 183.434 218.342C180.669 235.484 183.336 285.319 183.336 285.319Z" fill="#455A64"/>
<path d="M183.556 237.233C183.554 237.752 183.428 238.263 183.187 238.723C182.946 239.183 182.599 239.579 182.174 239.876C182.174 238.09 182.174 236.352 182.259 234.652C182.661 234.952 182.988 235.341 183.213 235.789C183.438 236.238 183.555 236.732 183.556 237.233ZM212.187 240.464C212.826 240.461 213.449 240.27 213.979 239.913C214.508 239.557 214.92 239.052 215.163 238.461C215.406 237.871 215.468 237.222 215.342 236.596C215.216 235.97 214.907 235.396 214.455 234.945C214.003 234.495 213.427 234.188 212.801 234.064C212.175 233.941 211.526 234.005 210.936 234.25C210.347 234.495 209.843 234.909 209.489 235.44C209.134 235.971 208.945 236.595 208.945 237.233C208.945 237.659 209.029 238.08 209.192 238.472C209.355 238.865 209.594 239.222 209.895 239.522C210.197 239.822 210.554 240.06 210.948 240.221C211.341 240.383 211.762 240.465 212.187 240.464ZM196.281 217.033C196.923 217.033 197.549 216.842 198.083 216.486C198.616 216.13 199.032 215.624 199.277 215.031C199.522 214.439 199.587 213.787 199.461 213.158C199.336 212.529 199.028 211.951 198.574 211.498C198.121 211.044 197.543 210.735 196.914 210.61C196.285 210.485 195.633 210.549 195.041 210.795C194.448 211.04 193.942 211.456 193.585 211.989C193.229 212.522 193.039 213.149 193.039 213.79C193.039 214.646 193.377 215.467 193.98 216.074C194.583 216.682 195.401 217.026 196.257 217.033H196.281ZM183.226 282.676C183.299 284.193 183.348 285.123 183.361 285.294C183.526 284.874 183.6 284.422 183.577 283.971C183.554 283.519 183.434 283.077 183.226 282.676ZM196.281 263.931C196.923 263.931 197.55 263.741 198.084 263.384C198.617 263.027 199.033 262.52 199.278 261.927C199.523 261.334 199.587 260.681 199.46 260.052C199.334 259.422 199.024 258.845 198.57 258.392C198.115 257.939 197.536 257.631 196.906 257.507C196.277 257.384 195.624 257.449 195.032 257.697C194.44 257.944 193.934 258.362 193.579 258.896C193.225 259.431 193.037 260.059 193.039 260.701C193.039 261.556 193.378 262.375 193.981 262.981C194.584 263.586 195.402 263.928 196.257 263.931H196.281Z" fill="white"/>
<path d="M222.747 254.583C223.163 254.118 227.641 250.362 228.044 250.191C226.601 247.156 225.108 244.073 223.689 241.088C222.979 239.558 222.294 238.017 221.633 236.475C220.972 234.933 219.981 232.804 219.345 231.36C219.235 231.116 219.529 230.969 219.651 231.189C220.679 233.073 221.388 234.505 222.282 236.083C222.906 237.233 223.505 238.42 224.08 239.595L223.86 238.592C223.444 236.793 223.187 234.982 222.636 233.196C222.563 232.975 222.918 232.89 222.979 233.11C223.419 234.909 224.08 236.622 224.557 238.408C224.982 239.743 225.301 241.11 225.512 242.495C226.735 245.04 228.106 247.634 229.182 250.191C227.166 251.828 225.045 253.332 222.832 254.693C222.771 254.791 222.685 254.657 222.747 254.583Z" fill="#263238"/>
<path d="M184.56 277.5C190.739 271.958 196.991 266.488 203.476 261.337C206.738 258.76 210.001 256.227 213.264 253.739C216.58 251.292 220.153 249.114 223.42 246.593C223.603 246.447 223.811 246.753 223.628 246.875C220.238 249.224 217.118 252.05 213.839 254.583C210.56 257.116 207.293 259.673 204.051 262.243C197.566 267.382 191.057 272.508 184.694 277.794C184.596 277.941 184.401 277.659 184.56 277.5Z" fill="#263238"/>
<path d="M182.712 286.004C181.489 278.663 181.085 247.511 182.101 239.999C182.107 239.983 182.118 239.969 182.132 239.96C182.146 239.95 182.163 239.945 182.18 239.945C182.197 239.945 182.214 239.95 182.228 239.96C182.242 239.969 182.253 239.983 182.26 239.999C182.859 247.511 183.177 277.439 183.3 284.781C183.41 284.683 188.561 280.914 190.054 279.947C190.274 279.813 190.457 280.07 190.262 280.229C187.886 282.331 185.363 284.261 182.712 286.004Z" fill="#263238"/>
<path d="M362.929 125.328C373.292 125.707 388.782 121.155 395.964 123.872C397.766 124.473 399.326 125.64 400.413 127.198C401.499 128.756 402.055 130.623 401.996 132.522C401.996 132.522 408.897 127.518 415.039 131.066C418.196 132.889 418.062 139.533 418.062 139.533C418.062 139.533 423.763 135.765 429.073 139.252C433.258 142.029 432.487 148.282 432.487 148.282C432.487 148.282 439.657 147.205 443.022 151.414C449.837 159.979 429.893 198.251 412.69 196.82C404.676 196.159 410.06 187.031 410.06 187.031C410.06 187.031 399.158 198.239 391.156 194.373C383.154 190.506 390.862 179.066 390.862 179.066C390.862 179.066 380.205 189.833 372.313 184.939C364.103 179.849 373.757 169.779 373.757 169.779C373.757 169.779 363.54 175.285 358.365 170.159C349.8 161.692 371.041 152.234 373.427 142.776L361.95 130.895L362.929 125.328Z" fill="#D3766A"/>
<path d="M378.994 123.957C369.205 122.734 364.384 107.317 355.196 104.809C342.764 101.42 347.169 119.687 361.925 130.919L374.919 137.637L378.994 123.957Z" fill="#D3766A"/>
<path d="M432.487 149.297C432.487 149.268 432.499 149.24 432.519 149.219C432.54 149.199 432.568 149.187 432.597 149.187C432.626 149.187 432.654 149.199 432.675 149.219C432.696 149.24 432.707 149.268 432.707 149.297C429.22 163.503 421.022 178.038 409.803 187.545C409.435 187.863 408.763 187.398 409.105 186.97C418.796 175.016 426.467 163.588 432.487 149.297Z" fill="#263238"/>
<path d="M418.245 139.399C418.306 139.252 418.575 139.399 418.526 139.533C414.856 154.142 405.178 170.257 390.948 179.702C390.458 180.02 389.724 179.825 390.226 179.409C399.219 172.41 412.874 152.295 418.245 139.399Z" fill="#263238"/>
<path d="M372.484 170.134C385.772 160.554 394.667 147.682 401.849 133.146C401.947 132.963 402.204 133.146 402.168 133.293C400.577 141.369 394.997 150.154 390.091 156.614C385.644 162.711 379.674 167.533 372.778 170.599C372.545 170.721 372.191 170.342 372.484 170.134Z" fill="#263238"/>
</svg>
